<?xml version="1.0" encoding="UTF-8"?>
<svg version="1.1" xmlns="http://www.w3.org/2000/svg" width="200" height="200">
<path d="M0 0 C66 0 132 0 200 0 C200 66 200 132 200 200 C134 200 68 200 0 200 C0 134 0 68 0 0 Z " fill="#F4BFB2" transform="translate(0,0)"/>
<path d="M0 0 C0.33 0 0.66 0 1 0 C1.54211036 6.13214809 1.54211036 6.13214809 1.77128601 8.72973633 C2.10939737 12.5614343 2.44883352 16.39300673 2.79077148 20.22436523 C3.41723987 27.26198254 4.03344378 34.29890006 4.57421875 41.34375 C4.65816895 42.40779053 4.74211914 43.47183105 4.82861328 44.56811523 C4.98189808 46.53057667 5.12768071 48.49364178 5.26513672 50.45727539 C5.43913838 52.64498805 5.70839438 54.82483807 6 57 C8.62118133 58.31059066 10.98606159 58.09517238 13.86694336 58.13867188 C25.39555697 58.38125186 25.39555697 58.38125186 29.4375 62 C30.283125 62.99 31.12875 63.98 32 65 C40.65252434 69.32626217 55.90021252 65.84561059 65.09375 64.046875 C68.09521427 63.29240993 68.09521427 63.29240993 69.33740234 60.98193359 C71 59 71 59 73.52783203 58.39404297 C74.51122559 58.34393066 75.49461914 58.29381836 76.5078125 58.2421875 C77.57644531 58.17386719 78.64507812 58.10554688 79.74609375 58.03515625 C80.86113281 57.98230469 81.97617188 57.92945313 83.125 57.875 C85.33639955 57.75567075 87.54739488 57.62850104 89.7578125 57.4921875 C90.7389502 57.44433105 91.72008789 57.39647461 92.73095703 57.34716797 C93.47974121 57.23260254 94.22852539 57.11803711 95 57 C95.495 56.01 95.495 56.01 96 55 C97.98 55.66 99.96 56.32 102 57 C104.38530575 72.36069233 105.82613737 87.73152699 106.99731445 103.22363281 C107.05710983 103.99497055 107.11690521 104.76630829 107.17851257 105.5610199 C107.29178321 107.02706614 107.40108083 108.49342609 107.50593567 109.96009827 C107.50447407 113.26754005 107.50447407 113.26754005 109 116 C111.70838086 116.09514592 114.39118513 116.12554932 117.09985352 116.11352539 C118.37291351 116.11374443 118.37291351 116.11374443 119.67169189 116.1139679 C122.49078891 116.11326848 125.30982071 116.10547478 128.12890625 116.09765625 C130.07803817 116.09579217 132.02717055 116.09436822 133.9763031 116.09336853 C139.11706832 116.08954255 144.25780547 116.07971159 149.39855957 116.06866455 C154.64005148 116.05845215 159.8815479 116.05387128 165.12304688 116.04882812 C175.41537694 116.03808939 185.70768614 116.02101201 196 116 C196.01981934 115.410979 196.03963867 114.82195801 196.06005859 114.21508789 C196.15643277 111.49717649 196.26564712 108.77991897 196.375 106.0625 C196.4059375 105.13630859 196.436875 104.21011719 196.46875 103.25585938 C196.72071095 97.27178678 197.53424807 91.80938265 199 86 C199.33 86 199.66 86 200 86 C200 108.44 200 130.88 200 154 C134 154 68 154 0 154 C0 103.18 0 52.36 0 0 Z " fill="#FEFEFE" transform="translate(0,46)"/>
<path d="M0 0 C66 0 132 0 200 0 C200 38.94 200 77.88 200 118 C199.34 118 198.68 118 198 118 C197.34 119.65 196.68 121.3 196 123 C195.67 123 195.34 123 195 123 C194.68587105 120.54186472 194.37334503 118.08355139 194.0625 115.625 C193.9704126 114.89853271 193.8783252 114.17206543 193.78344727 113.42358398 C193.17063646 108.53032499 192.64821172 103.63834332 192.24609375 98.72265625 C192.17174479 96.97174479 192.17174479 96.97174479 191 96 C188.58889501 95.85242014 186.20270448 95.76507829 183.7890625 95.71875 C183.06512299 95.70034058 182.34118347 95.68193115 181.5953064 95.66296387 C179.27195586 95.60404432 176.94852998 95.55132488 174.625 95.5 C171.57536579 95.43232873 168.52596501 95.35859038 165.4765625 95.28125 C164.77334869 95.26767456 164.07013489 95.25409912 163.34561157 95.2401123 C160.30983526 95.16289331 157.90243034 94.96747678 155 94 C154.65595735 88.151275 154.96122908 85.0646182 158 80 C158.79217894 76.78927476 158.97632779 74.18003908 158 71 C154.70417927 67.57122684 151.10031161 65.21769653 146.32421875 64.72265625 C143.80777129 64.78000033 143.80777129 64.78000033 142 67 C142.05515104 69.05429357 142.05515104 69.05429357 142.5 71.3125 C143.04798116 75.25544492 142.6766767 77.35076247 141 81 C140.83242243 84.20870233 140.83242243 84.20870233 141 87 C142.32 87.66 143.64 88.32 145 89 C145 89.99 145 90.98 145 92 C137.68279371 92.30393174 131.06591269 91.49694312 123.9375 89.875 C122.94468018 89.65271729 121.95186035 89.43043457 120.92895508 89.20141602 C114.585057 87.72873449 108.35369928 86.03534164 102.1875 83.9375 C101.48294678 83.70466309 100.77839355 83.47182617 100.05249023 83.23193359 C95.82366781 81.70160362 95.11918411 81.23836822 93 77 C91.515 58.19 91.515 58.19 90 39 C60.3 39 30.6 39 0 39 C0 26.13 0 13.26 0 0 Z " fill="#FEFEFE" transform="translate(0,0)"/>
<path d="M0 0 C0.86882812 0.2165625 1.73765625 0.433125 2.6328125 0.65625 C3.78523438 0.9346875 4.93765625 1.213125 6.125 1.5 C7.26195312 1.7784375 8.39890625 2.056875 9.5703125 2.34375 C13.40019692 3.18793451 13.40019692 3.18793451 19 3 C19.495 8.94 19.495 8.94 20 15 C17.36 15 14.72 15 12 15 C14.64 15.33 17.28 15.66 20 16 C20.47089511 27.11835668 20.28516402 39.47702421 14 49 C13.01 49.33 12.02 49.66 11 50 C15.29 50.33 19.58 50.66 24 51 C23.505 47.535 23.505 47.535 23 44 C26.63 43.67 30.26 43.34 34 43 C30.37 43 26.74 43 23 43 C21.73762269 40.47524538 21.90143596 38.68799534 21.9375 35.875 C21.94652344 34.96492188 21.95554688 34.05484375 21.96484375 33.1171875 C21.97644531 32.41851562 21.98804688 31.71984375 22 31 C23.98 30.67 25.96 30.34 28 30 C26.02 30 24.04 30 22 30 C20.84863148 25.39452591 21 22.06005857 21 17 C26.94 15.68 32.88 14.36 39 13 C40.32 17.62 41.64 22.24 43 27 C44.32 24.36 45.64 21.72 47 19 C47.66 19 48.32 19 49 19 C50.625 21.5 50.625 21.5 52 24 C54.85288164 18.26769829 56.53444296 13.40140935 57 7 C57.99 8.485 57.99 8.485 59 10 C59.66 9.01 60.32 8.02 61 7 C61.66 7 62.32 7 63 7 C63.05493545 9.14553464 63.09320737 11.29149766 63.125 13.4375 C63.14820313 14.63246094 63.17140625 15.82742187 63.1953125 17.05859375 C63.04502631 20.09136914 62.73755836 22.39469553 62.02734375 25.28515625 C60.76856739 30.50829698 60.59100202 35.64614923 60.4375 41 C60.37787114 42.87513736 60.31429425 44.75015483 60.24609375 46.625 C60.21020142 47.85089844 60.21020142 47.85089844 60.17358398 49.1015625 C60 51 60 51 59 52 C56.29161914 52.09514592 53.60881487 52.12554932 50.90014648 52.11352539 C50.05143982 52.11367142 49.20273315 52.11381744 48.32830811 52.1139679 C45.50921109 52.11326848 42.69017929 52.10547478 39.87109375 52.09765625 C37.92196183 52.09579217 35.97282945 52.09436822 34.0236969 52.09336853 C28.88293168 52.08954255 23.74219453 52.07971159 18.60144043 52.06866455 C13.35994852 52.05845215 8.1184521 52.05387128 2.87695312 52.04882812 C-7.41537694 52.03808939 -17.70768614 52.02101201 -28 52 C-28 51.67 -28 51.34 -28 51 C-24.37 51 -20.74 51 -17 51 C-17.56589844 49.91460937 -18.13179687 48.82921875 -18.71484375 47.7109375 C-19.45615759 46.2658447 -20.19701918 44.82051983 -20.9375 43.375 C-21.31068359 42.66214844 -21.68386719 41.94929688 -22.06835938 41.21484375 C-25.07169879 35.31639338 -26.15234176 30.27329038 -26.0625 23.625 C-26.05347656 22.75101563 -26.04445313 21.87703125 -26.03515625 20.9765625 C-26.01775391 19.99816406 -26.01775391 19.99816406 -26 19 C-22.83884224 20.36983503 -22.0072908 20.9890638 -20 24 C-19.87882812 23.10796875 -19.75765625 22.2159375 -19.6328125 21.296875 C-19.46523437 20.12640625 -19.29765625 18.9559375 -19.125 17.75 C-18.96257812 16.58984375 -18.80015625 15.4296875 -18.6328125 14.234375 C-18.08179569 11.41806687 -17.44203518 9.44782443 -16 7 C-15.02851949 8.80548737 -14.07353489 10.61985301 -13.125 12.4375 C-12.59132813 13.44683594 -12.05765625 14.45617187 -11.5078125 15.49609375 C-9.7414186 19.6009003 -8.82484253 23.6244009 -8 28 C-7.82871582 27.29391602 -7.65743164 26.58783203 -7.48095703 25.86035156 C-6.7005995 22.65566924 -5.91288394 19.45283984 -5.125 16.25 C-4.85558594 15.13882813 -4.58617187 14.02765625 -4.30859375 12.8828125 C-4.04433594 11.81289062 -3.78007812 10.74296875 -3.5078125 9.640625 C-3.26691895 8.65610352 -3.02602539 7.67158203 -2.77783203 6.65722656 C-2.07077953 4.24179673 -1.20907658 2.19915061 0 0 Z " fill="#F7C0B2" transform="translate(137,111)"/>
<path d="M0 0 C0.82704941 0.00202423 1.65409882 0.00404846 2.50621033 0.00613403 C3.37281784 0.00438171 4.23942535 0.00262939 5.1322937 0.00082397 C8.01150993 -0.00359568 10.89066529 -0.00065615 13.7698822 0.00271606 C15.76145947 0.00204306 17.75303666 0.00107306 19.74461365 -0.00018311 C23.92443115 -0.00166023 28.10422733 0.00049495 32.28404236 0.00515747 C37.65465747 0.01085476 43.0252226 0.00757584 48.39583588 0.00158501 C52.51005941 -0.00202021 56.62427099 -0.0008822 60.73849487 0.0017128 C62.71934007 0.00238218 64.70018633 0.00155326 66.68103027 -0.00076675 C69.44440096 -0.00329263 72.20768954 0.00054639 74.97105408 0.00613403 C75.79810349 0.0041098 76.62515289 0.00208557 77.4772644 0 C83.12436976 0.02126612 83.12436976 0.02126612 84.2386322 1.13552856 C84.5542322 3.9066412 84.81124392 6.66083719 85.0276947 9.44021606 C85.09523956 10.2751358 85.16278442 11.11005554 85.2323761 11.97027588 C85.37414595 13.74050829 85.51353114 15.51093301 85.65074158 17.28152466 C85.86223915 19.99267132 86.08511182 22.7027196 86.3089447 25.41287231 C86.44505497 27.1302654 86.58049376 28.84771186 86.7151947 30.56521606 C86.78284027 31.37779877 86.85048584 32.19038147 86.92018127 33.02758789 C87.17387413 36.40361988 87.32059285 38.88964661 86.2386322 42.13552856 C84.2586322 41.14552856 82.2786322 40.15552856 80.2386322 39.13552856 C80.2386322 34.51552856 80.2386322 29.89552856 80.2386322 25.13552856 C79.5786322 25.13552856 78.9186322 25.13552856 78.2386322 25.13552856 C77.7436322 23.65052856 77.7436322 23.65052856 77.2386322 22.13552856 C76.2486322 22.13552856 75.2586322 22.13552856 74.2386322 22.13552856 C73.5786322 22.79552856 72.9186322 23.45552856 72.2386322 24.13552856 C71.7436322 23.14552856 71.7436322 23.14552856 71.2386322 22.13552856 C70.2486322 22.13552856 69.2586322 22.13552856 68.2386322 22.13552856 C67.9086322 23.45552856 67.5786322 24.77552856 67.2386322 26.13552856 C66.5786322 26.13552856 65.9186322 26.13552856 65.2386322 26.13552856 C65.7336322 33.06552856 65.7336322 33.06552856 66.2386322 40.13552856 C63.47319315 41.50180494 60.70223317 42.85374039 57.9261322 44.19802856 C57.14044861 44.58796997 56.35476501 44.97791138 55.54527283 45.37966919 C54.78794861 45.74382935 54.03062439 46.1079895 53.25035095 46.48318481 C52.20560608 46.99377441 52.20560608 46.99377441 51.13975525 47.51467896 C49.2386322 48.13552856 49.2386322 48.13552856 46.2386322 47.13552856 C44.62535095 44.80740356 44.62535095 44.80740356 42.9261322 41.88552856 C40.11129269 37.26799396 37.51106006 34.36590084 33.2386322 31.13552856 C33.2386322 30.47552856 33.2386322 29.81552856 33.2386322 29.13552856 C35.5486322 28.47552856 37.8586322 27.81552856 40.2386322 27.13552856 C39.22815254 16.1800633 39.22815254 16.1800633 34.1136322 6.94802856 C30.02984394 5.79391449 26.43833667 5.36385142 22.2386322 6.13552856 C14.78799531 10.63402631 12.27143574 18.00431441 10.2386322 26.13552856 C11.8783197 26.35209106 11.8783197 26.35209106 13.5511322 26.57302856 C17.2386322 27.13552856 17.2386322 27.13552856 20.2386322 28.13552856 C20.2386322 29.12552856 20.2386322 30.11552856 20.2386322 31.13552856 C18.39996218 32.38564168 16.47520771 33.29741843 14.47691345 34.26834106 C7.95258135 39.71097762 6.11614461 48.23557667 4.4261322 56.19802856 C4.21021423 57.15902466 3.99429626 58.12002075 3.77183533 59.11013794 C3.24817563 61.44915126 2.74158646 63.79197574 2.2386322 66.13552856 C7.5186322 66.13552856 12.7986322 66.13552856 18.2386322 66.13552856 C18.2386322 66.46552856 18.2386322 66.79552856 18.2386322 67.13552856 C15.46753914 67.18945254 12.69749402 67.22916311 9.9261322 67.26052856 C9.14044861 67.27728638 8.35476501 67.29404419 7.54527283 67.31130981 C6.78794861 67.31775513 6.03062439 67.32420044 5.25035095 67.33084106 C4.55385437 67.3413147 3.85735779 67.35178833 3.13975525 67.36257935 C1.2386322 67.13552856 1.2386322 67.13552856 -1.7613678 65.13552856 C-2.26725769 63.18041992 -2.26725769 63.18041992 -2.45326233 60.75613403 C-2.52989105 59.84693207 -2.60651978 58.9377301 -2.68547058 58.00097656 C-2.78878189 56.51683762 -2.78878189 56.51683762 -2.8941803 55.00271606 C-2.97634796 53.97808258 -3.05851563 52.9534491 -3.14317322 51.89776611 C-3.40407301 48.60289504 -3.64531037 45.30690469 -3.8863678 42.01052856 C-4.0556823 39.84246117 -4.22624134 37.67449059 -4.39808655 35.50662231 C-4.87832227 29.38469424 -5.32395432 23.26064194 -5.7613678 17.13552856 C-5.82529724 16.26738525 -5.88922668 15.39924194 -5.95509338 14.50479126 C-6.12282403 12.21799908 -6.28350131 9.93085371 -6.4410553 7.64334106 C-6.52855042 6.39440063 -6.61604553 5.14546021 -6.70619202 3.8586731 C-6.72440002 2.9600354 -6.74260803 2.06139771 -6.7613678 1.13552856 C-4.94139874 -0.68444049 -2.42247136 0.00912265 0 0 Z " fill="#8AD4DA" transform="translate(6.7613677978515625,37.864471435546875)"/>
<path d="M0 0 C3.63467079 1.62400184 4.77408696 2.66113044 7 6 C7.62689496 7.93867955 8.18291162 9.90095181 8.6875 11.875 C8.95949219 12.90367188 9.23148438 13.93234375 9.51171875 14.9921875 C10.00575258 18.0354359 9.81054977 20.05155721 9 23 C6.69 23.33 4.38 23.66 2 24 C2.70125 24.66 3.4025 25.32 4.125 26 C8.83837398 30.71337398 12.73693024 36.19898709 16 42 C18.83002896 41.09953624 21.54255983 40.23525495 24.1875 38.875 C26 38 26 38 29 38 C29 41.3 29 44.6 29 48 C29.66 48 30.32 48 31 48 C31.37125 48.9075 31.7425 49.815 32.125 50.75 C34.26026255 54.45112176 36.34208252 55.88653657 40 58 C39.67 58.99 39.34 59.98 39 61 C37.02 61 35.04 61 33 61 C32.814375 61.928125 32.814375 61.928125 32.625 62.875 C32 65 32 65 30 67 C19.26581998 70.25459144 3.70526998 73.24539848 -6.94921875 68.7578125 C-10.22018893 66.39707639 -11.71380177 64.85859469 -13 61 C-18.28 61 -23.56 61 -29 61 C-29 50.00008844 -25.63737699 37.26042616 -18 29 C-14 26 -14 26 -11 26 C-11 25.01 -11 24.02 -11 23 C-14.3 22.34 -17.6 21.68 -21 21 C-19.62574639 13.00434265 -17.18526296 7.53918106 -11.75 1.5 C-7.81077158 -0.64867005 -4.39284002 -0.66968886 0 0 Z " fill="#7242A1" transform="translate(38,43)"/>
<path d="M0 0 C0.7425 0.185625 1.485 0.37125 2.25 0.5625 C4.94990963 0.99203108 6.44631077 0.85122974 9 0 C9.33 1.32 9.66 2.64 10 4 C10.66 4 11.32 4 12 4 C12 8.62 12 13.24 12 18 C13.98 18.66 15.96 19.32 18 20 C19.36248202 20.51717619 20.72102273 21.0449301 22.07421875 21.5859375 C33.29392226 25.96385289 44.15393367 28.7732958 56 31 C56 38.59 56 46.18 56 54 C49.36821451 53.26313495 44.53848967 52.40628644 38.5625 50 C37.85673828 49.72671875 37.15097656 49.4534375 36.42382812 49.171875 C33.90675803 48.19101101 31.41751317 47.20875658 29 46 C28.34 46.99 27.68 47.98 27 49 C27 47.35 27 45.7 27 44 C25.02 43.34 23.04 42.68 21 42 C20.67 42.99 20.34 43.98 20 45 C11.97667603 45.90041311 4.07029553 46.11547323 -4 46 C-4 45.67 -4 45.34 -4 45 C-1.03 44.505 -1.03 44.505 2 44 C1.26047893 40.7199677 1.26047893 40.7199677 -2 39.125 C-5 37 -5 37 -5.875 34.25 C-5.91625 33.5075 -5.9575 32.765 -6 32 C-6.66 32 -7.32 32 -8 32 C-8 28.37 -8 24.74 -8 21 C-6.02 20.34 -4.04 19.68 -2 19 C-2.165 18.175 -2.33 17.35 -2.5 16.5 C-3.05896045 12.58727683 -3.06807187 8.94816827 -3 5 C-2.34 5 -1.68 5 -1 5 C-0.67 3.35 -0.34 1.7 0 0 Z " fill="#F8C2B2" transform="translate(75,59)"/>
<path d="M0 0 C0.99 1.485 0.99 1.485 2 3 C2.66 2.01 3.32 1.02 4 0 C4.66 0 5.32 0 6 0 C6.05493545 2.14553464 6.09320737 4.29149766 6.125 6.4375 C6.14820313 7.63246094 6.17140625 8.82742187 6.1953125 10.05859375 C6.04502631 13.09136914 5.73755836 15.39469553 5.02734375 18.28515625 C3.76856739 23.50829698 3.59100202 28.64614923 3.4375 34 C3.37787114 35.87513736 3.31429425 37.75015483 3.24609375 39.625 C3.21020142 40.85089844 3.21020142 40.85089844 3.17358398 42.1015625 C3 44 3 44 2 45 C-0.70838086 45.09514592 -3.39118513 45.12554932 -6.09985352 45.11352539 C-6.94856018 45.11367142 -7.79726685 45.11381744 -8.67169189 45.1139679 C-11.49078891 45.11326848 -14.30982071 45.10547478 -17.12890625 45.09765625 C-19.07803817 45.09579217 -21.02717055 45.09436822 -22.9763031 45.09336853 C-28.11706832 45.08954255 -33.25780547 45.07971159 -38.39855957 45.06866455 C-43.64005148 45.05845215 -48.8815479 45.05387128 -54.12304688 45.04882812 C-64.41537694 45.03808939 -74.70768614 45.02101201 -85 45 C-85 44.67 -85 44.34 -85 44 C-67.84 44 -50.68 44 -33 44 C-33.495 40.535 -33.495 40.535 -34 37 C-30.37 36.67 -26.74 36.34 -23 36 C-26.63 36 -30.26 36 -34 36 C-35.26237731 33.47524538 -35.09856404 31.68799534 -35.0625 28.875 C-35.05347656 27.96492188 -35.04445312 27.05484375 -35.03515625 26.1171875 C-35.02355469 25.41851562 -35.01195312 24.71984375 -35 24 C-33.02 23.67 -31.04 23.34 -29 23 C-30.98 23 -32.96 23 -35 23 C-36.15136852 18.39452591 -36 15.06005857 -36 10 C-30.06 8.68 -24.12 7.36 -18 6 C-16.68 10.62 -15.36 15.24 -14 20 C-12.68 17.36 -11.36 14.72 -10 12 C-9.34 12 -8.68 12 -8 12 C-6.375 14.5 -6.375 14.5 -5 17 C-2.14711836 11.26769829 -0.46555704 6.40140935 0 0 Z " fill="#F9C4B1" transform="translate(194,118)"/>
<path d="M0 0 C0.5825354 0.22187988 1.1650708 0.44375977 1.76525879 0.67236328 C4.15343921 1.58013883 6.54550244 2.47733301 8.9375 3.375 C10.18370117 3.85066406 10.18370117 3.85066406 11.45507812 4.3359375 C18.38444188 6.92433797 25.49805628 9.48399637 33 9 C31.24846657 18.5936263 29.07773682 27.73554348 26 37 C25.67 37 25.34 37 25 37 C24.82984375 36.0821875 24.6596875 35.164375 24.484375 34.21875 C23.09564976 27.18648176 21.60274467 21.21162875 18 15 C15.74566386 20.56069582 15.40038172 26.0785651 15 32 C12.69 30.02 10.38 28.04 8 26 C8.65838523 36.34605364 10.46618662 44.21492215 15.5390625 53.3046875 C17 56 17 56 17 58 C15.02090602 58.02686553 13.04171029 58.04633375 11.0625 58.0625 C9.96035156 58.07410156 8.85820313 58.08570313 7.72265625 58.09765625 C5 58 5 58 4 57 C3.79042454 55.61938507 3.64177372 54.2294276 3.51928711 52.83837891 C3.43927963 51.95300446 3.35927216 51.06763 3.27684021 50.15542603 C3.15333946 48.70563858 3.15333946 48.70563858 3.02734375 47.2265625 C2.8962899 45.73629044 2.8962899 45.73629044 2.7625885 44.21591187 C2.57801077 42.10263181 2.39574499 39.98914878 2.21557617 37.87548828 C1.94159457 34.67286224 1.65787687 31.47120843 1.37304688 28.26953125 C1.19471743 26.2135932 1.01696565 24.15760494 0.83984375 22.1015625 C0.75548569 21.15527985 0.67112762 20.20899719 0.58421326 19.23403931 C0.045657 12.80897817 -0.09441238 6.44629177 0 0 Z " fill="#7545A5" transform="translate(103,104)"/>
<path d="M0 0 C4.39656173 -0.02465504 8.7930872 -0.04283842 13.18969727 -0.05493164 C14.68644918 -0.05997121 16.18319616 -0.06680287 17.67993164 -0.07543945 C19.82699807 -0.08752159 21.97399962 -0.09323191 24.12109375 -0.09765625 C26.06133423 -0.10551147 26.06133423 -0.10551147 28.04077148 -0.11352539 C31 0 31 0 32 1 C33.94949521 14.42985591 35.49219003 29.09276942 28 41 C26.25372522 38.38058783 25.61277612 36.96175123 25 34 C24.34 34 23.68 34 23 34 C22.01 36.97 21.02 39.94 20 43 C19.34 42.67 18.68 42.34 18 42 C17.22185428 39.14981508 16.5325851 36.3155456 15.875 33.4375 C14.21578566 26.67005632 12.16290919 20.46621262 9 14.25 C8.68015137 13.6202124 8.36030273 12.9904248 8.03076172 12.34155273 C5.70258899 7.95113321 2.95080361 3.99587989 0 0 Z " fill="#7544A5" transform="translate(161,96)"/>
<path d="M0 0 C0.7425 0.185625 1.485 0.37125 2.25 0.5625 C4.94990963 0.99203108 6.44631077 0.85122974 9 0 C9.33 1.32 9.66 2.64 10 4 C10.66 4 11.32 4 12 4 C12 8.62 12 13.24 12 18 C13.98 18.66 15.96 19.32 18 20 C21.661215 25.4918225 22.66641296 32.469153 22 39 C21.01 39.66 20.02 40.32 19 41 C17 39 17 39 16.875 35.375 C16.91625 34.26125 16.9575 33.1475 17 32 C16.34 31.7525 15.68 31.505 15 31.25 C12 30 12 30 10.23828125 28.765625 C8.08481483 27.35036512 6.54531618 26.474774 4 26 C1.0472092 27.19322147 -1.30730389 28.70179534 -3.8984375 30.546875 C-6 32 -6 32 -8 32 C-8 28.37 -8 24.74 -8 21 C-6.02 20.34 -4.04 19.68 -2 19 C-2.165 18.175 -2.33 17.35 -2.5 16.5 C-3.05896045 12.58727683 -3.06807187 8.94816827 -3 5 C-2.34 5 -1.68 5 -1 5 C-0.67 3.35 -0.34 1.7 0 0 Z " fill="#F7C4B1" transform="translate(75,59)"/>
<path d="M0 0 C0.66 0.99 1.32 1.98 2 3 C2.66 2.01 3.32 1.02 4 0 C4.66 0 5.32 0 6 0 C6.05493545 2.14553464 6.09320737 4.29149766 6.125 6.4375 C6.14820313 7.63246094 6.17140625 8.82742187 6.1953125 10.05859375 C6.04517311 13.08840673 5.73921124 15.39303869 5.03125 18.28125 C3.76879077 23.5232003 3.55448216 28.68925272 3.375 34.0625 C3.33632812 35.02349609 3.29765625 35.98449219 3.2578125 36.97460938 C3.1646177 39.31612867 3.08127361 41.65803662 3 44 C-1.95 44 -6.9 44 -12 44 C-12.58359562 40.08542014 -13.14255987 36.16998083 -13.6875 32.25 C-13.85572266 31.13882813 -14.02394531 30.02765625 -14.19726562 28.8828125 C-14.34228516 27.81289062 -14.48730469 26.74296875 -14.63671875 25.640625 C-14.77811279 24.65610352 -14.91950684 23.67158203 -15.06518555 22.65722656 C-14.98592953 19.42643092 -14.11537237 18.36859612 -12 16 C-11.30419733 14.68163705 -10.62775567 13.35208914 -10 12 C-9.34 12 -8.68 12 -8 12 C-6.375 14.5 -6.375 14.5 -5 17 C-2.14711836 11.26769829 -0.46555704 6.40140935 0 0 Z " fill="#89CAD8" transform="translate(194,118)"/>
<path d="M0 0 C3.63467079 1.62400184 4.77408696 2.66113044 7 6 C7.62689496 7.93867955 8.18291162 9.90095181 8.6875 11.875 C8.95949219 12.90367188 9.23148438 13.93234375 9.51171875 14.9921875 C10.00575258 18.0354359 9.81054977 20.05155721 9 23 C7.68 23.33 6.36 23.66 5 24 C5.66 22.68 6.32 21.36 7 20 C4.69 20.66 2.38 21.32 0 22 C0 22.33 0 22.66 0 23 C-7.69006362 24.409845 -13.5538155 23.23007556 -21 21 C-19.77096822 13.07549656 -17.11325067 7.45916741 -11.75 1.5 C-7.81077158 -0.64867005 -4.39284002 -0.66968886 0 0 Z " fill="#E85356" transform="translate(38,43)"/>
<path d="M0 0 C0.86882812 0.2165625 1.73765625 0.433125 2.6328125 0.65625 C3.78523437 0.9346875 4.93765625 1.213125 6.125 1.5 C7.26195312 1.7784375 8.39890625 2.056875 9.5703125 2.34375 C13.40019692 3.18793451 13.40019692 3.18793451 19 3 C19.33 6.96 19.66 10.92 20 15 C17.36 15 14.72 15 12 15 C14.64 15.33 17.28 15.66 20 16 C20.02698189 17.62490954 20.04638757 19.24994633 20.0625 20.875 C20.07410156 21.77992188 20.08570313 22.68484375 20.09765625 23.6171875 C20 26 20 26 19 28 C9.65732449 28.72957987 2.24509922 26.25677215 -6 22 C-5.5248143 19.86166436 -5.04906763 17.72347801 -4.5703125 15.5859375 C-4.19982549 13.90605804 -3.83983519 12.2238167 -3.4921875 10.5390625 C-3.32976562 9.76304688 -3.16734375 8.98703125 -3 8.1875 C-2.7834375 7.12595703 -2.7834375 7.12595703 -2.5625 6.04296875 C-1.95881528 3.85041937 -1.07731393 1.99751957 0 0 Z " fill="#F9C4B2" transform="translate(137,111)"/>
<path d="M0 0 C6.52534445 5.9676227 8.60174585 15.46468938 9 24 C8.6796731 30.69929584 7.8540886 37.35124873 7 44 C4.69 44 2.38 44 0 44 C-1.322644 41.46317484 -2.63317361 38.92122349 -3.9375 36.375 C-4.31068359 35.66214844 -4.68386719 34.94929688 -5.06835938 34.21484375 C-8.07169879 28.31639338 -9.15234176 23.27329038 -9.0625 16.625 C-9.05347656 15.75101563 -9.04445313 14.87703125 -9.03515625 13.9765625 C-9.02355469 13.32429687 -9.01195313 12.67203125 -9 12 C-5.83884224 13.36983503 -5.0072908 13.9890638 -3 17 C-2.86722656 16.10796875 -2.73445313 15.2159375 -2.59765625 14.296875 C-2.42105469 13.12640625 -2.24445313 11.9559375 -2.0625 10.75 C-1.88847656 9.58984375 -1.71445313 8.4296875 -1.53515625 7.234375 C-1.1272264 4.76893039 -0.66098697 2.40575438 0 0 Z " fill="#88CED9" transform="translate(120,118)"/>
<path d="M0 0 C3.86145271 1.7531559 7.05246625 3.9463997 10 7 C11.05169459 10.21533711 10.86281559 12.75211559 10 16 C9.04906703 17.69514137 8.04892238 19.36368108 7 21 C6.80531126 22.38986127 6.66284686 23.78766124 6.5625 25.1875 C6 29 6 29 4.3125 30.5625 C1.32684055 31.12735449 -1.0568415 30.66889966 -4 30 C-4 28.35 -4 26.7 -4 25 C-6.475 24.01 -6.475 24.01 -9 23 C-8.85831863 21.56208484 -8.71148957 20.1246763 -8.5625 18.6875 C-8.48128906 17.88699219 -8.40007812 17.08648437 -8.31640625 16.26171875 C-8 14 -8 14 -7 11 C-7.20555864 9.03397896 -7.20555864 9.03397896 -7.625 7 C-8.14725131 3.2617801 -8.14725131 3.2617801 -6.875 1 C-4.36550162 -0.33839914 -2.83193827 -0.25670807 0 0 Z " fill="#EA5355" transform="translate(149,64)"/>
<path d="M0 0 C2.78169566 1.56171817 5.37015064 3.2338447 7.95703125 5.09765625 C8.61703125 5.42765625 9.27703125 5.75765625 9.95703125 6.09765625 C10.10140625 7.23203125 10.24578125 8.36640625 10.39453125 9.53515625 C10.58015625 10.71078125 10.76578125 11.88640625 10.95703125 13.09765625 C11.94703125 13.75765625 12.93703125 14.41765625 13.95703125 15.09765625 C13.62703125 16.41765625 13.29703125 17.73765625 12.95703125 19.09765625 C4.93370728 19.99806936 -2.97267322 20.21312948 -11.04296875 20.09765625 C-11.04296875 19.76765625 -11.04296875 19.43765625 -11.04296875 19.09765625 C-9.06296875 18.76765625 -7.08296875 18.43765625 -5.04296875 18.09765625 C-5.77659236 14.816008 -5.77659236 14.816008 -9.04296875 13.28515625 C-12.04296875 11.09765625 -12.04296875 11.09765625 -12.91796875 7.84765625 C-12.95921875 6.94015625 -13.00046875 6.03265625 -13.04296875 5.09765625 C-5.19598812 -1.54078723 -5.19598812 -1.54078723 0 0 Z " fill="#8BD5DA" transform="translate(82.04296875,84.90234375)"/>
<path d="M0 0 C1.98 0.495 1.98 0.495 4 1 C4 1.99 4 2.98 4 4 C4.66 4 5.32 4 6 4 C6 8.62 6 13.24 6 18 C7.98 18.66 9.96 19.32 12 20 C15.661215 25.4918225 16.66641296 32.469153 16 39 C15.01 39.66 14.02 40.32 13 41 C11 39 11 39 10.875 35.375 C10.91625 34.26125 10.9575 33.1475 11 32 C10.319375 31.7525 9.63875 31.505 8.9375 31.25 C5.43134917 29.75802092 2.28379632 27.93164489 -1 26 C-0.67 25.360625 -0.34 24.72125 0 24.0625 C2.19561816 17.33841937 0.92077417 11.65868378 -1 5 C-0.625 2.0625 -0.625 2.0625 0 0 Z " fill="#EB5355" transform="translate(81,59)"/>
<path d="M0 0 C1.28317892 3.84953676 1.06643637 6.94738135 1 11 C5.62 11 10.24 11 15 11 C15 11.33 15 11.66 15 12 C-13.71 12 -42.42 12 -72 12 C-72 11.67 -72 11.34 -72 11 C-54.84 11 -37.68 11 -20 11 C-20.495 7.535 -20.495 7.535 -21 4 C-13.08 3.505 -13.08 3.505 -5 3 C-5 2.34 -5 1.68 -5 1 C-2 0 -2 0 0 0 Z " fill="#F2C7C1" transform="translate(181,151)"/>
<path d="M0 0 C0.66 0.33 1.32 0.66 2 1 C2 2.32 2 3.64 2 5 C3.65 5 5.3 5 7 5 C7 5.33 7 5.66 7 6 C5.35 6 3.7 6 2 6 C2.15847412 6.72018311 2.31694824 7.44036621 2.48022461 8.18237305 C2.97285006 10.85282412 3.20002649 13.37204546 3.31640625 16.08203125 C3.35830078 17.01337891 3.40019531 17.94472656 3.44335938 18.90429688 C3.48267578 19.86400391 3.52199219 20.82371094 3.5625 21.8125 C3.60568359 22.79154297 3.64886719 23.77058594 3.69335938 24.77929688 C3.79902166 27.18604898 3.89997465 29.59300703 4 32 C10.435 31.505 10.435 31.505 17 31 C12.0811341 33.45943295 9.41699411 33.15932336 4 33 C4.33 36.96 4.66 40.92 5 45 C12.92 44.505 12.92 44.505 21 44 C16.89441282 46.05279359 15.19793315 46.2216942 10.75 46.125 C9.67234375 46.10695312 8.5946875 46.08890625 7.484375 46.0703125 C6.25460938 46.03550781 6.25460938 46.03550781 5 46 C5.33 48.31 5.66 50.62 6 53 C0.39 53 -5.22 53 -11 53 C-7 51 -7 51 -4 50 C-2.79117904 47.99983534 -2.79117904 47.99983534 -2 46 C-3.65 45.67 -5.3 45.34 -7 45 C-7 44.67 -7 44.34 -7 44 C-4.03 43.505 -4.03 43.505 -1 43 C-0.01 34.75 0.98 26.5 2 18 C-1.3 18 -4.6 18 -8 18 C-12.125 17 -12.125 17 -15 16 C-9.49349364 14.05091483 -3.56408754 16.05410512 2 17 C1.34 11.39 0.68 5.78 0 0 Z " fill="#D894B0" transform="translate(155,109)"/>
<path d="M0 0 C6.52534445 5.9676227 8.60174585 15.46468938 9 24 C8.6796731 30.69929584 7.8540886 37.35124873 7 44 C5.21629632 40.61491871 4.42089061 37.57843831 3.6875 33.8125 C2.74643094 29.43872306 1.693126 26.11751711 -0.75 22.375 C-4.28214167 16.60477457 -2.95484018 11.05104987 -1.46875 4.74609375 C-1.03001147 3.14921454 -0.52369024 1.57107073 0 0 Z " fill="#8599D3" transform="translate(120,118)"/>
<path d="M0 0 C4.39656173 -0.02465504 8.7930872 -0.04283842 13.18969727 -0.05493164 C14.68644918 -0.05997121 16.18319616 -0.06680287 17.67993164 -0.07543945 C19.82699807 -0.08752159 21.97399962 -0.09323191 24.12109375 -0.09765625 C26.06133423 -0.10551147 26.06133423 -0.10551147 28.04077148 -0.11352539 C31 0 31 0 32 1 C32.04092937 3.33297433 32.04241723 5.66705225 32 8 C27.79260571 8.23309664 23.58687362 8.37467326 19.375 8.5 C18.18519531 8.56703125 16.99539062 8.6340625 15.76953125 8.703125 C7.0745004 8.89742737 7.0745004 8.89742737 3.82519531 6.18359375 C2.3236785 4.18157134 1.09288503 2.24785861 0 0 Z " fill="#7041A0" transform="translate(161,96)"/>
<path d="M0 0 C3.86145271 1.7531559 7.05246625 3.9463997 10 7 C11.45632337 11.45240531 10.49838182 14.88996775 8.625 19.0625 C8.08875 19.701875 7.5525 20.34125 7 21 C6.34 21 5.68 21 5 21 C5.33 19.35 5.66 17.7 6 16 C5.01 16 4.02 16 3 16 C3 15.01 3 14.02 3 13 C1.68 12.67 0.36 12.34 -1 12 C-1 11.34 -1 10.68 -1 10 C-1.8971875 10.3403125 -1.8971875 10.3403125 -2.8125 10.6875 C-5 11 -5 11 -6.75 9.875 C-8.41539291 7.37691063 -8.44233017 5.94886777 -8 3 C-5.80515759 -0.35002262 -3.82274589 -0.36250177 0 0 Z " fill="#322044" transform="translate(149,64)"/>
<path d="M0 0 C0.66 0 1.32 0 2 0 C2.41573899 9.99313361 1.84202194 19.36580636 -1 29 C-1.66 29.33 -2.32 29.66 -3 30 C-3.93393441 31.655611 -4.80102783 33.34950522 -5.625 35.0625 C-6.07101563 35.98160156 -6.51703125 36.90070313 -6.9765625 37.84765625 C-7.31429687 38.55792969 -7.65203125 39.26820313 -8 40 C-8.66 40 -9.32 40 -10 40 C-8.52037974 32.59411122 -6.31186985 25.58019802 -3.875 18.4375 C-3.50246094 17.33341797 -3.12992188 16.22933594 -2.74609375 15.09179688 C-1.83484757 12.39310627 -0.91940476 9.69591967 0 7 C-0.99 7 -1.98 7 -3 7 C-1.125 2.25 -1.125 2.25 0 0 Z " fill="#8ED6DC" transform="translate(198,118)"/>
<path d="M0 0 C0.66 0 1.32 0 2 0 C4.35164849 4.70329699 5.5192913 7.53191311 3.875 12.625 C3.57722656 13.45 3.27945313 14.275 2.97265625 15.125 C1.11801031 20.60700567 0.15080799 26.33573938 -1 32 C-1.33 32 -1.66 32 -2 32 C-2.59069373 28.08704474 -3.14261623 24.16957542 -3.6875 20.25 C-3.85572266 19.13882813 -4.02394531 18.02765625 -4.19726562 16.8828125 C-4.34228516 15.81289062 -4.48730469 14.74296875 -4.63671875 13.640625 C-4.77811279 12.65610352 -4.91950684 11.67158203 -5.06518555 10.65722656 C-4.98592953 7.42643092 -4.11537237 6.36859612 -2 4 C-1.30419733 2.68163705 -0.62775567 1.35208914 0 0 Z " fill="#879BD3" transform="translate(184,130)"/>
<path d="M0 0 C0.66 0.99 1.32 1.98 2 3 C4.48166904 5.64711364 7.04850755 7.89179111 10 10 C9.67 10.99 9.34 11.98 9 13 C7.02 13 5.04 13 3 13 C2.67 14.32 2.34 15.64 2 17 C0.34385343 17.38218767 -1.32457024 17.71395102 -3 18 C-4 17 -4 17 -4.1875 13.4375 C-4.13161832 9.0148645 -3.33175578 5.21722663 -2 1 C-1.34 0.67 -0.68 0.34 0 0 Z " fill="#2B1B3F" transform="translate(68,91)"/>
<path d="M0 0 C2.05078125 0.03255208 4.1015625 0.06510417 6.15234375 0.09765625 C6.5414436 1.55229106 6.91322404 3.01156832 7.27734375 4.47265625 C7.59058594 5.69082031 7.59058594 5.69082031 7.91015625 6.93359375 C7.99007812 7.64773437 8.07 8.361875 8.15234375 9.09765625 C5.79281281 11.45718719 4.37338758 11.58907038 1.15234375 12.09765625 C1.15234375 12.42765625 1.15234375 12.75765625 1.15234375 13.09765625 C-0.82765625 13.09765625 -2.80765625 13.09765625 -4.84765625 13.09765625 C-4.54006447 11.11772084 -4.22644945 9.13872026 -3.91015625 7.16015625 C-3.73613281 6.05800781 -3.56210937 4.95585938 -3.3828125 3.8203125 C-2.65953404 0.14056734 -2.65953404 0.14056734 0 0 Z " fill="#F7C0AE" transform="translate(36.84765625,52.90234375)"/>
<path d="M0 0 C1.8125 0.0625 1.8125 0.0625 4 1 C6.09669068 4.96873594 7 7.48438726 7 12 C0.73920552 12.43177893 -2.09075703 11.92739438 -7 8 C-6.1875 6.0625 -6.1875 6.0625 -5 4 C-4.01 3.67 -3.02 3.34 -2 3 C-1.34 2.01 -0.68 1.02 0 0 Z " fill="#8352A7" transform="translate(35,101)"/>
<path d="M0 0 C0.33 5.94 0.66 11.88 1 18 C-1.31 17.01 -3.62 16.02 -6 15 C-6.13504138 13.06440687 -6.23201129 11.126128 -6.3125 9.1875 C-6.37050781 8.10855469 -6.42851563 7.02960938 -6.48828125 5.91796875 C-6 3 -6 3 -3.54296875 1.11328125 C-1 0 -1 0 0 0 Z " fill="#92D0D5" transform="translate(93,62)"/>
<path d="M0 0 C0.66 0.33 1.32 0.66 2 1 C2 5.95 2 10.9 2 16 C-0.97 16 -3.94 16 -7 16 C-4.69 10.72 -2.38 5.44 0 0 Z " fill="#764BA8" transform="translate(195,146)"/>
<path d="M0 0 C1.65 0.33 3.3 0.66 5 1 C5 2.32 5 3.64 5 5 C5.66 5 6.32 5 7 5 C7 5.99 7 6.98 7 8 C1.39 8 -4.22 8 -10 8 C-6 6 -6 6 -3 5 C-1.30117552 2.50240018 -1.30117552 2.50240018 0 0 Z " fill="#EB97C7" transform="translate(154,154)"/>
<path d="M0 0 C1.65 0.33 3.3 0.66 5 1 C4.67 1.66 4.34 2.32 4 3 C3.01 3 2.02 3 1 3 C1.33 4.65 1.66 6.3 2 8 C0.3125 9.5625 0.3125 9.5625 -2 11 C-5.37036311 10.75925978 -6.58798021 10.41201979 -9 8 C-7.87926138 7.16094435 -6.75325453 6.32892169 -5.625 5.5 C-4.99851562 5.0359375 -4.37203125 4.571875 -3.7265625 4.09375 C-2 3 -2 3 0 3 C0 2.01 0 1.02 0 0 Z " fill="#865AA7" transform="translate(27,66)"/>
<path d="M0 0 C0.66 0 1.32 0 2 0 C2 1.98 2 3.96 2 6 C2.66 6 3.32 6 4 6 C3.85953745 8.95867918 3.71287776 11.91682264 3.5625 14.875 C3.50352539 16.13763672 3.50352539 16.13763672 3.44335938 17.42578125 C3.40146484 18.23144531 3.35957031 19.03710938 3.31640625 19.8671875 C3.27974854 20.61081543 3.24309082 21.35444336 3.20532227 22.12060547 C3 24 3 24 2 26 C1.01 26 0.02 26 -1 26 C-0.67 25.360625 -0.34 24.72125 0 24.0625 C2.19561816 17.33841937 0.92077417 11.65868378 -1 5 C-0.625 2.0625 -0.625 2.0625 0 0 Z " fill="#B64651" transform="translate(81,59)"/>
<path d="M0 0 C0.99 0.495 0.99 0.495 2 1 C2 1.99 2 2.98 2 4 C2.66 4 3.32 4 4 4 C4 9.28 4 14.56 4 20 C3.01 20.33 2.02 20.66 1 21 C0.97284617 19.25008666 0.95353449 17.50005055 0.9375 15.75 C0.92589844 14.77546875 0.91429688 13.8009375 0.90234375 12.796875 C0.98804423 10.34241322 1.29293934 8.33831086 2 6 C1.34 6 0.68 6 0 6 C0 4.02 0 2.04 0 0 Z " fill="#E55558" transform="translate(83,59)"/>
<path d="M0 0 C1.875 0.1875 1.875 0.1875 4 1 C5.4375 3.3125 5.4375 3.3125 6 6 C4.625 8.3125 4.625 8.3125 3 10 C2.34 9.67 1.68 9.34 1 9 C0.34 9.66 -0.32 10.32 -1 11 C-1 10.34 -1 9.68 -1 9 C-1.66 9 -2.32 9 -3 9 C-3 7.68 -3 6.36 -3 5 C-2.34 5 -1.68 5 -1 5 C-0.67 3.35 -0.34 1.7 0 0 Z " fill="#B7908D" transform="translate(75,59)"/>
<path d="M0 0 C0.99 0 1.98 0 3 0 C2.835 0.99 2.67 1.98 2.5 3 C1.9357352 7.07432377 1.72111466 10.88644129 2 15 C2.99 15.66 3.98 16.32 5 17 C2.69 16.67 0.38 16.34 -2 16 C-2.20674944 10.21101581 -1.59162079 5.57067277 0 0 Z " fill="#7548A1" transform="translate(63,93)"/>
<path d="M0 0 C1.98 0 3.96 0 6 0 C6.6875 1.6875 6.6875 1.6875 7 4 C5.5625 6.75 5.5625 6.75 4 9 C2.68 8.67 1.36 8.34 0 8 C-0.98120464 4.94736336 -0.98120464 3.05263664 0 0 Z " fill="#CD4A52" transform="translate(142,74)"/>
<path d="M0 0 C2.64 1.65 5.28 3.3 8 5 C7.67 5.99 7.34 6.98 7 8 C5.02 8 3.04 8 1 8 C0.67 8.99 0.34 9.98 0 11 C0 7.37 0 3.74 0 0 Z " fill="#6D4598" transform="translate(70,96)"/>
<path d="M0 0 C0.33 0.66 0.66 1.32 1 2 C8.92 1.505 8.92 1.505 17 1 C12.89441282 3.05279359 11.19793315 3.2216942 6.75 3.125 C5.67234375 3.10695312 4.5946875 3.08890625 3.484375 3.0703125 C2.66453125 3.04710937 1.8446875 3.02390625 1 3 C0.67 4.32 0.34 5.64 0 7 C0 5.68 0 4.36 0 3 C-3.63 2.67 -7.26 2.34 -11 2 C-11 1.67 -11 1.34 -11 1 C-5.555 0.505 -5.555 0.505 0 0 Z " fill="#D997B0" transform="translate(159,152)"/>
<path d="M0 0 C0.66 0 1.32 0 2 0 C2 4.62 2 9.24 2 14 C1.67 14 1.34 14 1 14 C0.67 11.69 0.34 9.38 0 7 C-0.99 7 -1.98 7 -3 7 C-1.125 2.25 -1.125 2.25 0 0 Z " fill="#9EDEE2" transform="translate(198,118)"/>
<path d="M0 0 C2.53199972 2.53199972 3.11946497 4.54559335 4 8 C3.625 10.875 3.625 10.875 3 13 C1.68 13.33 0.36 13.66 -1 14 C-0.7525 12.9790625 -0.7525 12.9790625 -0.5 11.9375 C0.07089059 8.5835178 0.06659023 5.39610195 0 2 C-0.66 1.67 -1.32 1.34 -2 1 C-1.34 0.67 -0.68 0.34 0 0 Z " fill="#D36C6F" transform="translate(44,53)"/>
<path d="M0 0 C0.33 0.66 0.66 1.32 1 2 C1.69867188 1.90460938 2.39734375 1.80921875 3.1171875 1.7109375 C4.02726563 1.60007812 4.93734375 1.48921875 5.875 1.375 C6.77992188 1.25898437 7.68484375 1.14296875 8.6171875 1.0234375 C9.40351563 1.01570313 10.18984375 1.00796875 11 1 C11.66 1.66 12.32 2.32 13 3 C9.17291493 4.80098121 6.22146566 5.28143104 2 5 C1.34 4.67 0.68 4.34 0 4 C0 2.68 0 1.36 0 0 Z " fill="#DBA89D" transform="translate(144,92)"/>
<path d="M0 0 C2 1 2 1 3.125 3.8125 C4 7 4 7 4 11 C2.35 11 0.7 11 -1 11 C-0.9278125 10.37351562 -0.855625 9.74703125 -0.78125 9.1015625 C-0.6884375 8.28429687 -0.595625 7.46703125 -0.5 6.625 C-0.4071875 5.81289062 -0.314375 5.00078125 -0.21875 4.1640625 C0.03352351 2.03087175 0.03352351 2.03087175 0 0 Z " fill="#9966A7" transform="translate(38,102)"/>
<path d="M0 0 C2.64 0 5.28 0 8 0 C8 1.98 8 3.96 8 6 C6.02 6.99 6.02 6.99 4 8 C3.67 7.34 3.34 6.68 3 6 C3.99 6 4.98 6 6 6 C4.11192137 3.30274481 2.80175356 1.86783571 0 0 Z " fill="#D9A197" transform="translate(35,53)"/>
<path d="M0 0 C1.32 0.33 2.64 0.66 4 1 C4 2.98 4 4.96 4 7 C3.01 7 2.02 7 1 7 C0 6 0 6 -0.0625 2.9375 C-0.041875 1.968125 -0.02125 0.99875 0 0 Z " fill="#332041" transform="translate(92,92)"/>
<path d="M0 0 C0.99 0.33 1.98 0.66 3 1 C2.01 1.495 2.01 1.495 1 2 C1.04125 3.11375 1.0825 4.2275 1.125 5.375 C1 9 1 9 -1 11 C-1 10.34 -1 9.68 -1 9 C-1.66 9 -2.32 9 -3 9 C-3 7.68 -3 6.36 -3 5 C-2.34 5 -1.68 5 -1 5 C-0.67 3.35 -0.34 1.7 0 0 Z " fill="#C8A19A" transform="translate(75,59)"/>
<path d="M0 0 C0 0.66 0 1.32 0 2 C-1.43011973 2.86646667 -2.86940619 3.71781829 -4.3125 4.5625 C-5.51326172 5.27599609 -5.51326172 5.27599609 -6.73828125 6.00390625 C-9 7 -9 7 -12 6 C-10.37829621 4.99466333 -8.75252763 3.99588093 -7.125 3 C-5.76761719 2.1646875 -5.76761719 2.1646875 -4.3828125 1.3125 C-2 0 -2 0 0 0 Z " fill="#331E4B" transform="translate(54,85)"/>
<path d="M0 0 C0.33 0.66 0.66 1.32 1 2 C-3.29 2 -7.58 2 -12 2 C-12 1.67 -12 1.34 -12 1 C-4.37142857 -1.54285714 -4.37142857 -1.54285714 0 0 Z " fill="#E5C5C6" transform="translate(83,103)"/>
<path d="M0 0 C0.33 0 0.66 0 1 0 C1.02696365 1.79158489 1.04637917 3.58328473 1.0625 5.375 C1.07410156 6.37273437 1.08570312 7.37046875 1.09765625 8.3984375 C1 11 1 11 0 13 C-0.99 13 -1.98 13 -3 13 C-2.690625 12.34 -2.38125 11.68 -2.0625 11 C-0.75039745 7.29523985 -0.39735865 3.90736009 0 0 Z " fill="#442C49" transform="translate(83,72)"/>
<path d="M0 0 C0.99 0 1.98 0 3 0 C2.67 2.31 2.34 4.62 2 7 C1.34 7 0.68 7 0 7 C-0.33 7.66 -0.66 8.32 -1 9 C-0.67 6.03 -0.34 3.06 0 0 Z " fill="#8D5CA3" transform="translate(63,93)"/>
<path d="M0 0 C1.875 0.25 1.875 0.25 4 1 C5.25 3.0625 5.25 3.0625 6 5 C3.61435923 4.42415568 1.33317216 3.77772405 -1 3 C-0.67 2.01 -0.34 1.02 0 0 Z " fill="#9A6EAA" transform="translate(44,74)"/>
<path d="M0 0 C0.33 0.66 0.66 1.32 1 2 C3.01669827 3.13350534 3.01669827 3.13350534 5 4 C4.34 4.66 3.68 5.32 3 6 C2.01 6 1.02 6 0 6 C0 4.02 0 2.04 0 0 Z " fill="#956DAB" transform="translate(9,98)"/>
</svg>
