<?xml version="1.0" encoding="UTF-8"?>
<svg version="1.1" xmlns="http://www.w3.org/2000/svg" width="200" height="200">
<path d="M0 0 C66 0 132 0 200 0 C200 66 200 132 200 200 C134 200 68 200 0 200 C0 134 0 68 0 0 Z " fill="none" transform="translate(0,0)"/>
<path d="M0 0 C8.58 0 17.16 0 26 0 C27.49297212 2.98594424 27.11755228 5.70853624 27 9 C26.67 9.66 26.34 10.32 26 11 C25.67453643 15.03277099 25.67453643 15.03277099 26 19 C28.24583901 21.40072446 29.87260553 21.95753518 33 23 C33.495 27.95 33.495 27.95 34 33 C34.42667969 32.37351563 34.85335937 31.74703125 35.29296875 31.1015625 C39.38243565 25.75574391 42.22121743 23.42283124 49 22.4375 C50.99686853 22.25369733 52.99692553 22.09465748 55 22 C55 23.98 55 25.96 55 28 C56.051875 28.0825 57.10375 28.165 58.1875 28.25 C62.42406723 29.08342306 63.88353019 30.10292966 67 33 C71.80527009 40.25619931 74.49060768 48.82970593 77.37866211 56.97949219 C79.46024055 62.77888005 81.89535051 68.08655952 84.93359375 73.45703125 C86.22418134 76.53458626 86.34968714 78.69142164 86 82 C84.14956654 85.4887619 81.7807484 87.73975053 78 89 C76.06314252 89.1036197 74.12293612 89.14855827 72.18334961 89.16113281 C70.98878647 89.17074036 69.79422333 89.1803479 68.5634613 89.19024658 C66.62745811 89.1966214 66.62745811 89.1966214 64.65234375 89.203125 C63.31620786 89.20887759 61.980072 89.21463531 60.64393616 89.22039795 C57.84554663 89.23089363 55.04718573 89.23674648 52.2487793 89.24023438 C48.65832521 89.24573355 45.0682476 89.26979724 41.47791195 89.29820633 C38.71988299 89.31679748 35.96194567 89.32203628 33.20385933 89.32357025 C31.23505906 89.32807871 29.26630779 89.34673591 27.29759216 89.36553955 C26.10618118 89.36253845 24.9147702 89.35953735 23.68725586 89.35644531 C22.63485214 89.36009094 21.58244843 89.36373657 20.49815369 89.36749268 C19.67376297 89.24622009 18.84937225 89.12494751 18 89 C17.34 88.01 16.68 87.02 16 86 C14.989375 86.495 13.97875 86.99 12.9375 87.5 C9.16987113 89.10162361 6.11639339 89.4660068 2 89 C-0.1875 87.5625 -0.1875 87.5625 -2 86 C-3.32249821 85.62598479 -4.6558547 85.28663968 -6 85 C-6.09071777 84.45182617 -6.18143555 83.90365234 -6.27490234 83.33886719 C-7.42653763 77.28536659 -9.52272681 72.54231856 -12.625 67.25 C-13.07302979 66.46923096 -13.52105957 65.68846191 -13.98266602 64.8840332 C-14.88906824 63.3125384 -15.80147899 61.74449204 -16.72021484 60.18017578 C-17.84589211 58.26253023 -18.950837 56.33479697 -20.05078125 54.40234375 C-23.95810594 47.74452135 -28.3218344 41.93630815 -33.58374023 36.3112793 C-37.01966316 32.51660471 -37.01966316 32.51660471 -36.9140625 29.7421875 C-35.61800655 27.27192702 -34.48983601 26.27856444 -32 25 C-27.5093395 25.19109194 -24.7518088 26.66779453 -21 29 C-20.01 29 -19.02 29 -18 29 C-17.01 27.7625 -17.01 27.7625 -16 26.5 C-15.01 25.2625 -15.01 25.2625 -14 24 C-13.01 24 -12.02 24 -11 24 C-11.165 24.680625 -11.33 25.36125 -11.5 26.0625 C-12.94695332 34.56335076 -10.867029 39.10294076 -6 46 C-5.34 46.66 -4.68 47.32 -4 48 C-2.68 32.16 -1.36 16.32 0 0 Z " fill="#FDCEB9" transform="translate(107,86)"/>
<path d="M0 0 C0 0.99 0 1.98 0 3 C0.59167969 2.96519531 1.18335938 2.93039062 1.79296875 2.89453125 C6.7601076 2.72436825 9.90728689 2.83144791 14 6 C14.33 4.35 14.66 2.7 15 1 C20.875 1.875 20.875 1.875 22 3 C22.04080783 4.99958364 22.04254356 7.00045254 22 9 C21.01 9 20.02 9 19 9 C19.495 13.455 19.495 13.455 20 18 C33.53 18 47.06 18 61 18 C60.67 21.96 60.34 25.92 60 30 C58.515 30.495 58.515 30.495 57 31 C57 28.69 57 26.38 57 24 C56.4423999 25.19206055 56.4423999 25.19206055 55.87353516 26.40820312 C42.16610933 55.58875708 42.16610933 55.58875708 33 69 C30.67684302 66.67684302 30.27503325 65.12738825 29.375 62 C29.11460938 61.113125 28.85421875 60.22625 28.5859375 59.3125 C28 57 28 57 28 55 C26.02 55.33 24.04 55.66 22 56 C22.15146484 56.74161377 22.30292969 57.48322754 22.45898438 58.24731445 C23.1423337 61.60177117 23.82121815 64.9571162 24.5 68.3125 C24.85771484 70.06336914 24.85771484 70.06336914 25.22265625 71.84960938 C25.44824219 72.96787109 25.67382812 74.08613281 25.90625 75.23828125 C26.11572266 76.26993408 26.32519531 77.30158691 26.54101562 78.36450195 C27 81 27 81 27 84 C17.39319767 82.93786179 7.92964695 81.31278695 -1.5625 79.5 C-2.69220215 79.28641846 -3.8219043 79.07283691 -4.98583984 78.8527832 C-6.60353271 78.53893677 -6.60353271 78.53893677 -8.25390625 78.21875 C-9.21627197 78.03248047 -10.1786377 77.84621094 -11.17016602 77.65429688 C-14.16455335 76.96195298 -17.08433095 75.97188968 -20 75 C-19.34 69.72 -18.68 64.44 -18 59 C-24.03317758 56.73755841 -28.57018367 55.64928275 -35 56 C-36.75499837 63.8740643 -37.60506476 71.63845124 -38.2109375 79.671875 C-38.28570312 80.56132813 -38.36046875 81.45078125 -38.4375 82.3671875 C-38.49808594 83.16237793 -38.55867188 83.95756836 -38.62109375 84.77685547 C-39.02804844 87.16456774 -39.81535661 88.89989585 -41 91 C-40.2575 91.103125 -39.515 91.20625 -38.75 91.3125 C-36 92 -36 92 -32 95 C-37.28 95 -42.56 95 -48 95 C-48.15964338 86.79667391 -47.53370586 78.7967239 -46.72265625 70.63671875 C-46.59018411 69.27296755 -46.4580648 67.90918204 -46.32627869 66.54536438 C-46.05098593 63.706944 -45.77249328 60.86886302 -45.49145508 58.03100586 C-45.13222873 54.40246202 -44.7795452 50.77331929 -44.42903996 47.14392376 C-44.15740063 44.33584258 -43.88312236 41.52802429 -43.60796928 38.72028542 C-43.41361739 36.73458139 -43.22084011 34.74872345 -43.02809143 32.76286316 C-42.90804245 31.55423111 -42.78799347 30.34559906 -42.66430664 29.1003418 C-42.5599379 28.04018356 -42.45556915 26.98002533 -42.34803772 25.88774109 C-42.02886963 23.23953728 -41.52311389 20.61556945 -41 18 C-30.44 18 -19.88 18 -9 18 C-9 15.36 -9 12.72 -9 10 C-8.34 9.01 -7.68 8.02 -7 7 C-7.66 7 -8.32 7 -9 7 C-9.25 4.6875 -9.25 4.6875 -9 2 C-6.04897468 -1.27891703 -4.09533092 -1.25135112 0 0 Z " fill="#33B7F0" transform="translate(49,2)"/>
<path d="M0 0 C0 1.98 0 3.96 0 6 C1.051875 6.0825 2.10375 6.165 3.1875 6.25 C7.42406723 7.08342306 8.88353019 8.10292966 12 11 C16.80527009 18.25619931 19.49060768 26.82970593 22.37866211 34.97949219 C24.46024055 40.77888005 26.89535051 46.08655952 29.93359375 51.45703125 C31.22418134 54.53458626 31.34968714 56.69142164 31 60 C29.14956654 63.4887619 26.7807484 65.73975053 23 67 C17.07076624 67.60812654 11.07534421 67.3835628 6 64 C2.46693083 60.15806977 0.17569169 56.66907103 -0.375 51.4375 C-0.189375 50.2309375 -0.189375 50.2309375 0 49 C-0.99 49.495 -0.99 49.495 -2 50 C-4.91699274 50.08698228 -7.80982548 50.11551923 -10.7265625 50.09765625 C-12.02078629 50.09553383 -12.02078629 50.09553383 -13.34115601 50.09336853 C-16.1024723 50.08776188 -18.86370812 50.07520827 -21.625 50.0625 C-23.4947905 50.05748586 -25.36458226 50.0529228 -27.234375 50.04882812 C-31.82294777 50.03779029 -36.41146023 50.0205212 -41 50 C-41 50.66 -41 51.32 -41 52 C-39.02 52 -37.04 52 -35 52 C-35 52.66 -35 53.32 -35 54 C-38.465 54.495 -38.465 54.495 -42 55 C-42.185625 53.88625 -42.37125 52.7725 -42.5625 51.625 C-43.94589313 45.90697505 -47.47491878 41.59957122 -51 37 C-49.6187244 34.06643373 -48.00394678 31.51331387 -46.125 28.875 C-43.88557094 25.59949774 -42.36650644 22.55516783 -41.0625 18.8125 C-38.88962054 12.966636 -35.29890271 9.87783693 -29.96875 6.84375 C-28 6 -28 6 -25 6 C-25 5.01 -25 4.02 -25 3 C-24.01 3 -23.02 3 -22 3 C-21.67 5.64 -21.34 8.28 -21 11 C-20.55011719 10.37351562 -20.10023438 9.74703125 -19.63671875 9.1015625 C-15.88388267 4.33343009 -13.24487581 1.50988931 -7.125 0.4375 C-4.72580712 0.16683897 -2.41207531 0 0 0 Z " fill="#2E1345" transform="translate(162,108)"/>
<path d="M0 0 C0.33 0 0.66 0 1 0 C1 2.31 1 4.62 1 7 C3.97 7.495 3.97 7.495 7 8 C7.495 9.98 7.495 9.98 8 12 C7.34 12 6.68 12 6 12 C6.99 14.475 6.99 14.475 8 17 C6.68 17.33 5.36 17.66 4 18 C3.8875293 18.82580566 3.77505859 19.65161133 3.65917969 20.50244141 C2.91515583 24.45017689 1.74498128 28.16769125 0.453125 31.9609375 C0.20004578 32.710336 -0.05303345 33.4597345 -0.31378174 34.23184204 C-0.84925758 35.8110131 -1.38729027 37.38931921 -1.92773438 38.96679688 C-2.74391013 41.35716434 -3.54411726 43.7524936 -4.34375 46.1484375 C-7.72832756 56.14874436 -11.01684032 64.70111115 -19 72 C-18.34 73.32 -17.68 74.64 -17 76 C-17.804375 75.814375 -18.60875 75.62875 -19.4375 75.4375 C-20.283125 75.293125 -21.12875 75.14875 -22 75 C-23.96822886 76.96822886 -23.66248381 80.34808709 -24 83 C-24.99 83 -25.98 83 -27 83 C-27 82.34 -27 81.68 -27 81 C-28.65 80.34 -30.3 79.68 -32 79 C-32 78.01 -32 77.02 -32 76 C-32.804375 75.690625 -33.60875 75.38125 -34.4375 75.0625 C-37 74 -37 74 -38 73 C-39.96369153 72.9059933 -41.93079199 72.88256619 -43.89672852 72.88647461 C-45.78857628 72.88658791 -45.78857628 72.88658791 -47.71864319 72.88670349 C-49.10539794 72.8918109 -50.49215229 72.89702691 -51.87890625 72.90234375 C-53.28995209 72.90420799 -54.70099857 72.90563186 -56.11204529 72.90663147 C-59.83240535 72.91045621 -63.5527266 72.9202861 -67.27307129 72.93133545 C-71.06680781 72.94155052 -74.86055058 72.94612929 -78.65429688 72.95117188 C-86.10288231 72.96190842 -93.55143572 72.9789843 -101 73 C-101 72.67 -101 72.34 -101 72 C-96.05 71.505 -96.05 71.505 -91 71 C-93.31 70.01 -95.62 69.02 -98 68 C-96.90984872 59.61511305 -95.75119893 51.25223334 -94.44140625 42.8984375 C-93.8891749 39.27228117 -93.42854659 35.64264598 -93 32 C-85.88658735 31.54835475 -81.28453206 32.67202085 -75 36 C-75.14109986 38.10448938 -75.28804175 40.2085877 -75.4375 42.3125 C-75.51871094 43.48425781 -75.59992188 44.65601563 -75.68359375 45.86328125 C-76 49 -76 49 -77 52 C-69.36199617 53.54116126 -61.71436436 55.02934465 -54.0625 56.5 C-52.95970703 56.71269531 -51.85691406 56.92539063 -50.72070312 57.14453125 C-43.82112074 58.47153058 -36.9154377 59.7582562 -30 61 C-30.20987549 60.24235352 -30.41975098 59.48470703 -30.63598633 58.70410156 C-32.95812275 50.20724559 -34.0581233 41.73175104 -35 33 C-33.02 32.67 -31.04 32.34 -29 32 C-28.58427734 33.28197266 -28.58427734 33.28197266 -28.16015625 34.58984375 C-27.61681641 36.24693359 -27.61681641 36.24693359 -27.0625 37.9375 C-26.52302734 39.59072266 -26.52302734 39.59072266 -25.97265625 41.27734375 C-25.26143332 43.88123475 -25.26143332 43.88123475 -24 45 C-15.87018733 31.29472454 -8.59065598 17.36986502 -1.93286133 2.89160156 C-1 1 -1 1 0 0 Z " fill="#FBCDB8" transform="translate(106,25)"/>
<path d="M0 0 C13.53 0 27.06 0 41 0 C41 8.44277115 40.96239751 16.52075091 40.1953125 24.8671875 C40.11127167 25.83044952 40.02723083 26.79371155 39.94064331 27.78616333 C39.76360199 29.80121948 39.58366501 31.81602325 39.40087891 33.83056641 C39.12620219 36.86173332 38.86117259 39.89362579 38.59765625 42.92578125 C37.62348272 53.98424175 36.48548986 64.99777837 35 76 C28.00072487 66.94849839 24.1836905 55.36876873 20.57324219 44.61108398 C18.53266332 38.74659984 16.22350429 32.75780918 10.54296875 29.66015625 C9.76566406 29.46292969 8.98835937 29.26570313 8.1875 29.0625 C7.39730469 28.84722656 6.60710937 28.63195312 5.79296875 28.41015625 C5.20128906 28.27480469 4.60960937 28.13945313 4 28 C4 26.02 4 24.04 4 22 C2.02 22.33 0.04 22.66 -2 23 C-2.042721 21.33388095 -2.04063832 19.66617115 -2 18 C-1.67 17.67 -1.34 17.34 -1 17 C-0.835 15.845 -0.67 14.69 -0.5 13.5 C0 10 0 10 1 9 C1.14636054 5.63370749 1.07193479 3.21580438 0 0 Z " fill="#31B7F2" transform="translate(158,86)"/>
<path d="M0 0 C8.58 0 17.16 0 26 0 C27.49297212 2.98594424 27.11755228 5.70853624 27 9 C26.67 9.66 26.34 10.32 26 11 C25.67453643 15.03277099 25.67453643 15.03277099 26 19 C28.24583901 21.40072446 29.87260553 21.95753518 33 23 C33 23.66 33 24.32 33 25 C32.01 25 31.02 25 30 25 C30 25.99 30 26.98 30 28 C29.32453125 28.30292969 28.6490625 28.60585937 27.953125 28.91796875 C27.06109375 29.33691406 26.1690625 29.75585938 25.25 30.1875 C24.36828125 30.59355469 23.4865625 30.99960938 22.578125 31.41796875 C17.61386201 34.46422104 15.61399946 38.46733968 13.6875 43.8125 C11.40006262 49.59542764 8.41913089 53.67001584 4 58 C-3 51 -3 51 -3.24804688 48.89160156 C-3.14067546 38.80942607 -2.31736606 28.79427693 -1.5 18.75 C-1.35503813 16.92581542 -1.21050362 15.10159682 -1.06640625 13.27734375 C-0.71664632 8.85107151 -0.35814373 4.4256333 0 0 Z " fill="#32B8F2" transform="translate(107,86)"/>
<path d="M0 0 C1.72447904 0.00031742 3.44897767 0.01165954 5.17333984 0.03173828 C6.53415176 0.03598312 6.53415176 0.03598312 7.92245483 0.04031372 C10.82652857 0.05152926 13.73029646 0.07663615 16.63427734 0.10205078 C18.60041873 0.11207881 20.56656494 0.12120497 22.53271484 0.12939453 C27.35835393 0.15147306 32.18376374 0.18601213 37.00927734 0.22705078 C36.67927734 4.18705078 36.34927734 8.14705078 36.00927734 12.22705078 C35.01927734 12.55705078 34.02927734 12.88705078 33.00927734 13.22705078 C33.00927734 10.91705078 33.00927734 8.60705078 33.00927734 6.22705078 C32.63754395 7.02175781 32.26581055 7.81646484 31.8828125 8.63525391 C18.17538668 37.81580787 18.17538668 37.81580787 9.00927734 51.22705078 C6.68612036 48.9038938 6.28431059 47.35443903 5.38427734 44.22705078 C5.12388672 43.34017578 4.86349609 42.45330078 4.59521484 41.53955078 C4.00927734 39.22705078 4.00927734 39.22705078 4.00927734 37.22705078 C3.01927734 36.89705078 2.02927734 36.56705078 1.00927734 36.22705078 C1.99927734 36.22705078 2.98927734 36.22705078 4.00927734 36.22705078 C3.74373047 35.73076172 3.47818359 35.23447266 3.20458984 34.72314453 C-1.99072266 24.73070042 -1.99072266 24.73070042 -1.99072266 19.22705078 C-2.65072266 19.22705078 -3.31072266 19.22705078 -3.99072266 19.22705078 C-5.48908415 13.44765646 -6.41043459 8.20794586 -5.99072266 2.22705078 C-3.99072266 0.22705078 -3.99072266 0.22705078 0 0 Z " fill="#6FE2EA" transform="translate(72.99072265625,19.77294921875)"/>
<path d="M0 0 C0 0.99 0 1.98 0 3 C0.59167969 2.96519531 1.18335937 2.93039062 1.79296875 2.89453125 C6.7601076 2.72436825 9.90728689 2.83144791 14 6 C14.33 4.35 14.66 2.7 15 1 C20.875 1.875 20.875 1.875 22 3 C22.04080783 4.99958364 22.04254356 7.00045254 22 9 C21.01 9 20.02 9 19 9 C19.08378906 9.71027344 19.16757813 10.42054687 19.25390625 11.15234375 C19.40666016 12.53099609 19.40666016 12.53099609 19.5625 13.9375 C19.71912109 15.31228516 19.71912109 15.31228516 19.87890625 16.71484375 C19.93884766 17.84599609 19.93884766 17.84599609 20 19 C19.505 19.495 19.505 19.495 19 20 C18.40449404 27.59270103 20.26373295 34.64153488 22 42 C21.35933594 41.6390625 20.71867187 41.278125 20.05859375 40.90625 C14.35211938 37.68873074 14.35211938 37.68873074 8 36.875 C6.515 36.936875 6.515 36.936875 5 37 C4.34 36.01 3.68 35.02 3 34 C6.63 34 10.26 34 14 34 C16.00860712 29.98278576 16.27155451 28.28612184 16.25 23.9375 C16.25515625 22.89464844 16.2603125 21.85179687 16.265625 20.77734375 C16.20072577 17.78871015 16.20072577 17.78871015 14 15 C12.948125 15.33 11.89625 15.66 10.8125 16 C7.61126643 16.83966782 5.2588992 17.19750904 2 17 C2 18.32 2 19.64 2 21 C-0.64 21 -3.28 21 -6 21 C-5.5565625 21.63035156 -5.113125 22.26070312 -4.65625 22.91015625 C-2.49259716 26.94659351 -1.55827034 31.0030059 -0.5 35.4375 C0.84357108 41.04149164 2.34448591 45.84921836 5 51 C5.41176471 57.17647059 5.41176471 57.17647059 4 60 C2.906875 59.79375 1.81375 59.5875 0.6875 59.375 C-3.0838401 58.59653475 -3.0838401 58.59653475 -6 61 C-9.32240324 60.6758631 -10.60776303 60.39223697 -13 58 C-13.01448975 55.60339539 -12.937721 53.20587488 -12.8125 50.8125 C-12.5969119 44.10469822 -13.67910906 41.07704686 -18 36 C-18.6875 33 -18.6875 33 -18 30 C-16.62711175 28.05124982 -15.15075217 26.33955844 -13.5078125 24.61328125 C-10.52610807 21.423012 -9.75268696 19.24514091 -9.5 15 C-9.28173386 11.33312878 -9.11082498 10.16623747 -7 7 C-7.66 7 -8.32 7 -9 7 C-9.25 4.6875 -9.25 4.6875 -9 2 C-6.04897468 -1.27891703 -4.09533092 -1.25135112 0 0 Z " fill="#301849" transform="translate(49,2)"/>
<path d="M0 0 C10.56 0 21.12 0 32 0 C30.03040545 4.92398638 27.88448718 7.82671704 24.55859375 11.81640625 C22.88428191 13.86153088 22.88428191 13.86153088 22.5234375 16.14453125 C22 18 22 18 20.29296875 19.1953125 C19.59816406 19.50210938 18.90335938 19.80890625 18.1875 20.125 C17.50042969 20.43695313 16.81335938 20.74890625 16.10546875 21.0703125 C14.70064281 21.69062525 13.28623904 22.28967995 11.86328125 22.8671875 C9.53660496 24.28172864 9.04563915 25.52007705 8 28 C7.47019531 28.85078125 7.47019531 28.85078125 6.9296875 29.71875 C3.98053386 34.69954282 3.77944917 38.52913954 3.984375 44.23046875 C4.0049317 49.18977382 3.58448713 54.06493965 3.125 59 C3.04620605 59.92063232 2.96741211 60.84126465 2.88623047 61.78979492 C2.80260254 62.6635376 2.71897461 63.53728027 2.6328125 64.4375 C2.52283936 65.61119141 2.52283936 65.61119141 2.41064453 66.80859375 C1.96975054 69.16142639 1.16501897 70.91990512 0 73 C0.7425 73.103125 1.485 73.20625 2.25 73.3125 C5 74 5 74 9 77 C3.72 77 -1.56 77 -7 77 C-7.15964338 68.79667391 -6.53370586 60.7967239 -5.72265625 52.63671875 C-5.59018411 51.27296755 -5.4580648 49.90918204 -5.32627869 48.54536438 C-5.05098593 45.706944 -4.77249328 42.86886302 -4.49145508 40.03100586 C-4.13222873 36.40246202 -3.7795452 32.77331929 -3.42903996 29.14392376 C-3.15740063 26.33584258 -2.88312236 23.52802429 -2.60796928 20.72028542 C-2.41361739 18.73458139 -2.22084011 16.74872345 -2.02809143 14.76286316 C-1.90804245 13.55423111 -1.78799347 12.34559906 -1.66430664 11.1003418 C-1.5599379 10.04018356 -1.45556915 8.98002533 -1.34803772 7.88774109 C-1.02886963 5.23953728 -0.52311389 2.61556945 0 0 Z " fill="#6FE2EA" transform="translate(8,20)"/>
<path d="M0 0 C0.33 0 0.66 0 1 0 C1 1.98 1 3.96 1 6 C4.465 5.505 4.465 5.505 8 5 C8 4.34 8 3.68 8 3 C6.02 3 4.04 3 2 3 C2 2.34 2 1.68 2 1 C6.16404764 -0.16661952 10.1898068 -0.12576063 14.484375 -0.09765625 C15.70776581 -0.09553383 15.70776581 -0.09553383 16.95587158 -0.09336853 C19.55395212 -0.08778303 22.15194563 -0.07523321 24.75 -0.0625 C26.51432167 -0.05748312 28.27864469 -0.05292054 30.04296875 -0.04882812 C34.36201256 -0.03781835 38.68099154 -0.02056369 43 0 C43.4679362 1.97550456 43.9358724 3.95100911 44.40380859 5.92651367 C45.36255549 9.26092702 46.7054196 11.40350113 49 14 C51.6438452 15.34218195 54.1386623 16.14159869 57 17 C57 17.33 57 17.66 57 18 C49.77350568 18.07587458 42.54711351 18.12852551 35.3203125 18.16479492 C32.86031252 18.17990988 30.40033959 18.20040227 27.94042969 18.22631836 C24.41073948 18.2625823 20.88140456 18.27969914 17.3515625 18.29296875 C16.24632233 18.30845261 15.14108215 18.32393646 14.00234985 18.33988953 C12.98144257 18.34011612 11.96053528 18.34034271 10.90869141 18.34057617 C10.00712311 18.34723801 9.10555481 18.35389984 8.17666626 18.36076355 C7.45836639 18.24171158 6.74006653 18.12265961 6 18 C5.34 17.01 4.68 16.02 4 15 C2.989375 15.495 1.97875 15.99 0.9375 16.5 C-2.83012887 18.10162361 -5.88360661 18.4660068 -10 18 C-12.1875 16.5625 -12.1875 16.5625 -14 15 C-16.14733927 14.29485154 -16.14733927 14.29485154 -18 14 C-18 12.02 -18 10.04 -18 8 C-17.319375 8.639375 -16.63875 9.27875 -15.9375 9.9375 C-12.53591161 12.3258493 -10.09566299 12.67877153 -6 13 C-5.40267181 10.23735711 -5 7.83967231 -5 5 C-4.360625 4.731875 -3.72125 4.46375 -3.0625 4.1875 C-0.66868314 3.11332248 -0.66868314 3.11332248 0 0 Z " fill="#F8C9B6" transform="translate(119,157)"/>
<path d="M0 0 C7.13460979 -0.68403171 10.43057332 0.96504871 15.9375 5.375 C16.60845703 5.88289063 17.27941406 6.39078125 17.97070312 6.9140625 C22.82042154 10.64084308 22.82042154 10.64084308 24 13 C24.125 16.0625 24.125 16.0625 24 19 C23.67 19.33 23.34 19.66 23 20 C22.855625 21.051875 22.71125 22.10375 22.5625 23.1875 C21.5531281 30.02879841 21.5531281 30.02879841 20 33 C18.07433272 33.71804543 16.14176452 34.42578446 14.171875 35.01171875 C10.66679876 36.60665452 8.69775805 39.38438333 6.34765625 42.35546875 C5.90292969 42.89816406 5.45820313 43.44085938 5 44 C4.67 44 4.34 44 4 44 C4 40.37 4 36.74 4 33 C2.35 32.67 0.7 32.34 -1 32 C-2.8125 30.9375 -2.8125 30.9375 -4 29 C-4.39058525 25.53444359 -4.5919206 22.1838412 -3 19 C-3.00575619 16.91625799 -3.05368051 14.83252909 -3.125 12.75 C-3.18266664 7.54270236 -2.94168085 4.28995124 0 0 Z " fill="#C0564C" transform="translate(136,76)"/>
<path d="M0 0 C0.3403125 0.7734375 0.3403125 0.7734375 0.6875 1.5625 C1.99588808 4.24045227 1.99588808 4.24045227 4.6875 6.875 C8.66023187 12.16035965 6.86052039 18.85707724 6 25 C5.67 24.01 5.34 23.02 5 22 C4.34 22 3.68 22 3 22 C3.22879327 24.42039196 3.48204025 26.83389623 3.75 29.25 C3.811875 29.93191406 3.87375 30.61382812 3.9375 31.31640625 C4.32604724 34.65143676 4.79381526 36.73539625 6.875 39.40625 C9.44918672 41.33689004 11.91171182 42.15773959 15 43 C15 43.66 15 44.32 15 45 C8.99787009 46.73745866 4.73379109 44.93709158 -1 43 C-0.34 37.72 0.32 32.44 1 27 C-5.03317758 24.73755841 -9.57018367 23.64928275 -16 24 C-16.33 26.31 -16.66 28.62 -17 31 C-17.66 30.67 -18.32 30.34 -19 30 C-19.6388026 22.97317145 -18.01871271 18.763099 -14 13 C-10.75811319 9.25936137 -7.27055175 6.5066282 -3 4 C-2.01 4 -1.02 4 0 4 C0 2.68 0 1.36 0 0 Z " fill="#32ADE7" transform="translate(30,34)"/>
<path d="M0 0 C0.568396 0.32363525 1.13679199 0.64727051 1.72241211 0.98071289 C4.16301255 2.07295288 5.78600972 2.26529463 8.44140625 2.30859375 C9.27220703 2.33373047 10.10300781 2.35886719 10.95898438 2.38476562 C12.69849158 2.41999945 14.43808431 2.45123209 16.17773438 2.47851562 C17.00724609 2.50494141 17.83675781 2.53136719 18.69140625 2.55859375 C19.44623291 2.57204834 20.20105957 2.58550293 20.97875977 2.59936523 C23.52589936 3.10423974 24.43608627 3.95894962 26 6 C26.1796875 8.375 26.1796875 8.375 25.875 11 C25.78992188 11.86625 25.70484375 12.7325 25.6171875 13.625 C24.89801745 16.39243917 24.22536151 17.24621356 22 19 C19.87109375 19.38818359 19.87109375 19.38818359 17.4375 19.3984375 C16.55835937 19.40230469 15.67921875 19.40617187 14.7734375 19.41015625 C13.85820313 19.39855469 12.94296875 19.38695312 12 19.375 C10.62714844 19.39240234 10.62714844 19.39240234 9.2265625 19.41015625 C8.34742188 19.40628906 7.46828125 19.40242188 6.5625 19.3984375 C5.35787109 19.39336182 5.35787109 19.39336182 4.12890625 19.38818359 C1.50355266 18.90947806 0.61217145 18.08945066 -1 16 C-1.328125 13.984375 -1.328125 13.984375 -1.25 11.75 C-1.22421875 10.96238281 -1.1984375 10.17476562 -1.171875 9.36328125 C-0.94190061 6.20113342 -0.53200305 3.1255179 0 0 Z " fill="#EBE8ED" transform="translate(38,116)"/>
<path d="M0 0 C0.91910156 0.00128906 1.83820313 0.00257812 2.78515625 0.00390625 C9.59388951 0.09388951 9.59388951 0.09388951 11.875 2.375 C12.02017744 5.2843558 12.06130796 8.094946 12 11 C11.99097656 11.80179688 11.98195312 12.60359375 11.97265625 13.4296875 C11.94906223 15.41158523 11.91319065 17.39332981 11.875 19.375 C11.31184082 19.05208984 10.74868164 18.72917969 10.16845703 18.39648438 C7.65717955 17.2779848 5.91454421 17.09481309 3.1796875 17.03125 C2.29925781 17.00160156 1.41882813 16.97195312 0.51171875 16.94140625 C-1.33723508 16.89694767 -3.18619347 16.85267842 -5.03515625 16.80859375 C-5.91300781 16.77894531 -6.79085937 16.74929687 -7.6953125 16.71875 C-8.49727051 16.70005859 -9.29922852 16.68136719 -10.12548828 16.66210938 C-12.125 16.375 -12.125 16.375 -14.125 14.375 C-14.4609375 12.1328125 -14.4609375 12.1328125 -14.5 9.5 C-14.52835938 8.63632812 -14.55671875 7.77265625 -14.5859375 6.8828125 C-14.125 4.375 -14.125 4.375 -12.734375 2.078125 C-8.66888501 -0.57539841 -4.74305124 -0.12746531 0 0 Z " fill="#EFEDF1" transform="translate(144.125,48.625)"/>
<path d="M0 0 C8.25 0 16.5 0 25 0 C25 0.99 25 1.98 25 3 C24.34 3 23.68 3 23 3 C22.835 4.03125 22.67 5.0625 22.5 6.125 C21.04367498 11.19137014 17.39303487 13.44320722 13 16 C7.83234023 18.6083444 3.83307589 19.12604486 -2 19 C-1.85870713 16.58299013 -1.71213513 14.16649571 -1.5625 11.75 C-1.52318359 11.06808594 -1.48386719 10.38617188 -1.44335938 9.68359375 C-1.22950348 6.29480029 -0.82781925 3.31127702 0 0 Z " fill="#6BDDE7" transform="translate(8,21)"/>
<path d="M0 0 C1.734375 1.2109375 1.734375 1.2109375 2.734375 3.2109375 C2.88289344 5.14453336 2.95568333 7.08435847 2.984375 9.0234375 C3.01015625 10.06113281 3.0359375 11.09882813 3.0625 12.16796875 C2.68365028 15.68134885 2.02098794 17.51441339 -0.265625 20.2109375 C-2.74609375 20.69921875 -2.74609375 20.69921875 -5.453125 20.5234375 C-6.35417969 20.47832031 -7.25523438 20.43320312 -8.18359375 20.38671875 C-8.87066406 20.32871094 -9.55773438 20.27070312 -10.265625 20.2109375 C-9.275625 21.2009375 -8.285625 22.1909375 -7.265625 23.2109375 C-9.905625 23.2109375 -12.545625 23.2109375 -15.265625 23.2109375 C-15.45898438 22.36789063 -15.65234375 21.52484375 -15.8515625 20.65625 C-16.11195312 19.56054688 -16.37234375 18.46484375 -16.640625 17.3359375 C-16.89585938 16.24539062 -17.15109375 15.15484375 -17.4140625 14.03125 C-18.05468715 11.10685295 -18.05468715 11.10685295 -20.265625 9.2109375 C-20.265625 8.2209375 -20.265625 7.2309375 -20.265625 6.2109375 C-17.625625 6.2109375 -14.985625 6.2109375 -12.265625 6.2109375 C-12.265625 4.8909375 -12.265625 3.5709375 -12.265625 2.2109375 C-10.68860518 1.65115566 -9.10363258 1.11374349 -7.515625 0.5859375 C-6.63390625 0.28429687 -5.7521875 -0.01734375 -4.84375 -0.328125 C-2.265625 -0.7890625 -2.265625 -0.7890625 0 0 Z " fill="#ECBFAF" transform="translate(63.265625,16.7890625)"/>
<path d="M0 0 C0.33 0 0.66 0 1 0 C1.19024979 7.70098075 0.44956008 15.16727988 -0.4375 22.8125 C-0.57220703 24.02615234 -0.70691406 25.23980469 -0.84570312 26.49023438 C-1.36796319 31.09376577 -1.87487267 35.49949069 -3 40 C-7.95 40.33 -12.9 40.66 -18 41 C-18 40.01 -18 39.02 -18 38 C-17.113125 37.34 -16.22625 36.68 -15.3125 36 C-5.75126749 28.29293174 -3.43849164 11.26340761 0 0 Z " fill="#76E2E9" transform="translate(105,57)"/>
<path d="M0 0 C0.33 0 0.66 0 1 0 C2.27675768 5.26662542 3.10242361 9.97154056 0.4375 14.875 C-2.78131904 17.68114993 -4.75360376 18 -9 18 C-12.3201606 16.68446467 -14.4805934 15.5194066 -17 13 C-17.46376812 5.69565217 -17.46376812 5.69565217 -15 2 C-11.26512223 2.4979837 -9.18762365 2.87491756 -6 5 C-4.34450469 5.38499891 -2.6777567 5.72793135 -1 6 C-0.67 4.02 -0.34 2.04 0 0 Z " fill="#BF5349" transform="translate(149,92)"/>
<path d="M0 0 C0.9485538 2.5544914 1.85829579 5.11320819 2.75 7.6875 C3.15798828 8.7693457 3.15798828 8.7693457 3.57421875 9.87304688 C4.28157018 11.96642477 4.8388829 13.79428427 5 16 C3.140625 18.79296875 3.140625 18.79296875 1 21 C1 24.6629455 1.12921143 26.94779715 3.5 29.8125 C7.1826868 31.56177623 11.004472 32.2743165 15 33 C13.2734375 36.859375 13.2734375 36.859375 10.8125 38.125 C6.35899463 37.92706643 4.05197522 35.03751088 1 32 C0.45730469 31.54496094 -0.08539063 31.08992188 -0.64453125 30.62109375 C-2.49065463 28.41319404 -2.65909874 26.65197492 -3.0625 23.8125 C-3.21589844 22.76191406 -3.36929688 21.71132812 -3.52734375 20.62890625 C-3.68332031 19.43136719 -3.83929688 18.23382813 -4 17 C-4.09168457 16.29858887 -4.18336914 15.59717773 -4.27783203 14.87451172 C-4.87802848 10.25269436 -5.44795271 5.62780069 -6 1 C-4 0 -4 0 0 0 Z " fill="#F4C6B3" transform="translate(77,57)"/>
<path d="M0 0 C5.875 0.875 5.875 0.875 7 2 C7.04080783 3.99958364 7.04254356 6.00045254 7 8 C6.01 8 5.02 8 4 8 C4.12568359 9.06541016 4.12568359 9.06541016 4.25390625 10.15234375 C4.35574219 11.07144531 4.45757812 11.99054687 4.5625 12.9375 C4.66691406 13.85402344 4.77132812 14.77054688 4.87890625 15.71484375 C4.91886719 16.46894531 4.95882812 17.22304688 5 18 C4.67 18.33 4.34 18.66 4 19 C3.40449404 26.59270103 5.26373295 33.64153488 7 41 C6.35933594 40.6390625 5.71867187 40.278125 5.05859375 39.90625 C-0.64788062 36.68873074 -0.64788062 36.68873074 -7 35.875 C-8.485 35.936875 -8.485 35.936875 -10 36 C-10.66 35.01 -11.32 34.02 -12 33 C-8.37 33 -4.74 33 -1 33 C1.6820765 27.63584701 1.70693481 22.91550051 1 17 C-0.92393551 14.1125127 -0.92393551 14.1125127 -3 12 C-2.75 9.1875 -2.75 9.1875 -2 7 C-2.99 6.67 -3.98 6.34 -5 6 C-3.68 5.67 -2.36 5.34 -1 5 C-0.67 3.35 -0.34 1.7 0 0 Z " fill="#372553" transform="translate(64,3)"/>
<path d="M0 0 C0.66 0.33 1.32 0.66 2 1 C2.05418326 3.08304538 2.09287551 5.16649768 2.125 7.25 C2.14820313 8.41015625 2.17140625 9.5703125 2.1953125 10.765625 C2.0103949 13.82786046 1.60823023 15.44202751 0 18 C0.7425 18.103125 1.485 18.20625 2.25 18.3125 C5 19 5 19 9 22 C3.72 22 -1.56 22 -7 22 C-7.17391304 9.47826087 -7.17391304 9.47826087 -6 4 C-4.0625 2.625 -4.0625 2.625 -2 2 C-1.34 1.34 -0.68 0.68 0 0 Z " fill="#71E3EB" transform="translate(8,75)"/>
<path d="M0 0 C1.67542976 0.28604898 3.34385343 0.61781233 5 1 C5.125 3.375 5.125 3.375 5 6 C4.34 6.66 3.68 7.32 3 8 C2.97792512 10.67813399 2.97792512 10.67813399 3.375 13.625 C3.48585937 14.62789062 3.59671875 15.63078125 3.7109375 16.6640625 C3.80632812 17.43492188 3.90171875 18.20578125 4 19 C2.824375 19.33 1.64875 19.66 0.4375 20 C-4.21612686 21.69749734 -6.63025393 24.53483127 -9.65234375 28.35546875 C-10.09707031 28.89816406 -10.54179687 29.44085938 -11 30 C-11.33 30 -11.66 30 -12 30 C-12 26.7 -12 23.4 -12 20 C-10.906875 19.7525 -9.81375 19.505 -8.6875 19.25 C-4.73500626 17.91017162 -3.96311091 17.5101595 -2 14 C-1.4606206 10.76382464 -1.4606206 10.76382464 -1.375 7.3125 C-1.084014 1.084014 -1.084014 1.084014 0 0 Z " fill="#F6C7B3" transform="translate(152,90)"/>
<path d="M0 0 C3.12290635 0.48578543 5.99580359 0.9986012 9 2 C9.33 2.99 9.66 3.98 10 5 C10.99 5.66 11.98 6.32 13 7 C12.67 9.31 12.34 11.62 12 14 C6.72250715 13.46148032 2.74354436 12.22656164 -2 10 C-1.125 2.25 -1.125 2.25 0 0 Z " fill="#FCCAB4" transform="translate(136,84)"/>
<path d="M0 0 C2.36335537 4.72671074 2.65159553 8.99221297 3.03515625 14.15625 C3.3717815 17.56061098 3.7565056 19.68417044 5.8671875 22.421875 C8.44731393 24.33097954 10.91870705 25.15964738 14 26 C14 26.66 14 27.32 14 28 C7.48951927 29.88461284 5.47929037 28.24378711 -2 26 C-1.34 17.42 -0.68 8.84 0 0 Z " fill="#39A6DD" transform="translate(31,51)"/>
<path d="M0 0 C0.33 0 0.66 0 1 0 C1 2.31 1 4.62 1 7 C3.97 7.495 3.97 7.495 7 8 C7.33 9.32 7.66 10.64 8 12 C7.34 12 6.68 12 6 12 C6.66 13.65 7.32 15.3 8 17 C5.6875 17.625 5.6875 17.625 3 18 C2.01 17.34 1.02 16.68 0 16 C1.32 15.67 2.64 15.34 4 15 C0.01803543 13.94595055 -2.98195309 14.15901344 -7 15 C-5.45454854 9.52067211 -2.84456788 4.88570819 0 0 Z " fill="#F5CBBB" transform="translate(106,25)"/>
<path d="M0 0 C0.04254356 1.99954746 0.04080783 4.00041636 0 6 C-1.97271001 7.97271001 -5.72533112 7.3647672 -8.4375 7.5 C-13.36914431 7.57707326 -13.36914431 7.57707326 -18 9 C-16.69806932 6.0956931 -15.48296975 4.01262746 -13 2 C-10.37109375 1.26953125 -10.37109375 1.26953125 -7.4375 0.8125 C-5.98150391 0.57466797 -5.98150391 0.57466797 -4.49609375 0.33203125 C-2 0 -2 0 0 0 Z " fill="#342050" transform="translate(162,108)"/>
<path d="M0 0 C7.11341265 -0.45164525 11.71546794 0.67202085 18 4 C18 6.31 18 8.62 18 11 C17.50371094 10.57847656 17.00742187 10.15695313 16.49609375 9.72265625 C12.08594008 6.16608071 8.8918627 4 3 4 C2.01 4.66 1.02 5.32 0 6 C0 4.02 0 2.04 0 0 Z " fill="#DBA99D" transform="translate(13,57)"/>
<path d="M0 0 C0.42410156 0.42152344 0.84820312 0.84304687 1.28515625 1.27734375 C4.39311516 4.18038229 6.55322131 5.86369464 10.6875 7.125 C14.05451613 7.3223466 14.05451613 7.3223466 16.3125 5.1875 C16.869375 4.465625 17.42625 3.74375 18 3 C18.66 2.34 19.32 1.68 20 1 C20 1.99 20 2.98 20 4 C20.66 4 21.32 4 22 4 C22 4.99 22 5.98 22 7 C17.10498735 9.39755722 13.57492156 10.6311232 8 10 C5.8125 8.5625 5.8125 8.5625 4 7 C1.85266073 6.29485154 1.85266073 6.29485154 0 6 C0 4.02 0 2.04 0 0 Z " fill="#3C1D4B" transform="translate(101,165)"/>
<path d="M0 0 C3 1 3 1 4.375 3.4375 C6.34547608 6.54478921 7.50452445 7.02451845 11 8 C12.9924325 8.37593066 14.9918674 8.71979545 17 9 C16.03305301 11.72503243 15.42115334 12.78340685 12.8125 14.125 C8.35899463 13.92706643 6.05197522 11.03751088 3 8 C2.43925781 7.49339844 1.87851563 6.98679687 1.30078125 6.46484375 C0 5 0 5 -0.1875 2.3125 C-0.125625 1.549375 -0.06375 0.78625 0 0 Z " fill="#E6A998" transform="translate(75,81)"/>
<path d="M0 0 C1.04800781 0.08378906 2.09601562 0.16757813 3.17578125 0.25390625 C4.55466381 0.35708794 5.93357143 0.45993506 7.3125 0.5625 C8.34793945 0.64661133 8.34793945 0.64661133 9.40429688 0.73242188 C12.62512274 0.96581505 14.90327345 1.03224218 18 0 C18.33 1.98 18.66 3.96 19 6 C16.58197805 5.71729594 14.1659878 5.42420736 11.75 5.125 C11.06808594 5.04636719 10.38617188 4.96773438 9.68359375 4.88671875 C6.09303689 4.43354167 3.107493 3.90614262 0 2 C0 1.34 0 0.68 0 0 Z " fill="#35A9E1" transform="translate(57,80)"/>
<path d="M0 0 C3.96 0 7.92 0 12 0 C10.515 2.475 10.515 2.475 9 5 C11.97 5.495 11.97 5.495 15 6 C15 4.02 15 2.04 15 0 C15.33 0 15.66 0 16 0 C16.66 3.3 17.32 6.6 18 10 C13.30976546 9.43393721 8.65499974 8.81462495 4 8 C4.66 7.67 5.32 7.34 6 7 C6.65213292 4.97536745 6.65213292 4.97536745 7 3 C4.69 2.67 2.38 2.34 0 2 C0 1.34 0 0.68 0 0 Z " fill="#48BAE5" transform="translate(40,73)"/>
<path d="M0 0 C0.33 0 0.66 0 1 0 C0.67 3.63 0.34 7.26 0 11 C1.32 11.66 2.64 12.32 4 13 C0.34543185 13.75241109 -3.31733897 14.40049704 -7 15 C-5.45454854 9.52067211 -2.84456788 4.88570819 0 0 Z " fill="#E7C0B1" transform="translate(106,25)"/>
<path d="M0 0 C0 0.99 0 1.98 0 3 C0.66 3.33 1.32 3.66 2 4 C-1.83325617 6.70582788 -4.32538149 7.32613618 -9 7 C-9.25 4.6875 -9.25 4.6875 -9 2 C-6.04897468 -1.27891703 -4.09533092 -1.25135112 0 0 Z " fill="#412F5C" transform="translate(49,2)"/>
<path d="M0 0 C1.32 0.33 2.64 0.66 4 1 C4 1.99 4 2.98 4 4 C4.66 4 5.32 4 6 4 C4.75023244 7.65316671 4.32901247 8.78065836 1 11 C-2.625 10.75 -2.625 10.75 -6 10 C-6.33 9.34 -6.66 8.68 -7 8 C-5.02 8 -3.04 8 -1 8 C-0.40267181 5.23735711 0 2.83967231 0 0 Z " fill="#E0A293" transform="translate(114,162)"/>
<path d="M0 0 C1.72526042 1.07421875 3.45052083 2.1484375 5.17578125 3.22265625 C3.52578125 4.87265625 1.87578125 6.52265625 0.17578125 8.22265625 C-1.80421875 6.90265625 -3.78421875 5.58265625 -5.82421875 4.22265625 C-5.51171875 2.28515625 -5.51171875 2.28515625 -4.82421875 0.22265625 C-1.82421875 -0.77734375 -1.82421875 -0.77734375 0 0 Z " fill="#DAADA4" transform="translate(77.82421875,112.77734375)"/>
<path d="M0 0 C1.32 0 2.64 0 4 0 C3.67 1.32 3.34 2.64 3 4 C3.7425 4.103125 4.485 4.20625 5.25 4.3125 C8 5 8 5 12 8 C8.04 8 4.08 8 0 8 C0 5.33333333 0 2.66666667 0 0 Z " fill="#351948" transform="translate(5,89)"/>
<path d="M0 0 C-0.32742187 0.64324219 -0.65484375 1.28648438 -0.9921875 1.94921875 C-2.32412793 5.98117797 -2.21679197 9.60066065 -2.125 13.8125 C-2.11146484 14.99489258 -2.11146484 14.99489258 -2.09765625 16.20117188 C-2.07422504 18.13424666 -2.03835838 20.0671638 -2 22 C-2.33 22 -2.66 22 -3 22 C-3.50423557 19.25071558 -4.00353426 16.50068857 -4.5 13.75 C-4.64308594 12.97269531 -4.78617187 12.19539063 -4.93359375 11.39453125 C-5.06894531 10.64042969 -5.20429687 9.88632813 -5.34375 9.109375 C-5.53227539 8.07248535 -5.53227539 8.07248535 -5.72460938 7.01464844 C-6 5 -6 5 -6 1 C-4 0 -4 0 0 0 Z " fill="#D9A79B" transform="translate(77,57)"/>
<path d="M0 0 C0.33 0 0.66 0 1 0 C1 4.29 1 8.58 1 13 C-0.98 13.33 -2.96 13.66 -5 14 C-3.45730076 9.27934033 -1.92205381 4.58335908 0 0 Z " fill="#36A6DD" transform="translate(9,76)"/>
<path d="M0 0 C3.1837982 3.59461087 4.01574101 5.07870506 5 10 C2.03 8.35 -0.94 6.7 -4 5 C-2.68 3.35 -1.36 1.7 0 0 Z " fill="#2F1849" transform="translate(66,34)"/>
<path d="M0 0 C1.1055189 0.93590504 2.20935453 1.87379858 3.3125 2.8125 C3.92738281 3.33457031 4.54226562 3.85664063 5.17578125 4.39453125 C6.85424679 5.87172469 8.43882034 7.40039131 10 9 C9.01 9.495 9.01 9.495 8 10 C7.4225 9.525625 6.845 9.05125 6.25 8.5625 C4.07417916 7.0515133 2.57397552 6.45963849 0 6 C0 4.02 0 2.04 0 0 Z " fill="#424472" transform="translate(101,165)"/>
<path d="M0 0 C2.97 0.495 2.97 0.495 6 1 C5.34 2.65 4.68 4.3 4 6 C2.68 6 1.36 6 0 6 C-0.66 6.99 -1.32 7.98 -2 9 C-1.125 2.25 -1.125 2.25 0 0 Z " fill="#D29E95" transform="translate(136,84)"/>
<path d="M0 0 C2 2 2 2 2.125 5.125 C2.08375 6.07375 2.0425 7.0225 2 8 C1.01 8.33 0.02 8.66 -1 9 C-1.66 8.67 -2.32 8.34 -3 8 C-3 5.69 -3 3.38 -3 1 C-2.01 1.495 -2.01 1.495 -1 2 C-0.67 1.34 -0.34 0.68 0 0 Z " fill="#D0A6A0" transform="translate(78,97)"/>
<path d="M0 0 C3.3 0 6.6 0 10 0 C10 0.33 10 0.66 10 1 C5.545 1.495 5.545 1.495 1 2 C0.87625 3.27875 0.7525 4.5575 0.625 5.875 C0.25 9.75 0.25 9.75 -2 12 C-2.17835515 7.45194365 -1.99785435 4.1205746 0 0 Z " fill="#383E6F" transform="translate(164,151)"/>
<path d="M0 0 C3 0 3 0 5 1 C3.02 3.31 1.04 5.62 -1 8 C-1.99 7.67 -2.98 7.34 -4 7 C-3.67 5.02 -3.34 3.04 -3 1 C-2.34 1.66 -1.68 2.32 -1 3 C-0.67 2.01 -0.34 1.02 0 0 Z " fill="#47C8F0" transform="translate(56,61)"/>
<path d="M0 0 C1.32 1.32 2.64 2.64 4 4 C3.01 5.485 3.01 5.485 2 7 C0.68 7 -0.64 7 -2 7 C-1.125 2.25 -1.125 2.25 0 0 Z " fill="#6BD6DF" transform="translate(3,90)"/>
<path d="M0 0 C0 1.98 0 3.96 0 6 C-0.99 5.34 -1.98 4.68 -3 4 C-4.65 5.32 -6.3 6.64 -8 8 C-8 7.01 -8 6.02 -8 5 C-6.50390625 3.61328125 -6.50390625 3.61328125 -4.5625 2.3125 C-3.92441406 1.87550781 -3.28632812 1.43851562 -2.62890625 0.98828125 C-1 0 -1 0 0 0 Z " fill="#65D1E7" transform="translate(11,72)"/>
<path d="M0 0 C0.33 0.99 0.66 1.98 1 3 C-0.65 4.65 -2.3 6.3 -4 8 C-4.33 7.01 -4.66 6.02 -5 5 C-3.35 3.35 -1.7 1.7 0 0 Z " fill="#42C4F0" transform="translate(65,49)"/>
<path d="M0 0 C0.66 0.33 1.32 0.66 2 1 C1.38125 1.556875 0.7625 2.11375 0.125 2.6875 C-2.06106379 5.06645178 -2.98785699 6.96357096 -4 10 C-4.99 9.34 -5.98 8.68 -7 8 C-5.50902342 4.2047869 -3.24299151 2.38957269 0 0 Z " fill="#2E3468" transform="translate(130,116)"/>
<path d="M0 0 C0.33 0 0.66 0 1 0 C1 5.61 1 11.22 1 17 C-0.32 16.34 -1.64 15.68 -3 15 C-2.01 14.67 -1.02 14.34 0 14 C0 9.38 0 4.76 0 0 Z " fill="#B5AABC" transform="translate(155,51)"/>
<path d="M0 0 C1.32 0.66 2.64 1.32 4 2 C3.67 2.99 3.34 3.98 3 5 C0.69 4.67 -1.62 4.34 -4 4 C-2.68 3.34 -1.36 2.68 0 2 C0 1.34 0 0.68 0 0 Z " fill="#BF9899" transform="translate(110,38)"/>
<path d="M0 0 C3.75376152 1.25125384 4.24073289 2.5652404 6 6 C6 6.66 6 7.32 6 8 C3 7 3 7 0 5 C-0.1875 2.375 -0.1875 2.375 0 0 Z " fill="#DCB1A5" transform="translate(75,81)"/>
<path d="M0 0 C0.99 0 1.98 0 3 0 C3 1.98 3 3.96 3 6 C2.01 5.67 1.02 5.34 0 5 C-0.33 5.66 -0.66 6.32 -1 7 C-1.04254356 5.00045254 -1.04080783 2.99958364 -1 1 C-0.67 0.67 -0.34 0.34 0 0 Z " fill="#FCCCB7" transform="translate(62,20)"/>
<path d="M0 0 C0.99 0 1.98 0 3 0 C2.67 2.64 2.34 5.28 2 8 C1.67 6.68 1.34 5.36 1 4 C0.01 4.33 -0.98 4.66 -2 5 C-1.34 3.35 -0.68 1.7 0 0 Z " fill="#42C5F1" transform="translate(56,52)"/>
<path d="M0 0 C2.31 0 4.62 0 7 0 C7 0.66 7 1.32 7 2 C4.69 2.33 2.38 2.66 0 3 C0 2.01 0 1.02 0 0 Z " fill="#5A3759" transform="translate(120,160)"/>
<path d="M0 0 C0.99 0 1.98 0 3 0 C2.52797514 4.24822374 0.03344482 6.19989709 -3 9 C-2.30058404 5.85262818 -1.23921302 2.97411124 0 0 Z " fill="#C06A62" transform="translate(157,92)"/>
<path d="M0 0 C2.475 0.495 2.475 0.495 5 1 C5 2.32 5 3.64 5 5 C2.5 3.625 2.5 3.625 0 2 C0 1.34 0 0.68 0 0 Z " fill="#42C4F0" transform="translate(65,77)"/>
<path d="M0 0 C2.00720923 0.28674418 4.0085944 0.61866701 6 1 C5.071875 1.4021875 5.071875 1.4021875 4.125 1.8125 C1.7004767 2.95556848 1.7004767 2.95556848 0 6 C-0.38218767 4.34385343 -0.71395102 2.67542976 -1 1 C-0.67 0.67 -0.34 0.34 0 0 Z " fill="#493560" transform="translate(64,3)"/>
</svg>
