<?xml version="1.0" encoding="UTF-8"?>
<svg version="1.1" xmlns="http://www.w3.org/2000/svg" width="200" height="200">
<path d="M0 0 C66 0 132 0 200 0 C200 66 200 132 200 200 C134 200 68 200 0 200 C0 134 0 68 0 0 Z " fill="none" transform="translate(0,0)"/>
<path d="M0 0 C28.71 0 57.42 0 87 0 C91 28 91 28 91 38 C92.32 38 93.64 38 95 38 C94.67185303 38.54946289 94.34370605 39.09892578 94.00561523 39.66503906 C92.8103056 42.44045575 92.81475842 44.34719514 92.91015625 47.359375 C92.93013672 48.39320312 92.95011719 49.42703125 92.97070312 50.4921875 C93.03146434 52.64856425 93.09650592 54.80482502 93.16601562 56.9609375 C93.28906999 63.80106262 93.28768089 70.25856615 88.51586914 75.68896484 C86.10154491 77.77705006 83.93925025 77.40607813 80.875 77.3046875 C79 77 79 77 77 75.5 C76.67 75.005 76.34 74.51 76 74 C74.03177114 75.96822886 74.33751619 79.34808709 74 82 C74.78503906 82.03738281 75.57007813 82.07476562 76.37890625 82.11328125 C90.12477986 82.97345248 90.12477986 82.97345248 95.375 88.5 C98.48247324 93.28072806 98.31784833 97.85641406 98.5625 103.375 C98.60858398 104.29877441 98.65466797 105.22254883 98.70214844 106.17431641 C98.92207657 111.06482349 99.01521183 115.91815721 98.88671875 120.8125 C98.86601318 121.74529785 98.84530762 122.6780957 98.82397461 123.63916016 C98.77579961 125.42084024 98.70608061 127.20210975 98.61157227 128.98193359 C98.44709824 135.28408186 99.81839788 138.25500838 104 143 C104.66 143.33 105.32 143.66 106 144 C106 145.32 106 146.64 106 148 C103.36 148.66 100.72 149.32 98 150 C97.29875 149.071875 96.5975 148.14375 95.875 147.1875 C93.31939903 144.09157196 90.70343309 142.59920974 87 141 C85.11732015 139.11732015 85.59379463 136.42937958 85.37890625 133.91015625 C85.13777773 131.7671052 85.13777773 131.7671052 83 130 C82.73994339 127.00048346 82.58218708 124.06733992 82.5 121.0625 C82.22380695 113.86044382 81.53533616 107.06254634 80 100 C76.37 100 72.74 100 69 100 C70.68807908 104.23084903 70.68807908 104.23084903 74 107 C73.67 108.32 73.34 109.64 73 111 C69.84361492 111.56814931 67.13168428 111.77522021 64 111 C62.05270064 108.8579707 60.8062012 106.73428011 59.484375 104.1640625 C57.5232318 101.30492214 56.33871298 100.98724365 53 100 C49.77678985 99.67458773 46.56205762 99.62782492 43.32421875 99.5859375 C42.3990596 99.56657135 41.47390045 99.5472052 40.52070618 99.5272522 C37.57639683 99.46764746 34.63204798 99.42114752 31.6875 99.375 C29.68683225 99.33680264 27.68618064 99.29774988 25.68554688 99.2578125 C20.7904962 99.16196159 15.89536855 99.07786 11 99 C10.01 93.555 10.01 93.555 9 88 C8.48050781 88.89203125 7.96101563 89.7840625 7.42578125 90.703125 C6.72185771 91.88571654 6.01740224 93.06799157 5.3125 94.25 C4.97283203 94.83652344 4.63316406 95.42304687 4.28320312 96.02734375 C0.87659043 101.69441907 -2.67352817 104.97254261 -9.0625 106.75 C-9.89910156 106.99234375 -10.73570313 107.2346875 -11.59765625 107.484375 C-14 108 -14 108 -18 108 C-17.2098059 111.50033411 -16.41757462 115.00020421 -15.625 118.5 C-15.40328125 119.48226562 -15.1815625 120.46453125 -14.953125 121.4765625 C-14.73398438 122.44335938 -14.51484375 123.41015625 -14.2890625 124.40625 C-14.07282227 125.36273438 -13.85658203 126.31921875 -13.63378906 127.3046875 C-13.08294081 129.64727791 -12.47097987 131.96060135 -11.8359375 134.28125 C-11 138 -11 138 -11 145 C-22.22 145 -33.44 145 -45 145 C-41.95246066 151.21894791 -41.95246066 151.21894791 -37.25 154.4375 C-36.1775 154.953125 -35.105 155.46875 -34 156 C-34 156.66 -34 157.32 -34 158 C-34.66 158.33 -35.32 158.66 -36 159 C-35.67 160.98 -35.34 162.96 -35 165 C-35.66 165 -36.32 165 -37 165 C-37 165.66 -37 166.32 -37 167 C-40.36070434 167.84017608 -42.73784665 168.28907673 -46 167 C-46.984375 165.35546875 -46.984375 165.35546875 -47.75 163.1875 C-48.09933594 162.38699219 -48.44867188 161.58648437 -48.80859375 160.76171875 C-49.66158079 158.78446682 -50.46041388 156.78350708 -51.22265625 154.76953125 C-53.1353301 150.83609633 -54.49745426 148.67765519 -58 146 C-65.47724681 144.20981076 -73.37043405 144.62077453 -81 145 C-82.92386866 131.62843059 -84.57790156 118.25410343 -85.90942383 104.80957031 C-86.53619045 98.65295414 -87.39952593 92.63693701 -88.56518555 86.56079102 C-89.22819413 82.65607621 -89.454852 78.7648962 -89.625 74.8125 C-89.66367188 74.05130859 -89.70234375 73.29011719 -89.7421875 72.50585938 C-89.83451335 70.6708832 -89.91823198 68.83547695 -90 67 C-90.66 67 -91.32 67 -92 67 C-91.98259766 65.85724609 -91.98259766 65.85724609 -91.96484375 64.69140625 C-91.95582031 63.65886719 -91.94679688 62.62632813 -91.9375 61.5625 C-91.92009766 60.04849609 -91.92009766 60.04849609 -91.90234375 58.50390625 C-92.01890934 54.32153275 -92.53795476 50.15840713 -93 46 C-63.96 46 -34.92 46 -5 46 C-3.68 56.23 -2.36 66.46 -1 77 C-0.67 77.33 -0.34 77.66 0 78 C9.30597934 63.21013998 4.86122815 44.86000798 2.51196289 28.55371094 C1.14218603 18.95225102 0.57524727 9.77920352 0 0 Z " fill="#6DE1E9" transform="translate(93,16)"/>
<path d="M0 0 C29.04 0 58.08 0 88 0 C92 31 92 31 91 36 C89.07421875 38.16796875 89.07421875 38.16796875 86.6875 40.1875 C85.90761719 40.86167969 85.12773438 41.53585938 84.32421875 42.23046875 C79.58875847 45.83578557 76.15741571 46.27017279 70.25 46.125 C69.55261719 46.11597656 68.85523437 46.10695312 68.13671875 46.09765625 C66.42433042 46.07419888 64.71211996 46.03833104 63 46 C63 44.35 63 42.7 63 41 C63.66 40.67 64.32 40.34 65 40 C64.76051435 35.29011551 64.59162968 32.85264278 61.875 28.9375 C59.06801042 26.64669649 59.06801042 26.64669649 55.3125 27.0625 C51.95212718 27.72265858 51.95212718 27.72265858 50 30 C49.97746557 32.44963177 49.97746557 32.44963177 50.375 35.125 C50.48585937 36.03507812 50.59671875 36.94515625 50.7109375 37.8828125 C50.85402344 38.93082031 50.85402344 38.93082031 51 40 C51.66 40 52.32 40 53 40 C53 41.65 53 43.3 53 45 C52.41992188 45.17015625 51.83984375 45.3403125 51.2421875 45.515625 C42.24322059 48.30738371 36.69768358 52.10359464 32.078125 60.48828125 C31.46151911 61.75953892 30.85223282 63.03437069 30.25 64.3125 C29.93417969 64.93833984 29.61835938 65.56417969 29.29296875 66.20898438 C26.70411042 71.67248409 25.91833321 76.58014634 27.76269531 82.41137695 C28.76776748 84.98295997 29.85764949 87.48612373 31 90 C32.32 92.97 33.64 95.94 35 99 C27.41 99 19.82 99 12 99 C10.10149045 85.62002793 8.42251389 72.2582982 7.09057617 58.80957031 C6.46380955 52.65295414 5.60047407 46.63693701 4.43481445 40.56079102 C3.77180587 36.65607621 3.545148 32.7648962 3.375 28.8125 C3.33632813 28.05130859 3.29765625 27.29011719 3.2578125 26.50585938 C3.16548665 24.6708832 3.08176802 22.83547695 3 21 C2.34 21 1.68 21 1 21 C1.01160156 20.23816406 1.02320312 19.47632812 1.03515625 18.69140625 C1.04417969 17.65886719 1.05320313 16.62632813 1.0625 15.5625 C1.07410156 14.55316406 1.08570312 13.54382813 1.09765625 12.50390625 C0.98109066 8.32153275 0.46204524 4.15840713 0 0 Z " fill="#33B7F1" transform="translate(0,62)"/>
<path d="M0 0 C0.66 0 1.32 0 2 0 C2 0.99 2 1.98 2 3 C2.66 3 3.32 3 4 3 C4 3.99 4 4.98 4 6 C4.66 6 5.32 6 6 6 C5.70738281 6.55816406 5.41476563 7.11632812 5.11328125 7.69140625 C3.96583056 10.07085663 3.06754548 12.44715854 2.1875 14.9375 C1.65962891 16.39542969 1.65962891 16.39542969 1.12109375 17.8828125 C0.37488359 19.95764074 -0.3621394 22.03579657 -1.08984375 24.1171875 C-4.97940362 34.82984733 -9.50945259 46.16922384 -19 53 C-21.6328125 54.14453125 -21.6328125 54.14453125 -24.125 54.8125 C-24.95257813 55.04582031 -25.78015625 55.27914062 -26.6328125 55.51953125 C-29 56 -29 56 -33 56 C-32.2098059 59.50033411 -31.41757462 63.00020421 -30.625 66.5 C-30.40328125 67.48226562 -30.1815625 68.46453125 -29.953125 69.4765625 C-29.73398438 70.44335938 -29.51484375 71.41015625 -29.2890625 72.40625 C-28.96470215 73.84097656 -28.96470215 73.84097656 -28.63378906 75.3046875 C-28.08294081 77.64727791 -27.47097987 79.96060135 -26.8359375 82.28125 C-26 86 -26 86 -26 93 C-37.22 93 -48.44 93 -60 93 C-56.95246066 99.21894791 -56.95246066 99.21894791 -52.25 102.4375 C-51.1775 102.953125 -50.105 103.46875 -49 104 C-49 104.66 -49 105.32 -49 106 C-49.99 106.495 -49.99 106.495 -51 107 C-50.67 108.98 -50.34 110.96 -50 113 C-50.66 113 -51.32 113 -52 113 C-52 113.66 -52 114.32 -52 115 C-55.36204668 115.84051167 -57.73416804 116.27994222 -61 115 C-61.94921875 113.42578125 -61.94921875 113.42578125 -62.6875 111.3125 C-64.4052346 107.02826782 -66.66858143 103.36415653 -69.25 99.5625 C-72.86002067 94.13090236 -75.85743626 88.55934087 -78.5625 82.625 C-78.90893555 81.88838135 -79.25537109 81.1517627 -79.61230469 80.39282227 C-82.09279293 74.76094606 -83.17336276 69.89706325 -81.36547852 63.89257812 C-80.50619769 61.68163373 -79.54294956 59.56777485 -78.5 57.4375 C-78.14196289 56.69169678 -77.78392578 55.94589355 -77.41503906 55.17749023 C-73.81662102 48.04429429 -69.35336943 43.28275421 -62 40 C-60.00889599 39.61709538 -58.00899487 39.27395385 -56 39 C-55.67 37.35 -55.34 35.7 -55 34 C-55.66 34 -56.32 34 -57 34 C-58.59931373 29.95467703 -59.57618232 27.1656247 -58 23 C-56.375 21.125 -56.375 21.125 -54 20 C-49.86480504 20 -47.77247379 20.3291675 -44.625 23.0625 C-42.53105893 26.84770116 -42.29146926 29.70082837 -42 34 C-42.99 34.33 -43.98 34.66 -45 35 C-45 36.65 -45 38.3 -45 40 C-35.54562052 39.97508727 -28.21133903 39.69515897 -21 33 C-20.43925781 32.48308594 -19.87851563 31.96617188 -19.30078125 31.43359375 C-11.64849998 23.43435767 -9.20741949 13.80466991 -9 3 C-8.01 3.66 -7.02 4.32 -6 5 C-5.34 3.68 -4.68 2.36 -4 1 C-3.01 1.33 -2.02 1.66 -1 2 C-0.67 1.34 -0.34 0.68 0 0 Z " fill="#EEAD37" transform="translate(108,68)"/>
<path d="M0 0 C0.78246094 -0.02578125 1.56492188 -0.0515625 2.37109375 -0.078125 C4.5625 0.25 4.5625 0.25 6.23046875 1.38671875 C8.02797515 3.9011192 8.63453662 6.33158729 9.4375 9.3125 C11.18862105 15.36676348 13.52726303 20.73930337 16.5625 26.25 C16.74425781 25.50234375 16.92601562 24.7546875 17.11328125 23.984375 C17.49033203 22.50710937 17.49033203 22.50710937 17.875 21 C18.11863281 20.02546875 18.36226562 19.0509375 18.61328125 18.046875 C19.57234399 15.22099465 20.52026759 13.41476636 22.5625 11.25 C25.25 11 25.25 11 27.5625 11.25 C27.23435303 11.79946289 26.90620605 12.34892578 26.56811523 12.91503906 C25.3728056 15.69045575 25.37725842 17.59719514 25.47265625 20.609375 C25.50262695 22.16011719 25.50262695 22.16011719 25.53320312 23.7421875 C25.59396434 25.89856425 25.65900592 28.05482502 25.72851562 30.2109375 C25.85156999 37.05106262 25.85018089 43.50856615 21.07836914 48.93896484 C18.66404491 51.02705006 16.50175025 50.65607813 13.4375 50.5546875 C11.5625 50.25 11.5625 50.25 9.5625 48.75 C9.2325 48.255 8.9025 47.76 8.5625 47.25 C6.59427114 49.21822886 6.90001619 52.59808709 6.5625 55.25 C7.74005859 55.30607422 7.74005859 55.30607422 8.94140625 55.36328125 C22.68727986 56.22345248 22.68727986 56.22345248 27.9375 61.75 C31.04497324 66.53072806 30.88034833 71.10641406 31.125 76.625 C31.17108398 77.54877441 31.21716797 78.47254883 31.26464844 79.42431641 C31.48457657 84.31482349 31.57771183 89.16815721 31.44921875 94.0625 C31.42851318 94.99529785 31.40780762 95.9280957 31.38647461 96.88916016 C31.33829961 98.67084024 31.26858061 100.45210975 31.17407227 102.23193359 C31.00959824 108.53408186 32.38089788 111.50500838 36.5625 116.25 C37.2225 116.58 37.8825 116.91 38.5625 117.25 C38.5625 118.57 38.5625 119.89 38.5625 121.25 C34.6025 122.24 34.6025 122.24 30.5625 123.25 C29.86125 122.321875 29.16 121.39375 28.4375 120.4375 C25.88189903 117.34157196 23.26593309 115.84920974 19.5625 114.25 C17.67982015 112.36732015 18.15629463 109.67937958 17.94140625 107.16015625 C17.70027773 105.0171052 17.70027773 105.0171052 15.5625 103.25 C15.30244339 100.25048346 15.14468708 97.31733992 15.0625 94.3125 C14.78630695 87.11044382 14.09783616 80.31254634 12.5625 73.25 C8.9325 73.25 5.3025 73.25 1.5625 73.25 C3.25057908 77.48084903 3.25057908 77.48084903 6.5625 80.25 C6.0675 82.23 6.0675 82.23 5.5625 84.25 C2.40611492 84.81814931 -0.30581572 85.02522021 -3.4375 84.25 C-5.38479936 82.1079707 -6.6312988 79.98428011 -7.953125 77.4140625 C-9.82758919 74.68129102 -11.27963644 74.12825081 -14.4375 73.25 C-16.4190238 73.21803994 -18.40145767 73.18934629 -20.3828125 73.23046875 C-24.61253154 73.2706752 -28.16043957 73.250051 -31.5625 70.5859375 C-35.06950791 66.21679015 -34.91783708 60.6720252 -35.4375 55.25 C-35.53417969 54.33992188 -35.63085938 53.42984375 -35.73046875 52.4921875 C-36.09782651 46.15774822 -34.45953067 41.22372244 -30.4375 36.25 C-26.98118579 35.09789526 -25.80489344 35.44237628 -22.375 36.4375 C-21.49714844 36.67855469 -20.61929688 36.91960937 -19.71484375 37.16796875 C-17.00795454 38.45408935 -16.44983038 39.48753912 -15.4375 42.25 C-17.0875 42.25 -18.7375 42.25 -20.4375 42.25 C-21.0975 44.23 -21.7575 46.21 -22.4375 48.25 C-21.1175 48.25 -19.7975 48.25 -18.4375 48.25 C-18.18484375 47.69183594 -17.9321875 47.13367188 -17.671875 46.55859375 C-14.06855772 39.81947821 -8.64640098 33.68492927 -2.4375 29.25 C-1.7775 29.25 -1.1175 29.25 -0.4375 29.25 C-0.4375 26.28 -0.4375 23.31 -0.4375 20.25 C-2.4175 20.25 -4.3975 20.25 -6.4375 20.25 C-7.0975 18.27 -7.7575 16.29 -8.4375 14.25 C-9.4275 14.25 -10.4175 14.25 -11.4375 14.25 C-12.06722989 9.08621488 -10.72322364 6.63723044 -7.7265625 2.66796875 C-5.390545 0.0983495 -3.32858906 0.06558796 0 0 Z " fill="#301748" transform="translate(160.4375,42.75)"/>
<path d="M0 0 C3.28958955 0.52334379 4.69067507 1.6971961 6.68359375 4.33984375 C8.91016233 8.71957755 9.21989247 13.61105583 9.75 18.4375 C9.86085938 19.35402344 9.97171875 20.27054688 10.0859375 21.21484375 C10.32814859 23.28673054 10.5424356 25.36185598 10.75 27.4375 C11.74 27.4375 12.73 27.4375 13.75 27.4375 C13.688125 26.53 13.62625 25.6225 13.5625 24.6875 C13.76672076 21.14767358 14.39551835 19.98818845 16.75 17.4375 C18.07 17.7675 19.39 18.0975 20.75 18.4375 C20 24.1875 20 24.1875 17.75 26.4375 C18.22179687 26.99308594 18.69359375 27.54867187 19.1796875 28.12109375 C20.90871198 30.67161991 21.37412665 32.48109971 21.875 35.5 C22.35223713 38.28388328 22.85360077 40.74830231 23.75 43.4375 C24.26949219 42.61765625 24.78898437 41.7978125 25.32421875 40.953125 C26.02160156 39.87546875 26.71898437 38.7978125 27.4375 37.6875 C28.12199219 36.62015625 28.80648437 35.5528125 29.51171875 34.453125 C31.70065635 31.50398045 33.7272505 29.50279485 36.75 27.4375 C37.41 27.4375 38.07 27.4375 38.75 27.4375 C39.08 26.1175 39.41 24.7975 39.75 23.4375 C39.75 24.4275 39.75 25.4175 39.75 26.4375 C40.74 26.4375 41.73 26.4375 42.75 26.4375 C43.41 28.4175 44.07 30.3975 44.75 32.4375 C46.73 32.4375 48.71 32.4375 50.75 32.4375 C51.10440409 35.50900209 51.2573323 38.37748519 50.75 41.4375 C48.1875 43.5 48.1875 43.5 44.75 45.4375 C41.05724521 49.09786221 37.92569505 53.1075762 35.0625 57.4375 C34.299375 58.4275 33.53625 59.4175 32.75 60.4375 C31.43 60.4375 30.11 60.4375 28.75 60.4375 C29.25603992 58.26875748 29.74983813 56.43782373 30.75 54.4375 C32.4 54.4375 34.05 54.4375 35.75 54.4375 C32.51492002 50.0260273 28.90442808 49.59055442 23.796875 48.734375 C23.12140625 48.63640625 22.4459375 48.5384375 21.75 48.4375 C17.36428477 54.92209323 15.91351388 59.66698417 16.75 67.4375 C16.86859375 68.55382812 16.9871875 69.67015625 17.109375 70.8203125 C18.02425131 78.12884427 18.02425131 78.12884427 21.75 84.4375 C12.84 84.4375 3.93 84.4375 -5.25 84.4375 C-7.4956283 69.84091602 -7.4956283 69.84091602 -4.5625 63.6875 C-3.98755181 62.42670569 -3.41462384 61.16498811 -2.84375 59.90234375 C-2.3178125 58.75894531 -1.791875 57.61554688 -1.25 56.4375 C-0.65708507 54.71852487 -0.08840902 52.99064451 0.4375 51.25 C1.4130669 48.1723187 2.53739567 45.86082855 4.75 43.4375 C3.265 43.9325 3.265 43.9325 1.75 44.4375 C2.08 43.1175 2.41 41.7975 2.75 40.4375 C1.265 40.9325 1.265 40.9325 -0.25 41.4375 C-0.04920119 39.30963201 0.18657063 37.18504018 0.4375 35.0625 C0.56511719 33.87914062 0.69273438 32.69578125 0.82421875 31.4765625 C1.75 28.4375 1.75 28.4375 4.33203125 27.0234375 C5.12996094 26.83007812 5.92789063 26.63671875 6.75 26.4375 C5.63625 26.004375 4.5225 25.57125 3.375 25.125 C-0.25 23.4375 -0.25 23.4375 -2.25 20.4375 C-2.375 17.25 -2.375 17.25 -2.25 14.4375 C1.125 14.75 1.125 14.75 4.75 15.4375 C5.74 16.9225 5.74 16.9225 6.75 18.4375 C6.75 17.1175 6.75 15.7975 6.75 14.4375 C6.0075 14.355 5.265 14.2725 4.5 14.1875 C1.20328523 13.28839597 -0.06404792 12.01380066 -2.25 9.4375 C-3.61623674 6.70502652 -3.378426 4.45551098 -3.25 1.4375 C-2.25 0.4375 -2.25 0.4375 0 0 Z " fill="#3A9FD1" transform="translate(109.25,30.5625)"/>
<path d="M0 0 C16.17 0 32.34 0 49 0 C49.350625 5.65125 49.70125 11.3025 50.0625 17.125 C50.19664307 18.89762207 50.33078613 20.67024414 50.46899414 22.49658203 C51.08892099 33.46127052 51.08892099 33.46127052 48.27124023 37.44287109 C43.39430537 40.9877312 38.83790682 41.69394091 32.9375 41.375 C31.62652344 41.32085937 30.31554687 41.26671875 28.96484375 41.2109375 C27.98644531 41.14132813 27.00804688 41.07171875 26 41 C26 39.35 26 37.7 26 36 C26.99 35.505 26.99 35.505 28 35 C27.76051435 30.29011551 27.59162968 27.85264278 24.875 23.9375 C22.06801042 21.64669649 22.06801042 21.64669649 18.3125 22.0625 C14.95212718 22.72265858 14.95212718 22.72265858 13 25 C12.97746557 27.44963177 12.97746557 27.44963177 13.375 30.125 C13.48585938 31.03507812 13.59671875 31.94515625 13.7109375 32.8828125 C13.85402344 33.93082031 13.85402344 33.93082031 14 35 C14.66 35 15.32 35 16 35 C16 36.65 16 38.3 16 40 C15.43152344 40.17015625 14.86304688 40.3403125 14.27734375 40.515625 C13.50519531 40.75796875 12.73304687 41.0003125 11.9375 41.25 C10.80634766 41.59804687 10.80634766 41.59804687 9.65234375 41.953125 C6.27517247 43.28608804 3.1523416 45.19866194 0 47 C0 31.49 0 15.98 0 0 Z " fill="#34BAF2" transform="translate(37,67)"/>
<path d="M0 0 C0.66 0 1.32 0 2 0 C2 0.99 2 1.98 2 3 C2.66 3 3.32 3 4 3 C4 3.99 4 4.98 4 6 C4.66 6 5.32 6 6 6 C5.70738281 6.55816406 5.41476563 7.11632812 5.11328125 7.69140625 C3.96583056 10.07085663 3.06754548 12.44715854 2.1875 14.9375 C1.65962891 16.39542969 1.65962891 16.39542969 1.12109375 17.8828125 C0.37488359 19.95764074 -0.3621394 22.03579657 -1.08984375 24.1171875 C-4.97940362 34.82984733 -9.50945259 46.16922384 -19 53 C-21.6328125 54.14453125 -21.6328125 54.14453125 -24.125 54.8125 C-25.36636719 55.16248047 -25.36636719 55.16248047 -26.6328125 55.51953125 C-29 56 -29 56 -33 56 C-32.2098059 59.50033411 -31.41757462 63.00020421 -30.625 66.5 C-30.40328125 67.48226562 -30.1815625 68.46453125 -29.953125 69.4765625 C-28.96778861 73.82363479 -27.96966265 78.15779512 -26.8359375 82.46875 C-26 86 -26 86 -26 90 C-30.77092956 91.23402862 -35.42469446 91.11265112 -40.3125 91.0625 C-41.14845703 91.05798828 -41.98441406 91.05347656 -42.84570312 91.04882812 C-44.89716649 91.03710548 -46.94859273 91.01917203 -49 91 C-49.03758423 89.32659546 -49.03758423 89.32659546 -49.07592773 87.61938477 C-49.16983421 83.4950741 -49.27009514 79.3709385 -49.37231445 75.24682617 C-49.415727 73.4591073 -49.45739729 71.67134526 -49.49731445 69.88354492 C-49.5548646 67.31936609 -49.61860203 64.75540588 -49.68359375 62.19140625 C-49.70030624 61.3872377 -49.71701874 60.58306915 -49.73423767 59.75453186 C-49.49220696 56.07330002 -49.49220696 56.07330002 -51 53 C-51.07205511 51.31391034 -51.08386068 49.62499341 -51.0625 47.9375 C-51.05347656 47.01839844 -51.04445312 46.09929687 -51.03515625 45.15234375 C-51.02355469 44.44207031 -51.01195312 43.73179688 -51 43 C-49.515 42.505 -49.515 42.505 -48 42 C-46.37779058 51.33951635 -45.4968942 60.54593406 -45 70 C-45 69.01 -45 68.02 -45 67 C-45 64.66666667 -45 62.33333333 -45 60 C-44.67 60.66 -44.34 61.32 -44 62 C-42.515 61.505 -42.515 61.505 -41 61 C-40.79680349 54.70090829 -40.6184183 47.94272039 -43 42 C-44.98709997 40.67706133 -44.98709997 40.67706133 -47 40 C-45.31583984 39.99613281 -45.31583984 39.99613281 -43.59765625 39.9921875 C-34.62022124 39.8217616 -27.77271805 39.53559882 -21 33 C-20.44183594 32.48308594 -19.88367188 31.96617188 -19.30859375 31.43359375 C-11.63879262 23.45623167 -9.20721328 13.79392812 -9 3 C-8.01 3.66 -7.02 4.32 -6 5 C-5.34 3.68 -4.68 2.36 -4 1 C-3.01 1.33 -2.02 1.66 -1 2 C-0.67 1.34 -0.34 0.68 0 0 Z " fill="#F6C438" transform="translate(108,68)"/>
<path d="M0 0 C0.78246094 -0.02578125 1.56492188 -0.0515625 2.37109375 -0.078125 C4.5625 0.25 4.5625 0.25 6.23046875 1.38671875 C8.02797515 3.9011192 8.63453662 6.33158729 9.4375 9.3125 C11.18862105 15.36676348 13.52726303 20.73930337 16.5625 26.25 C16.74425781 25.50234375 16.92601562 24.7546875 17.11328125 23.984375 C17.36464844 22.99953125 17.61601562 22.0146875 17.875 21 C18.24044922 19.53820313 18.24044922 19.53820313 18.61328125 18.046875 C19.57234399 15.22099465 20.52026759 13.41476636 22.5625 11.25 C25.25 11 25.25 11 27.5625 11.25 C27.23435303 11.79946289 26.90620605 12.34892578 26.56811523 12.91503906 C25.3728056 15.69045575 25.37725842 17.59719514 25.47265625 20.609375 C25.50262695 22.16011719 25.50262695 22.16011719 25.53320312 23.7421875 C25.59396434 25.89856425 25.65900592 28.05482502 25.72851562 30.2109375 C25.85156999 37.05106262 25.85018089 43.50856615 21.07836914 48.93896484 C18.66404491 51.02705006 16.50175025 50.65607813 13.4375 50.5546875 C11.5625 50.25 11.5625 50.25 9.5625 48.75 C9.2325 48.255 8.9025 47.76 8.5625 47.25 C6.59427114 49.21822886 6.90001619 52.59808709 6.5625 55.25 C7.34753906 55.28738281 8.13257813 55.32476562 8.94140625 55.36328125 C22.68727986 56.22345248 22.68727986 56.22345248 27.9375 61.75 C31.04497324 66.53072806 30.88034833 71.10641406 31.125 76.625 C31.17108398 77.54877441 31.21716797 78.47254883 31.26464844 79.42431641 C31.48457657 84.31482349 31.57771183 89.16815721 31.44921875 94.0625 C31.42851318 94.99529785 31.40780762 95.9280957 31.38647461 96.88916016 C31.33829961 98.67084024 31.26858061 100.45210975 31.17407227 102.23193359 C31.00959824 108.53408186 32.38089788 111.50500838 36.5625 116.25 C37.5525 116.745 37.5525 116.745 38.5625 117.25 C38.5625 118.57 38.5625 119.89 38.5625 121.25 C34.6025 122.24 34.6025 122.24 30.5625 123.25 C29.86125 122.321875 29.16 121.39375 28.4375 120.4375 C25.88189903 117.34157196 23.26593309 115.84920974 19.5625 114.25 C18.5625 113.25 18.5625 113.25 18.46484375 111.40234375 C18.49739583 109.3515625 18.52994792 107.30078125 18.5625 105.25 C21.8625 105.25 25.1625 105.25 28.5625 105.25 C28.40523437 104.14140625 28.24796875 103.0328125 28.0859375 101.890625 C27.57580335 97.82029147 27.39694046 93.78488248 27.27197266 89.68701172 C27.2837525 75.50697524 27.2837525 75.50697524 22.41015625 62.58203125 C19.62062055 60.57097063 16.68124768 59.94214388 13.375 59.0625 C12.10269531 58.71832031 10.83039063 58.37414062 9.51953125 58.01953125 C8.54371094 57.76558594 7.56789062 57.51164062 6.5625 57.25 C6.2325 59.56 5.9025 61.87 5.5625 64.25 C3.5825 64.745 3.5825 64.745 1.5625 65.25 C2.5525 64.755 2.5525 64.755 3.5625 64.25 C3.54058594 62.96351562 3.51867187 61.67703125 3.49609375 60.3515625 C3.49496079 54.56212701 4.20208973 48.91371839 4.93945312 43.1796875 C5.51694678 38.27298276 5.49384779 34.10863955 4.5625 29.25 C3.9025 29.25 3.2425 29.25 2.5625 29.25 C2.57410156 30.20261719 2.58570313 31.15523437 2.59765625 32.13671875 C2.60667969 33.39097656 2.61570313 34.64523438 2.625 35.9375 C2.63660156 37.17886719 2.64820313 38.42023438 2.66015625 39.69921875 C2.57728673 42.71235454 2.27089449 45.33275339 1.5625 48.25 C1.2325 48.25 0.9025 48.25 0.5625 48.25 C0.57410156 46.96222656 0.58570313 45.67445312 0.59765625 44.34765625 C0.6070327 42.66927228 0.61613305 40.99088674 0.625 39.3125 C0.63337891 38.46236328 0.64175781 37.61222656 0.65039062 36.73632812 C0.65361328 35.92744141 0.65683594 35.11855469 0.66015625 34.28515625 C0.66539307 33.5362915 0.67062988 32.78742676 0.67602539 32.01586914 C0.75591752 30.22332261 0.75591752 30.22332261 -0.4375 29.25 C-0.50929964 27.73071962 -0.52142007 26.20832518 -0.5 24.6875 C-0.49097656 23.86121094 -0.48195312 23.03492187 -0.47265625 22.18359375 C-0.46105469 21.54550781 -0.44945312 20.90742187 -0.4375 20.25 C-2.4175 20.25 -4.3975 20.25 -6.4375 20.25 C-7.0975 18.27 -7.7575 16.29 -8.4375 14.25 C-9.4275 14.25 -10.4175 14.25 -11.4375 14.25 C-12.06722989 9.08621488 -10.72322364 6.63723044 -7.7265625 2.66796875 C-5.390545 0.0983495 -3.32858906 0.06558796 0 0 Z " fill="#3A3560" transform="translate(160.4375,42.75)"/>
<path d="M0 0 C2.375 1.4375 2.375 1.4375 4 4 C4.32338916 7.03046934 4.23343996 9.96528054 4 13 C2.68 13 1.36 13 0 13 C-0.33 24.88 -0.66 36.76 -1 49 C-4 48 -4 48 -6 45 C-6.22705078 42.36450195 -6.22705078 42.36450195 -6.1953125 39.23828125 C-6.18886719 38.12001953 -6.18242188 37.00175781 -6.17578125 35.84960938 C-6.15902344 34.68236328 -6.14226563 33.51511719 -6.125 32.3125 C-6.11597656 31.13365234 -6.10695313 29.95480469 -6.09765625 28.74023438 C-6.07406423 25.82661974 -6.0411454 22.91341108 -6 20 C-6.49049232 21.40327409 -6.97498386 22.80864633 -7.45703125 24.21484375 C-7.72749268 24.99722412 -7.9979541 25.77960449 -8.27661133 26.58569336 C-9.31468122 30.05024725 -9.67300152 33.4030167 -10 37 C-11.32 37 -12.64 37 -14 37 C-14 33.04 -14 29.08 -14 25 C-14.33 28.96 -14.66 32.92 -15 37 C-13.02 37.66 -11.04 38.32 -9 39 C-9 39.99 -9 40.98 -9 42 C-13.29 42.66 -17.58 43.32 -22 44 C-25.01493558 37.21639495 -27.57669718 31.31400811 -25.37109375 23.88037109 C-24.50427654 21.67754666 -23.54085789 19.56350251 -22.5 17.4375 C-21.96294434 16.31879517 -21.96294434 16.31879517 -21.41503906 15.17749023 C-17.17535587 6.77310515 -10.25345405 -1.28168176 0 0 Z " fill="#FECC34" transform="translate(52,108)"/>
<path d="M0 0 C1.92466834 2.88700251 2.30463254 3.84225195 2.68603516 7.10424805 C2.78598785 7.92487228 2.88594055 8.74549652 2.98892212 9.59098816 C3.08796844 10.47232925 3.18701477 11.35367035 3.2890625 12.26171875 C3.39721283 13.16751175 3.50536316 14.07330475 3.61679077 15.00654602 C3.96042728 17.89936305 4.29284056 20.79334492 4.625 23.6875 C4.8560328 25.6491756 5.08779474 27.61076548 5.3203125 29.57226562 C5.89005102 34.38045178 6.44459809 39.19004987 7 44 C1.06 44 -4.88 44 -11 44 C-11.61875 40.8134375 -11.61875 40.8134375 -12.25 37.5625 C-13.55688238 30.9028421 -15.07065921 24.30563821 -16.72949219 17.72485352 C-17.62356485 14.07492821 -18.21224027 10.76177576 -18 7 C-17.03578125 6.74605469 -16.0715625 6.49210937 -15.078125 6.23046875 C-13.18320313 5.71419922 -13.18320313 5.71419922 -11.25 5.1875 C-9.99703125 4.85105469 -8.7440625 4.51460938 -7.453125 4.16796875 C-4.34699265 3.11736516 -2.43073441 2.14223816 0 0 Z " fill="#33B9F1" transform="translate(93,117)"/>
<path d="M0 0 C1.99375827 0.31418577 3.97233318 0.7271696 5.9375 1.1875 C7.55978516 1.54908203 7.55978516 1.54908203 9.21484375 1.91796875 C12 3 12 3 13.37890625 5.11328125 C13.58386719 5.73589844 13.78882813 6.35851562 14 7 C12.35 7 10.7 7 9 7 C8.690625 7.969375 8.38125 8.93875 8.0625 9.9375 C7 13 7 13 6 14 C6.06512987 15.54535407 6.20317333 17.08784786 6.375 18.625 C6.47425781 19.5221875 6.57351562 20.419375 6.67578125 21.34375 C7.06973965 24.571361 7.51083221 27.78546882 8 31 C9.27875 31.144375 10.5575 31.28875 11.875 31.4375 C14.25692894 31.70642746 15.84452691 31.92226346 18 33 C18.33 31.68 18.66 30.36 19 29 C22.63 29.33 26.26 29.66 30 30 C30.2475 31.7325 30.495 33.465 30.75 35.25 C31.55697945 39.85037188 32.41362056 41.90829358 36 45 C35.61328125 47.09765625 35.61328125 47.09765625 35 49 C31.84361492 49.56814931 29.13168428 49.77522021 26 49 C24.05270064 46.8579707 22.8062012 44.73428011 21.484375 42.1640625 C19.60991081 39.43129102 18.15786356 38.87825081 15 38 C13.0184762 37.96803994 11.03604233 37.93934629 9.0546875 37.98046875 C4.82496846 38.0206752 1.27706043 38.000051 -2.125 35.3359375 C-5.63200791 30.96679015 -5.48033708 25.4220252 -6 20 C-6.09667969 19.08992188 -6.19335938 18.17984375 -6.29296875 17.2421875 C-6.67240688 10.6994435 -4.70688349 6.33548148 -1 1 C-0.67 0.67 -0.34 0.34 0 0 Z " fill="#BD4F45" transform="translate(131,78)"/>
<path d="M0 0 C1.98 0 3.96 0 6 0 C9.30506899 6.45051817 10.06530527 12.92981907 11 20.0625 C12.19224216 28.66878187 13.47680471 37.13632623 15.484375 45.59375 C16 48 16 48 16 51 C10.06 51 4.12 51 -2 51 C-2.06058594 48.34066406 -2.12117188 45.68132812 -2.18359375 42.94140625 C-2.2453353 40.37651588 -2.30874277 37.81167176 -2.37231445 35.24682617 C-2.415727 33.4591073 -2.45739729 31.67134526 -2.49731445 29.88354492 C-2.5548646 27.31936609 -2.61860203 24.75540588 -2.68359375 22.19140625 C-2.70030624 21.3872377 -2.71701874 20.58306915 -2.73423767 19.75453186 C-2.49220696 16.07330002 -2.49220696 16.07330002 -4 13 C-4.07205511 11.31391034 -4.08386068 9.62499341 -4.0625 7.9375 C-4.05347656 7.01839844 -4.04445312 6.09929687 -4.03515625 5.15234375 C-4.02355469 4.44207031 -4.01195312 3.73179688 -4 3 C-3.01 2.67 -2.02 2.34 -1 2 C0.62220942 11.33951635 1.5031058 20.54593406 2 30 C2 29.01 2 28.02 2 27 C2 24.66666667 2 22.33333333 2 20 C2.33 20.66 2.66 21.32 3 22 C3.99 21.67 4.98 21.34 6 21 C6.20319651 14.70090829 6.3815817 7.94272039 4 2 C2.01290003 0.67706133 2.01290003 0.67706133 0 0 Z " fill="#FCCA34" transform="translate(61,108)"/>
<path d="M0 0 C0.33 0.99 0.66 1.98 1 3 C1.99 3 2.98 3 4 3 C4.66 4.98 5.32 6.96 6 9 C7.98 9 9.96 9 12 9 C12.35440409 12.07150209 12.5073323 14.93998519 12 18 C9.4375 20.0625 9.4375 20.0625 6 22 C2.30724521 25.66036221 -0.82430495 29.6700762 -3.6875 34 C-4.450625 34.99 -5.21375 35.98 -6 37 C-7.32 37 -8.64 37 -10 37 C-9.49396008 34.83125748 -9.00016187 33.00032373 -8 31 C-6.35 31 -4.7 31 -3 31 C-5.67852163 27.17354053 -8.34810616 26.53180354 -12.75 25.75 C-14.49773637 25.48463689 -16.24721668 25.22967506 -18 25 C-17.67 22.36 -17.34 19.72 -17 17 C-16.34 17.99 -15.68 18.98 -15 20 C-14.48050781 19.18015625 -13.96101562 18.3603125 -13.42578125 17.515625 C-12.72839844 16.43796875 -12.03101563 15.3603125 -11.3125 14.25 C-10.28576172 12.64898437 -10.28576172 12.64898437 -9.23828125 11.015625 C-7.04934365 8.06648045 -5.0227495 6.06529485 -2 4 C-1.34 4 -0.68 4 0 4 C0 2.68 0 1.36 0 0 Z " fill="#35B6EE" transform="translate(148,54)"/>
<path d="M0 0 C0.78246094 -0.02578125 1.56492188 -0.0515625 2.37109375 -0.078125 C4.5625 0.25 4.5625 0.25 6.23046875 1.38671875 C8.02797515 3.9011192 8.63453662 6.33158729 9.4375 9.3125 C10.69258856 13.69558058 12.09898543 17.51692434 14.3125 21.5 C17.35372411 27.25493179 17.36946573 32.02213708 15.8125 38.25 C14.5625 40.25 14.5625 40.25 12.484375 40.875 C11.85015625 40.99875 11.2159375 41.1225 10.5625 41.25 C10.47613281 40.51394531 10.38976562 39.77789062 10.30078125 39.01953125 C9.24819722 31.70938343 7.72687376 28.40918009 1.75 23.875 C-0.20616678 21.19814019 0.38183732 18.44170739 0.5625 15.25 C1.5525 15.25 2.5425 15.25 3.5625 15.25 C3.5625 13.93 3.5625 12.61 3.5625 11.25 C2.510625 11.29125 1.45875 11.3325 0.375 11.375 C-3.17760173 11.25852125 -5.28616641 10.77791932 -8.4375 9.25 C-8.7675 10.9 -9.0975 12.55 -9.4375 14.25 C-10.0975 14.25 -10.7575 14.25 -11.4375 14.25 C-12.06722989 9.08621488 -10.72322364 6.63723044 -7.7265625 2.66796875 C-5.390545 0.0983495 -3.32858906 0.06558796 0 0 Z " fill="#311546" transform="translate(160.4375,42.75)"/>
<path d="M0 0 C0.33 0 0.66 0 1 0 C1.20625 1.2375 1.4125 2.475 1.625 3.75 C3.12904799 10.38674324 5.62695136 18.14068222 10.94921875 22.65234375 C13.01933285 23.89057257 13.01933285 23.89057257 16 25 C16 25.66 16 26.32 16 27 C15.34 27.33 14.68 27.66 14 28 C14.33 29.98 14.66 31.96 15 34 C14.34 34 13.68 34 13 34 C13 34.66 13 35.32 13 36 C9.63795332 36.84051167 7.26583196 37.27994222 4 36 C3.05078125 34.42578125 3.05078125 34.42578125 2.3125 32.3125 C0.23196013 27.1194725 -2.64728468 22.68154739 -5.73901367 18.05004883 C-12 8.61364686 -12 8.61364686 -12 5 C-7.82262526 3.40861915 -4.46839215 2.78721942 0 3 C0 2.01 0 1.02 0 0 Z " fill="#C05246" transform="translate(43,147)"/>
<path d="M0 0 C0.66 0 1.32 0 2 0 C2 0.99 2 1.98 2 3 C2.66 3 3.32 3 4 3 C4 3.99 4 4.98 4 6 C4.66 6 5.32 6 6 6 C5.70738281 6.55816406 5.41476563 7.11632812 5.11328125 7.69140625 C3.96583056 10.07085663 3.06754548 12.44715854 2.1875 14.9375 C0.63222591 19.26092985 -0.9422328 23.57543553 -2.5625 27.875 C-3.15224609 29.44894531 -3.15224609 29.44894531 -3.75390625 31.0546875 C-4.95363129 33.89040124 -6.34878923 36.40592395 -8 39 C-9.32176485 38.09674384 -10.63215066 37.17682097 -11.9375 36.25 C-13.03384766 35.48429687 -13.03384766 35.48429687 -14.15234375 34.703125 C-16 33 -16 33 -16.96484375 31.203125 C-17.02015748 27.73679772 -15.32222513 25.47852948 -13.625 22.5 C-10.11752187 16.0455567 -8.90492789 10.41562442 -9 3 C-8.01 3.66 -7.02 4.32 -6 5 C-5.34 3.68 -4.68 2.36 -4 1 C-3.01 1.33 -2.02 1.66 -1 2 C-0.67 1.34 -0.34 0.68 0 0 Z " fill="#BF5449" transform="translate(108,68)"/>
<path d="M0 0 C0.33 0 0.66 0 1 0 C1 2.31 1 4.62 1 7 C1.515625 6.690625 2.03125 6.38125 2.5625 6.0625 C5.66665423 4.70940713 8.65115007 4.38640576 12 4 C10.95125002 6.62187494 10.35068687 7.79371361 7.875 9.25 C7.25625 9.4975 6.6375 9.745 6 10 C6 11.98 6 13.96 6 16 C8.31 16 10.62 16 13 16 C12.67 16.99 12.34 17.98 12 19 C13.32 19 14.64 19 16 19 C16 21 16 21 14.125 23 C13.42375 23.66 12.7225 24.32 12 25 C11.34 25.66 10.68 26.32 10 27 C8.68 25.68 7.36 24.36 6 23 C5.13375 23.4640625 5.13375 23.4640625 4.25 23.9375 C2.15705816 24.92583364 0.25464725 25.5168613 -2 26 C-2.33 25.34 -2.66 24.68 -3 24 C-4.96822886 25.96822886 -4.66248381 29.34808709 -5 32 C-6.65 32 -8.3 32 -10 32 C-11.70994772 24.2441657 -12.24923458 16.93396732 -12 9 C-11.01 10.485 -11.01 10.485 -10 12 C-8.01508358 11.73323796 -8.01508358 11.73323796 -6 11 C-5.67 10.01 -5.34 9.02 -5 8 C-2.9375 7.3125 -2.9375 7.3125 -1 7 C-0.67 4.69 -0.34 2.38 0 0 Z " fill="#3DB1E0" transform="translate(16,79)"/>
<path d="M0 0 C2.375 1.4375 2.375 1.4375 4 4 C4.32338916 7.03046934 4.23343996 9.96528054 4 13 C3.29875 12.9175 2.5975 12.835 1.875 12.75 C-1.92141187 13.08012277 -3.91201205 14.85183447 -7 17 C-7.99 17 -8.98 17 -10 17 C-8.37660195 15.29115995 -6.70680947 13.62553283 -5 12 C-4.34 12 -3.68 12 -3 12 C-3 9.69 -3 7.38 -3 5 C-10.99131565 8.58793764 -15.42732787 15.0613819 -19 22.9375 C-20.67824173 27.89085589 -19.77341482 32.93087151 -19 38 C-16.03 38 -13.06 38 -10 38 C-9.67 39.32 -9.34 40.64 -9 42 C-13.29 42.66 -17.58 43.32 -22 44 C-25.01493558 37.21639495 -27.57669718 31.31400811 -25.37109375 23.88037109 C-24.50427654 21.67754666 -23.54085789 19.56350251 -22.5 17.4375 C-21.96294434 16.31879517 -21.96294434 16.31879517 -21.41503906 15.17749023 C-17.17535587 6.77310515 -10.25345405 -1.28168176 0 0 Z " fill="#F0C03A" transform="translate(52,108)"/>
<path d="M0 0 C0.763125 0.0825 1.52625 0.165 2.3125 0.25 C1.98435303 0.79946289 1.65620605 1.34892578 1.31811523 1.91503906 C0.1228056 4.69045575 0.12725842 6.59719514 0.22265625 9.609375 C0.25262695 11.16011719 0.25262695 11.16011719 0.28320312 12.7421875 C0.34396434 14.89856425 0.40900592 17.05482502 0.47851562 19.2109375 C0.60283841 26.12156928 0.49601692 32.29962549 -4.04663086 37.93652344 C-6.43407102 39.84761227 -8.77919741 39.7202106 -11.74609375 39.60546875 C-13.6875 39.25 -13.6875 39.25 -16.1875 37.5 C-17.6875 35.25 -17.6875 35.25 -17.6875 31.25 C-15.3775 30.59 -13.0675 29.93 -10.6875 29.25 C-10.57792969 28.53457031 -10.46835938 27.81914063 -10.35546875 27.08203125 C-9.45787064 21.44102852 -8.45168386 15.83466761 -7.25 10.25 C-7.02441406 9.198125 -6.79882812 8.14625 -6.56640625 7.0625 C-5.32819105 3.10021136 -4.35380805 0.4050054 0 0 Z " fill="#BD5047" transform="translate(185.6875,53.75)"/>
<path d="M0 0 C0 9.24 0 18.48 0 28 C-4.62 28 -9.24 28 -14 28 C-12.79569892 0 -12.79569892 0 0 0 Z " fill="#6FE2E9" transform="translate(120,74)"/>
<path d="M0 0 C3.28958955 0.52334379 4.69067507 1.6971961 6.68359375 4.33984375 C8.91016233 8.71957755 9.21989247 13.61105583 9.75 18.4375 C9.86085938 19.35402344 9.97171875 20.27054688 10.0859375 21.21484375 C10.32814859 23.28673054 10.5424356 25.36185598 10.75 27.4375 C11.74 27.4375 12.73 27.4375 13.75 27.4375 C13.688125 26.53 13.62625 25.6225 13.5625 24.6875 C13.76672076 21.14767358 14.39551835 19.98818845 16.75 17.4375 C18.07 17.7675 19.39 18.0975 20.75 18.4375 C20 24.1875 20 24.1875 17.75 26.4375 C18.41 27.4275 19.07 28.4175 19.75 29.4375 C14.14 29.4375 8.53 29.4375 2.75 29.4375 C4.07 28.4475 5.39 27.4575 6.75 26.4375 C5.63625 26.004375 4.5225 25.57125 3.375 25.125 C-0.25 23.4375 -0.25 23.4375 -2.25 20.4375 C-2.375 17.25 -2.375 17.25 -2.25 14.4375 C1.125 14.75 1.125 14.75 4.75 15.4375 C5.74 16.9225 5.74 16.9225 6.75 18.4375 C6.75 17.1175 6.75 15.7975 6.75 14.4375 C6.0075 14.355 5.265 14.2725 4.5 14.1875 C1.20328523 13.28839597 -0.06404792 12.01380066 -2.25 9.4375 C-3.61623674 6.70502652 -3.378426 4.45551098 -3.25 1.4375 C-2.25 0.4375 -2.25 0.4375 0 0 Z " fill="#3FB3E1" transform="translate(109.25,30.5625)"/>
<path d="M0 0 C7.59 0 15.18 0 23 0 C23.99 2.97 24.98 5.94 26 9 C26.99 10.485 26.99 10.485 28 12 C19.09 12 10.18 12 1 12 C0.67 8.04 0.34 4.08 0 0 Z " fill="#72E3EA" transform="translate(103,103)"/>
<path d="M0 0 C0.33 0 0.66 0 1 0 C1.12060791 1.22348145 1.12060791 1.22348145 1.24365234 2.47167969 C1.54988131 5.55843271 1.85973237 8.64479683 2.171875 11.73095703 C2.36989669 13.6992736 2.56390779 15.66799235 2.7578125 17.63671875 C3.4693254 24.64512084 4.33984861 31.56540796 5.60742188 38.49609375 C6.11345848 41.72365063 6.14809004 44.7420192 6 48 C5.67 48 5.34 48 5 48 C4.72736328 46.96939453 4.72736328 46.96939453 4.44921875 45.91796875 C4.19785156 45.01691406 3.94648438 44.11585937 3.6875 43.1875 C3.44386719 42.29417969 3.20023438 41.40085938 2.94921875 40.48046875 C1.96418141 37.90639999 1.12775643 36.70865289 -1 35 C-6.66799492 32.52933555 -12.92856978 31.92348615 -19 31 C-19.125 27.625 -19.125 27.625 -19 24 C-18.34 23.34 -17.68 22.68 -17 22 C-16.67 22.495 -16.34 22.99 -16 23.5 C-13.40557542 25.44581843 -11.13642569 25.60000843 -7.9375 25.48828125 C-5.62699861 25.09953926 -5.62699861 25.09953926 -3.5625 22.25 C-1.16204575 17.25705517 -0.75428481 12.74439883 -0.4375 7.25 C-0.39431641 6.55261719 -0.35113281 5.85523437 -0.30664062 5.13671875 C-0.20110404 3.42468078 -0.1001009 1.71236439 0 0 Z " fill="#75DAE1" transform="translate(186,67)"/>
<path d="M0 0 C3.24132128 2.81483164 4.20679211 5.172375 4.75 9.3125 C4.87375 11.1378125 4.87375 11.1378125 5 13 C4.01 13.33 3.02 13.66 2 14 C2 15.65 2 17.3 2 19 C0.68 19.33 -0.64 19.66 -2 20 C-2 19.34 -2 18.68 -2 18 C-3.98 18 -5.96 18 -8 18 C-8 16.35 -8 14.7 -8 13 C-8.66 13 -9.32 13 -10 13 C-11.59931373 8.95467703 -12.57618232 6.1656247 -11 2 C-7.68087357 -1.82976127 -4.64406006 -1.3268743 0 0 Z " fill="#B54E46" transform="translate(61,89)"/>
<path d="M0 0 C0.680625 0.309375 1.36125 0.61875 2.0625 0.9375 C5.36965912 2.13370649 8.51545878 2.59005397 12 3 C12 4.32 12 5.64 12 7 C11.01 7 10.02 7 9 7 C9.08470967 11.74431379 9.08470967 11.74431379 11.5546875 15.625 C12.81358633 16.62794015 14.07797802 17.62402275 15.34765625 18.61328125 C19.46155613 22.06584498 19.37731417 27.19471705 19.8515625 32.20703125 C19.90054688 32.79871094 19.94953125 33.39039063 20 34 C18.68 34 17.36 34 16 34 C15.67 37.63 15.34 41.26 15 45 C14.67 45 14.34 45 14 45 C14.00523682 44.34402832 14.01047363 43.68805664 14.01586914 43.01220703 C14.03661272 40.04981437 14.04965176 37.08743697 14.0625 34.125 C14.07087891 33.09246094 14.07925781 32.05992188 14.08789062 30.99609375 C14.09111328 30.00996094 14.09433594 29.02382812 14.09765625 28.0078125 C14.10289307 27.09660645 14.10812988 26.18540039 14.11352539 25.24658203 C14.14885565 22.96312491 14.14885565 22.96312491 13 21 C12.34 21 11.68 21 11 21 C11.01160156 21.95261719 11.02320313 22.90523437 11.03515625 23.88671875 C11.04417969 25.14097656 11.05320313 26.39523438 11.0625 27.6875 C11.07410156 28.92886719 11.08570313 30.17023438 11.09765625 31.44921875 C11.01478673 34.46235454 10.70839449 37.08275339 10 40 C9.67 40 9.34 40 9 40 C9.01160156 38.71222656 9.02320313 37.42445312 9.03515625 36.09765625 C9.0445327 34.41927228 9.05363305 32.74088674 9.0625 31.0625 C9.07087891 30.21236328 9.07925781 29.36222656 9.08789062 28.48632812 C9.09111328 27.67744141 9.09433594 26.86855469 9.09765625 26.03515625 C9.10289307 25.2862915 9.10812988 24.53742676 9.11352539 23.76586914 C9.19341752 21.97332261 9.19341752 21.97332261 8 21 C7.92820036 19.48071962 7.91607993 17.95832518 7.9375 16.4375 C7.94652344 15.61121094 7.95554688 14.78492187 7.96484375 13.93359375 C7.97644531 13.29550781 7.98804688 12.65742187 8 12 C6.02 12 4.04 12 2 12 C-2.04893617 5.61985816 -2.04893617 5.61985816 -1.8125 2.625 C-1 1 -1 1 0 0 Z " fill="#402D56" transform="translate(152,51)"/>
<path d="M0 0 C0.2475 0.86625 0.495 1.7325 0.75 2.625 C2.25173905 6.67969543 3.9784662 10.9892331 8 13 C8 14.32 8 15.64 8 17 C5.36 17.66 2.72 18.32 0 19 C-0.70125 18.071875 -1.4025 17.14375 -2.125 16.1875 C-4.68060097 13.09157196 -7.29656691 11.59920974 -11 10 C-12 9 -12 9 -12.09765625 7.15234375 C-12.06510417 5.1015625 -12.03255208 3.05078125 -12 1 C-10.18755015 0.83278881 -8.37503867 0.66624559 -6.5625 0.5 C-5.55316406 0.4071875 -4.54382813 0.314375 -3.50390625 0.21875 C-1 0 -1 0 0 0 Z " fill="#C2574D" transform="translate(191,147)"/>
<path d="M0 0 C1.65 0 3.3 0 5 0 C6.05648755 7.71152724 6.11624053 15.28665821 6.0625 23.0625 C6.05798828 24.30966797 6.05347656 25.55683594 6.04882812 26.84179688 C6.03713163 29.89458221 6.02074086 32.94726498 6 36 C4.02 36 2.04 36 0 36 C0 24.12 0 12.24 0 0 Z " fill="#FECC34" transform="translate(52,122)"/>
<path d="M0 0 C3.08591106 2.89304162 2.93010092 6.08355413 3.09082031 10.20263672 C3.13465019 12.8859427 3.13633925 15.56637768 3.125 18.25 C3.13080078 19.61125 3.13080078 19.61125 3.13671875 21 C3.12896132 26.38365729 2.78587235 31.54853182 2 36.875 C1.34 36.545 0.68 36.215 0 35.875 C-0.04898438 34.63105469 -0.09796875 33.38710937 -0.1484375 32.10546875 C-0.53609974 23.19281848 -1.09895152 14.619823 -3 5.875 C-6.96 5.545 -10.92 5.215 -15 4.875 C-15 3.225 -15 1.575 -15 -0.125 C-9.95381669 -1.8070611 -4.99526967 -1.87322613 0 0 Z " fill="#342351" transform="translate(176,110.125)"/>
<path d="M0 0 C1.32 0.33 2.64 0.66 4 1 C4.33 2.65 4.66 4.3 5 6 C5.99 6.33 6.98 6.66 8 7 C8.103125 6.360625 8.20625 5.72125 8.3125 5.0625 C8.539375 4.381875 8.76625 3.70125 9 3 C9.99 2.67 10.98 2.34 12 2 C11.34 4.31 10.68 6.62 10 9 C9.01 9 8.02 9 7 9 C7 9.99 7 10.98 7 12 C6.01 12 5.02 12 4 12 C4 14.64 4 17.28 4 20 C2.35 20.66 0.7 21.32 -1 22 C-1 22.99 -1 23.98 -1 25 C-2.98 25.33 -4.96 25.66 -7 26 C-7 24.68 -7 23.36 -7 22 C-7.66 22 -8.32 22 -9 22 C-9 20.35 -9 18.7 -9 17 C-9.66 17 -10.32 17 -11 17 C-11 15.68 -11 14.36 -11 13 C-8.525 13.495 -8.525 13.495 -6 14 C-5.67 15.65 -5.34 17.3 -5 19 C-1.16434473 15.82566461 1.17071885 11.925121 2 7 C1.34 6.01 0.68 5.02 0 4 C0 2.68 0 1.36 0 0 Z " fill="#4CC6EA" transform="translate(12,66)"/>
<path d="M0 0 C0.66 0 1.32 0 2 0 C1.78114291 4.72731318 1.44536603 8.60224826 -1.0625 12.6875 C-4.23426223 18.30964894 -3.31582316 24.75371967 -3 31 C-4.65 31 -6.3 31 -8 31 C-8 21.76 -8 12.52 -8 3 C-5.36 3 -2.72 3 0 3 C0 2.01 0 1.02 0 0 Z " fill="#71DFE6" transform="translate(129,71)"/>
<path d="M0 0 C1.134375 0.020625 2.26875 0.04125 3.4375 0.0625 C3.69144531 0.83335938 3.94539062 1.60421875 4.20703125 2.3984375 C4.55121094 3.40132813 4.89539063 4.40421875 5.25 5.4375 C5.58644531 6.43523437 5.92289063 7.43296875 6.26953125 8.4609375 C7.2881575 11.3470709 7.2881575 11.3470709 10.4375 13.0625 C10.1075 14.3825 9.7775 15.7025 9.4375 17.0625 C6.27930297 17.63097547 3.57632939 17.80644333 0.4375 17.0625 C-2.89422694 14.08774381 -5.36270405 10.47337113 -5.73828125 5.94140625 C-5.13137074 1.15576766 -4.86242527 0.08530571 0 0 Z " fill="#C05146" transform="translate(156.5625,109.9375)"/>
<path d="M0 0 C5.28 0 10.56 0 16 0 C16 5 16 5 13.9375 7.125 C11 9 11 9 7.3125 10.4375 C3.82848552 11.67844863 3.82848552 11.67844863 2.5625 14.6875 C2.376875 15.450625 2.19125 16.21375 2 17 C1.67 17 1.34 17 1 17 C0.67 11.39 0.34 5.78 0 0 Z " fill="#6EE2EB" transform="translate(93,16)"/>
<path d="M0 0 C4.875 0.875 4.875 0.875 6 2 C6.37507238 7.53231757 6.25977941 11.27894016 3 16 C0.375 17.25 0.375 17.25 -2 18 C-2.33 18.66 -2.66 19.32 -3 20 C-4.30277115 15.11460818 -4.63261765 10.01164635 -4 5 C-2 1.875 -2 1.875 0 0 Z " fill="#32ACE4" transform="translate(125,18)"/>
<path d="M0 0 C0.99 0.33 1.98 0.66 3 1 C3 1.66 3 2.32 3 3 C3.66 3 4.32 3 5 3 C6.7041678 8.15946865 7.22225605 12.4425333 7.125 17.9375 C7.11146484 18.96327148 7.11146484 18.96327148 7.09765625 20.00976562 C7.07438958 21.67333287 7.03853167 23.33671631 7 25 C6.67 25 6.34 25 6 25 C5.67 23.35 5.34 21.7 5 20 C4.34 20 3.68 20 3 20 C3 23.63 3 27.26 3 31 C3.66 31.33 4.32 31.66 5 32 C4.34 32 3.68 32 3 32 C3 36.29 3 40.58 3 45 C2.67 45 2.34 45 2 45 C1.94465088 44.07251953 1.88930176 43.14503906 1.83227539 42.18945312 C1.62371724 38.71536482 1.41283956 35.24143285 1.20043945 31.76757812 C1.10935447 30.27023771 1.01916741 28.77284238 0.92993164 27.27539062 C0.80076119 25.11052273 0.66825458 22.94587955 0.53515625 20.78125 C0.456604 19.48251953 0.37805176 18.18378906 0.29711914 16.84570312 C0.08490855 14.09899712 -0.19257087 11.42566685 -0.56079102 8.70117188 C-0.95452414 5.38322072 -0.89395145 3.17849404 0 0 Z " fill="#E7B435" transform="translate(61,110)"/>
<path d="M0 0 C1.32 0 2.64 0 4 0 C4.33 2.64 4.66 5.28 5 8 C5.66 8 6.32 8 7 8 C7 8.99 7 9.98 7 11 C7.928125 11.2165625 7.928125 11.2165625 8.875 11.4375 C11 12 11 12 13 13 C12.85969405 16.01657791 12.70648535 18.23841273 10.59765625 20.51171875 C9.11095765 21.73256066 7.55865102 22.87246522 6 24 C6 22.35 6 20.7 6 19 C5.36578125 18.84789063 4.7315625 18.69578125 4.078125 18.5390625 C2 17 2 17 1.48242188 15.24121094 C1.15273513 12.95310198 0.92959013 10.67974005 0.75 8.375 C0.67265625 7.57320313 0.5953125 6.77140625 0.515625 5.9453125 C0.3270298 3.96506289 0.1613297 1.98265715 0 0 Z " fill="#3CBBF0" transform="translate(0,62)"/>
<path d="M0 0 C0.680625 0.309375 1.36125 0.61875 2.0625 0.9375 C5.36965912 2.13370649 8.51545878 2.59005397 12 3 C12 4.32 12 5.64 12 7 C11.01 7 10.02 7 9 7 C9 8.65 9 10.3 9 12 C6.69 12 4.38 12 2 12 C-2.04893617 5.61985816 -2.04893617 5.61985816 -1.8125 2.625 C-1 1 -1 1 0 0 Z " fill="#AB4745" transform="translate(152,51)"/>
<path d="M0 0 C1.32 0.66 2.64 1.32 4 2 C3.68793825 4.91257629 3.03930601 5.96069399 0.9375 8.0625 C-3.45556102 10.96005088 -7.65132471 13.24465368 -13 12.6875 C-13.66 12.460625 -14.32 12.23375 -15 12 C-15 11.01 -15 10.02 -15 9 C-14.12988281 8.77957031 -14.12988281 8.77957031 -13.2421875 8.5546875 C-7.23781543 6.83065987 -4.08828599 4.71725306 0 0 Z " fill="#FECC34" transform="translate(89,106)"/>
<path d="M0 0 C5.445 0.495 5.445 0.495 11 1 C11 2.98 11 4.96 11 7 C10.67 5.68 10.34 4.36 10 3 C7.69 3.33 5.38 3.66 3 4 C2.34 5.98 1.68 7.96 1 10 C-0.79458945 9.77192509 -2.58575449 9.51677697 -4.375 9.25 C-5.37273437 9.11078125 -6.37046875 8.9715625 -7.3984375 8.828125 C-10 8 -10 8 -11.2265625 6.046875 C-11.48179687 5.37140625 -11.73703125 4.6959375 -12 4 C-12.66 3.34 -13.32 2.68 -14 2 C-9.17639811 1.80705592 -5.50353262 2.24252386 -1 4 C-0.67 2.68 -0.34 1.36 0 0 Z " fill="#8C3C47" transform="translate(150,107)"/>
<path d="M0 0 C2.42333886 4.29502335 2.57055483 8.1329547 3 13 C-1.62 13 -6.24 13 -11 13 C-7.57360692 8.29866997 -4.23473064 3.98562883 0 0 Z " fill="#6EE2EB" transform="translate(97,148)"/>
<path d="M0 0 C2.64 0 5.28 0 8 0 C7.33333333 4.66666667 6.66666667 9.33333333 6 14 C4.35 14 2.7 14 1 14 C-0.20568053 9.32798795 -0.09382426 4.78503708 0 0 Z " fill="#AA5353" transform="translate(5,97)"/>
<path d="M0 0 C6.38197767 0.48165869 6.38197767 0.48165869 8.9375 2.625 C10.37148358 5.83037505 10.20006114 8.53227365 10 12 C3.61330935 10.55395683 3.61330935 10.55395683 1.0625 8.25 C-0.29308997 5.37933889 -0.21379515 3.13566218 0 0 Z " fill="#34AAE1" transform="translate(107,45)"/>
<path d="M0 0 C0.33 0 0.66 0 1 0 C1.09377123 7.41834582 1.17402193 14.66236293 0 22 C-0.33 22 -0.66 22 -1 22 C-1.33 19.03 -1.66 16.06 -2 13 C-2.33 14.98 -2.66 16.96 -3 19 C-5.31 19 -7.62 19 -10 19 C-9.88590318 16.89521396 -9.75834639 14.79115423 -9.625 12.6875 C-9.55539063 11.51574219 -9.48578125 10.34398437 -9.4140625 9.13671875 C-9 6 -9 6 -7 3 C-7.33 7.95 -7.66 12.9 -8 18 C-6.68 18 -5.36 18 -4 18 C-4.0928125 16.2984375 -4.0928125 16.2984375 -4.1875 14.5625 C-4.20488933 9.69348829 -2.88402945 5.46114746 -1 1 C-0.67 0.67 -0.34 0.34 0 0 Z " fill="#DEA138" transform="translate(46,127)"/>
<path d="M0 0 C2.31 0 4.62 0 7 0 C7 0.66 7 1.32 7 2 C9.97 2.495 9.97 2.495 13 3 C12.67 3.99 12.34 4.98 12 6 C12 5.34 12 4.68 12 4 C11.34 4 10.68 4 10 4 C9.34 5.32 8.68 6.64 8 8 C8 6.35 8 4.7 8 3 C7.01 3.495 7.01 3.495 6 4 C5.53248212 6.35599235 5.53248212 6.35599235 5.375 9.0625 C5.30023438 9.98160156 5.22546875 10.90070313 5.1484375 11.84765625 C5.09945312 12.55792969 5.05046875 13.26820312 5 14 C5.66 14.33 6.32 14.66 7 15 C4.69 15 2.38 15 0 15 C0 19.29 0 23.58 0 28 C-0.33 28 -0.66 28 -1 28 C-1 20.41 -1 12.82 -1 5 C-0.67 5 -0.34 5 0 5 C0 7.97 0 10.94 0 14 C1.32 14 2.64 14 4 14 C4 11.03 4 8.06 4 5 C3.01 4.67 2.02 4.34 1 4 C0.3125 1.9375 0.3125 1.9375 0 0 Z " fill="#DDA338" transform="translate(52,107)"/>
<path d="M0 0 C0.33 0 0.66 0 1 0 C1 2.31 1 4.62 1 7 C1.66 7.33 2.32 7.66 3 8 C1.7934375 8.6496875 1.7934375 8.6496875 0.5625 9.3125 C-2.27846354 10.80474002 -2.27846354 10.80474002 -3 14 C-3.66 14 -4.32 14 -5 14 C-5 15.32 -5 16.64 -5 18 C-6.98 18 -8.96 18 -11 18 C-11.33 18.99 -11.66 19.98 -12 21 C-12 17.04 -12 13.08 -12 9 C-11.01 10.485 -11.01 10.485 -10 12 C-8.01508358 11.73323796 -8.01508358 11.73323796 -6 11 C-5.67 10.01 -5.34 9.02 -5 8 C-2.9375 7.3125 -2.9375 7.3125 -1 7 C-0.67 4.69 -0.34 2.38 0 0 Z " fill="#4FADD4" transform="translate(16,79)"/>
<path d="M0 0 C7.48291572 6.15034169 7.48291572 6.15034169 10 10 C9.01 10.99 8.02 11.98 7 13 C7 12.34 7 11.68 7 11 C6.01 11 5.02 11 4 11 C3.67 11.66 3.34 12.32 3 13 C2.62875 12.0409375 2.62875 12.0409375 2.25 11.0625 C1.18437567 8.81258459 1.18437567 8.81258459 -1.125 8.25 C-1.74375 8.1675 -2.3625 8.085 -3 8 C-3 4.72224847 -2.36665159 2.36665159 0 0 Z " fill="#EBB63B" transform="translate(90,98)"/>
<path d="M0 0 C0.33 0 0.66 0 1 0 C1 9.24 1 18.48 1 28 C2.65 28 4.3 28 6 28 C6 28.33 6 28.66 6 29 C-1.92 29 -9.84 29 -18 29 C-16.68 25.7 -15.36 22.4 -14 19 C-13.67 19 -13.34 19 -13 19 C-13.33 21.97 -13.66 24.94 -14 28 C-9.38 28 -4.76 28 0 28 C0 18.76 0 9.52 0 0 Z " fill="#61ADBE" transform="translate(120,74)"/>
<path d="M0 0 C1.0725 0.28875 2.145 0.5775 3.25 0.875 C3.58 1.535 3.91 2.195 4.25 2.875 C1.16190305 4.63962683 0.01687864 4.875 -3.75 4.875 C-3.42 6.525 -3.09 8.175 -2.75 9.875 C-4.4 9.875 -6.05 9.875 -7.75 9.875 C-8.08 7.895 -8.41 5.915 -8.75 3.875 C-5.65972802 0.78472802 -4.46829353 -0.14894312 0 0 Z " fill="#341E4E" transform="translate(57.75,88.125)"/>
<path d="M0 0 C0.66 0.33 1.32 0.66 2 1 C2.28629777 6.53509023 2.26719764 10.26819653 -1 15 C-3.61328125 16.1640625 -3.61328125 16.1640625 -6 17 C-5.57312017 15.10174715 -5.13300518 13.20646817 -4.6875 11.3125 C-4.44386719 10.25675781 -4.20023437 9.20101563 -3.94921875 8.11328125 C-3.00739175 5.02424372 -1.77627063 2.68182036 0 0 Z " fill="#31B8F3" transform="translate(129,19)"/>
<path d="M0 0 C1.17546556 3.52639669 0.54155595 4.91477744 -0.96484375 8.21484375 C-2.54329973 10.93693575 -4.66812199 12.92021691 -7 15 C-7.66 14.67 -8.32 14.34 -9 14 C-9.28125 11.80078125 -9.28125 11.80078125 -9 9 C-7.03125 6.54296875 -7.03125 6.54296875 -4.5 4.1875 C-3.6646875 3.39730469 -2.829375 2.60710937 -1.96875 1.79296875 C-1.3190625 1.20128906 -0.669375 0.60960938 0 0 Z " fill="#2F1042" transform="translate(148,95)"/>
<path d="M0 0 C2.97 0 5.94 0 9 0 C9 2.31 9 4.62 9 7 C6.03 7 3.06 7 0 7 C0 4.69 0 2.38 0 0 Z " fill="#33BAF3" transform="translate(111,63)"/>
<path d="M0 0 C0.99 0.33 1.98 0.66 3 1 C3 1.66 3 2.32 3 3 C2.34 3 1.68 3 1 3 C1 3.66 1 4.32 1 5 C1.66 5 2.32 5 3 5 C3 5.66 3 6.32 3 7 C3.61875 7.12375 4.2375 7.2475 4.875 7.375 C7 8 7 8 9 10 C4.78121808 10.19622241 1.82989106 9.80230168 -2 8 C-2.33 9.65 -2.66 11.3 -3 13 C-3.66 13 -4.32 13 -5 13 C-5.64165788 7.73840541 -4.20577001 5.31407151 -1.09375 1.3203125 C-0.55234375 0.66675781 -0.55234375 0.66675781 0 0 Z " fill="#371B49" transform="translate(154,44)"/>
<path d="M0 0 C0.33 0 0.66 0 1 0 C2.99888809 9.42332955 3.21867122 18.42706002 3 28 C2.34 28 1.68 28 1 28 C0.07840421 21.78829926 -0.12177385 15.77390894 -0.0625 9.5 C-0.05798828 8.5821875 -0.05347656 7.664375 -0.04882812 6.71875 C-0.03716326 4.47909609 -0.02079614 2.23958455 0 0 Z " fill="#331647" transform="translate(189,119)"/>
<path d="M0 0 C2.64 0 5.28 0 8 0 C8 2.31 8 4.62 8 7 C5.36 7 2.72 7 0 7 C0 4.69 0 2.38 0 0 Z " fill="#30B8F4" transform="translate(121,63)"/>
<path d="M0 0 C5.1154241 3.36156441 7.3265957 7.67594378 10 13 C5.68499154 12.30702679 3.86243327 11.37358206 1 8 C-0.35439668 5.29120665 -0.06501451 2.99066732 0 0 Z " fill="#32B8F2" transform="translate(106,32)"/>
<path d="M0 0 C0.66 2.64 1.32 5.28 2 8 C-1.37817425 8.84454356 -3.67465243 9.10844919 -7 8 C-7 5.69 -7 3.38 -7 1 C-4 0 -4 0 0 0 Z " fill="#AC4948" transform="translate(54,175)"/>
<path d="M0 0 C1.32 0.33 2.64 0.66 4 1 C3.8125 3.8125 3.8125 3.8125 3 7 C-1 10 -1 10 -3 10 C-3.36923077 4.58461538 -3.36923077 4.58461538 -1.5 1.625 C-1.005 1.08875 -0.51 0.5525 0 0 Z " fill="#3AB3E5" transform="translate(126,48)"/>
<path d="M0 0 C0.99 0.33 1.98 0.66 3 1 C2.34 1 1.68 1 1 1 C1 1.99 1 2.98 1 4 C5.32564205 5.58255197 9.428721 6.45144652 14 7 C11.03821227 8.67110042 8.62928808 9.32682752 5.25 9.625 C4.45078125 9.69976562 3.6515625 9.77453125 2.828125 9.8515625 C2.22484375 9.90054688 1.6215625 9.94953125 1 10 C0.63883954 8.5225254 0.28624952 7.04295325 -0.0625 5.5625 C-0.25972656 4.73878906 -0.45695312 3.91507812 -0.66015625 3.06640625 C-0.82837891 2.04353516 -0.82837891 2.04353516 -1 1 C-0.67 0.67 -0.34 0.34 0 0 Z " fill="#ECB33B" transform="translate(73,114)"/>
<path d="M0 0 C0.66 0 1.32 0 2 0 C1.72433285 3.95122922 1.17285643 5.78042562 -1.3125 8.9375 C-2.199375 9.618125 -3.08625 10.29875 -4 11 C-6.16796875 10.62890625 -6.16796875 10.62890625 -8 10 C-6.85500893 8.52018126 -5.708983 7.04116318 -4.5625 5.5625 C-3.60537109 4.32693359 -3.60537109 4.32693359 -2.62890625 3.06640625 C-1 1 -1 1 0 0 Z " fill="#39BEF2" transform="translate(144,59)"/>
<path d="M0 0 C0.66 1.32 1.32 2.64 2 4 C1.57847656 4.55429688 1.15695313 5.10859375 0.72265625 5.6796875 C0.17480469 6.40414062 -0.37304688 7.12859375 -0.9375 7.875 C-1.75541016 8.95394531 -1.75541016 8.95394531 -2.58984375 10.0546875 C-4.03964624 11.94357079 -4.03964624 11.94357079 -5 14 C-6.32 14 -7.64 14 -9 14 C-8.49396008 11.83125748 -8.00016187 10.00032373 -7 8 C-5.35 8 -3.7 8 -2 8 C-1.7834375 6.576875 -1.7834375 6.576875 -1.5625 5.125 C-1 2 -1 2 0 0 Z " fill="#3087BF" transform="translate(147,77)"/>
<path d="M0 0 C1.98 0 3.96 0 6 0 C6 0.66 6 1.32 6 2 C7.32 2 8.64 2 10 2 C10 2.66 10 3.32 10 4 C6.77626323 6.14915785 5.73296326 6.38286803 2 6 C1.34 5.34 0.68 4.68 0 4 C0 2.68 0 1.36 0 0 Z " fill="#3FC2F0" transform="translate(22,96)"/>
<path d="M0 0 C1.31225809 3.93677426 0.3393954 5.7794262 -0.9375 9.6875 C-1.50791016 11.45673828 -1.50791016 11.45673828 -2.08984375 13.26171875 C-2.39019531 14.16535156 -2.69054687 15.06898437 -3 16 C-3.99 16 -4.98 16 -6 16 C-5.01 13.69 -4.02 11.38 -3 9 C-3.33 8.67 -3.66 8.34 -4 8 C-6.31 9.98 -8.62 11.96 -11 14 C-9.26242287 10.52484574 -8.19925502 8.993786 -5.5 6.4375 C-3.27903267 4.32475777 -1.72257583 2.58386374 0 0 Z " fill="#37406D" transform="translate(151,89)"/>
<path d="M0 0 C7.42857143 -0.14285714 7.42857143 -0.14285714 11 1 C11.33 2.65 11.66 4.3 12 6 C9.36 6 6.72 6 4 6 C3.71125 5.38125 3.4225 4.7625 3.125 4.125 C2.06279958 1.86674235 2.06279958 1.86674235 0 0 Z " fill="#9E4144" transform="translate(136,109)"/>
<path d="M0 0 C5 4 5 4 5.48828125 6.359375 C5.43027344 7.14828125 5.37226562 7.9371875 5.3125 8.75 C5.26738281 9.54921875 5.22226562 10.3484375 5.17578125 11.171875 C5.11777344 11.77515625 5.05976562 12.3784375 5 13 C3.68 13 2.36 13 1 13 C0.67 8.71 0.34 4.42 0 0 Z " fill="#FECC34" transform="translate(51,108)"/>
<path d="M0 0 C0.33 0.99 0.66 1.98 1 3 C2.93618425 3.67156616 2.93618425 3.67156616 5 4 C5.66 4.33 6.32 4.66 7 5 C6.85969405 8.01657791 6.70648535 10.23841273 4.59765625 12.51171875 C3.11095765 13.73256066 1.55865102 14.87246522 0 16 C0.28151087 14.68528432 0.57553339 13.37324233 0.875 12.0625 C1.03742187 11.33160156 1.19984375 10.60070312 1.3671875 9.84765625 C2 8 2 8 4 7 C2.35 5.68 0.7 4.36 -1 3 C-0.67 2.01 -0.34 1.02 0 0 Z " fill="#409CC7" transform="translate(6,70)"/>
<path d="M0 0 C1.13199353 0.9080162 2.25532363 1.82683826 3.375 2.75 C4.00148438 3.26046875 4.62796875 3.7709375 5.2734375 4.296875 C7.08312318 6.08199481 8.00117455 7.67949644 9 10 C3.55263158 9.51578947 3.55263158 9.51578947 1.125 7.25 C-0.18152386 4.63695229 -0.24038873 2.88466476 0 0 Z " fill="#33B9F3" transform="translate(107,46)"/>
<path d="M0 0 C4.29 0 8.58 0 13 0 C13 0.99 13 1.98 13 3 C9.04 3 5.08 3 1 3 C0.67 2.01 0.34 1.02 0 0 Z " fill="#30B8F3" transform="translate(76,129)"/>
<path d="M0 0 C0.33 0 0.66 0 1 0 C1 1.65 1 3.3 1 5 C3.64 5 6.28 5 9 5 C9.33 5.66 9.66 6.32 10 7 C4.39 7 -1.22 7 -7 7 C-4 5 -4 5 -1 4 C-0.26676204 1.98491642 -0.26676204 1.98491642 0 0 Z " fill="#40678E" transform="translate(119,53)"/>
<path d="M0 0 C0.99 0.33 1.98 0.66 3 1 C3 1.66 3 2.32 3 3 C2.01 3.495 2.01 3.495 1 4 C1.33 5.98 1.66 7.96 2 10 C1.01 10 0.02 10 -1 10 C-1.66 7.36 -2.32 4.72 -3 2 C-2.01 2 -1.02 2 0 2 C0 1.34 0 0.68 0 0 Z " fill="#BE635F" transform="translate(56,171)"/>
<path d="M0 0 C0.33 1.32 0.66 2.64 1 4 C-1.64 4.33 -4.28 4.66 -7 5 C-7.33 3.68 -7.66 2.36 -8 1 C-5.29120665 -0.35439668 -2.99066732 -0.06501451 0 0 Z " fill="#FCC734" transform="translate(42,146)"/>
<path d="M0 0 C1.79623856 0.39649413 3.58698435 0.81793452 5.375 1.25 C6.37273437 1.48203125 7.37046875 1.7140625 8.3984375 1.953125 C11 3 11 3 12.3515625 5.109375 C12.56554687 5.73328125 12.77953125 6.3571875 13 7 C10.6875 7.1875 10.6875 7.1875 8 7 C6.5 5.625 6.5 5.625 5 4 C2.40084462 2.80972016 2.40084462 2.80972016 0 2 C0 1.34 0 0.68 0 0 Z " fill="#74354A" transform="translate(132,78)"/>
<path d="M0 0 C-0.33 1.32 -0.66 2.64 -1 4 C-3.97 4 -6.94 4 -10 4 C-9.67 3.01 -9.34 2.02 -9 1 C-5.846632 0.29925156 -3.27275026 0 0 0 Z " fill="#9F484D" transform="translate(167,123)"/>
<path d="M0 0 C2.475 0.495 2.475 0.495 5 1 C5.33 2.32 5.66 3.64 6 5 C5.01 5.33 4.02 5.66 3 6 C2.67 6.99 2.34 7.98 2 9 C2 7.35 2 5.7 2 4 C1.34 4 0.68 4 0 4 C0 2.68 0 1.36 0 0 Z " fill="#6DD0E3" transform="translate(1,79)"/>
<path d="M0 0 C0.103125 0.639375 0.20625 1.27875 0.3125 1.9375 C0.6528125 2.9584375 0.6528125 2.9584375 1 4 C1.99 4.33 2.98 4.66 4 5 C-1.15171623 5.09038099 -5.91913204 4.84681133 -11 4 C-10.34 3.67 -9.68 3.34 -9 3 C-8.67 2.34 -8.34 1.68 -8 1 C-5.03 1.495 -5.03 1.495 -2 2 C-2 2.66 -2 3.32 -2 4 C-1.34 4 -0.68 4 0 4 C0 2.68 0 1.36 0 0 Z " fill="#AA504F" transform="translate(142,111)"/>
<path d="M0 0 C-0.33 3.3 -0.66 6.6 -1 10 C-3.40785992 6.7895201 -4.68197635 4.64991166 -6 1 C-1.125 0 -1.125 0 0 0 Z " fill="#BF4F45" transform="translate(12,99)"/>
<path d="M0 0 C0.33 0.99 0.66 1.98 1 3 C2.32 2.67 3.64 2.34 5 2 C5 2.99 5 3.98 5 5 C1.04 5 -2.92 5 -7 5 C-7 4.34 -7 3.68 -7 3 C-4.69 3 -2.38 3 0 3 C0 2.01 0 1.02 0 0 Z " fill="#F1B137" transform="translate(77,156)"/>
<path d="M0 0 C1.32 0 2.64 0 4 0 C4.99 1.98 5.98 3.96 7 6 C5.02 6.33 3.04 6.66 1 7 C0.67 4.69 0.34 2.38 0 0 Z " fill="#34B5EE" transform="translate(4,85)"/>
<path d="M0 0 C3.3 0 6.6 0 10 0 C10 0.66 10 1.32 10 2 C6.78548731 3.60725635 3.56387464 3.05748185 0 3 C0 2.01 0 1.02 0 0 Z " fill="#903A43" transform="translate(180,148)"/>
<path d="M0 0 C4.455 0.99 4.455 0.99 9 2 C8.34 3.65 7.68 5.3 7 7 C5.82780457 6.21654285 4.66236332 5.42297164 3.5 4.625 C2.8503125 4.18414062 2.200625 3.74328125 1.53125 3.2890625 C1.0259375 2.86367187 0.520625 2.43828125 0 2 C0 1.34 0 0.68 0 0 Z " fill="#A44B46" transform="translate(93,100)"/>
<path d="M0 0 C1.98 0 3.96 0 6 0 C5.67 1.65 5.34 3.3 5 5 C2.03 4.505 2.03 4.505 -1 4 C-0.67 2.68 -0.34 1.36 0 0 Z " fill="#342251" transform="translate(144,106)"/>
<path d="M0 0 C0.99 1.32 1.98 2.64 3 4 C2.25 5.9375 2.25 5.9375 1 8 C-1.125 8.75 -1.125 8.75 -3 9 C-2.67 8.01 -2.34 7.02 -2 6 C-2 4.68 -2 3.36 -2 2 C-1.34 1.34 -0.68 0.68 0 0 Z " fill="#E8B438" transform="translate(90,98)"/>
<path d="M0 0 C-0.6875 1.9375 -0.6875 1.9375 -2 4 C-4.625 4.75 -4.625 4.75 -7 5 C-7 3.68 -7 2.36 -7 1 C-4.53721199 -0.231394 -2.7204945 -0.07159196 0 0 Z " fill="#62CEDE" transform="translate(28,83)"/>
<path d="M0 0 C0.66 0 1.32 0 2 0 C2 0.99 2 1.98 2 3 C2.66 3 3.32 3 4 3 C4 3.99 4 4.98 4 6 C4.66 6 5.32 6 6 6 C5.67 6.99 5.34 7.98 5 9 C4.38125 8.649375 3.7625 8.29875 3.125 7.9375 C2.073125 7.4734375 2.073125 7.4734375 1 7 C0.01 7.495 0.01 7.495 -1 8 C-1.125 2.25 -1.125 2.25 0 0 Z " fill="#AD6862" transform="translate(108,68)"/>
<path d="M0 0 C0.33 0 0.66 0 1 0 C1 2.31 1 4.62 1 7 C1.66 7.33 2.32 7.66 3 8 C-0.44069624 10.29379749 -1.72290301 11 -6 11 C-5.67 10.01 -5.34 9.02 -5 8 C-2.9375 7.3125 -2.9375 7.3125 -1 7 C-0.67 4.69 -0.34 2.38 0 0 Z " fill="#3F9CC8" transform="translate(16,79)"/>
<path d="M0 0 C2.64 0 5.28 0 8 0 C8 0.99 8 1.98 8 3 C3.545 3.495 3.545 3.495 -1 4 C-0.67 2.68 -0.34 1.36 0 0 Z " fill="#3ABAEE" transform="translate(112,71)"/>
<path d="M0 0 C1.32 0.33 2.64 0.66 4 1 C4.33 2.65 4.66 4.3 5 6 C4.01 6.495 4.01 6.495 3 7 C1.5 5.75 1.5 5.75 0 4 C0 2.68 0 1.36 0 0 Z " fill="#5FCBDE" transform="translate(12,66)"/>
<path d="M0 0 C0.99 0 1.98 0 3 0 C3.66 1.65 4.32 3.3 5 5 C3.02 5.33 1.04 5.66 -1 6 C-1 2 -1 2 0 0 Z " fill="#9C4246" transform="translate(60,91)"/>
<path d="M0 0 C0.66 0 1.32 0 2 0 C2 1.65 2 3.3 2 5 C-0.97 5 -3.94 5 -7 5 C-7 4.34 -7 3.68 -7 3 C-4.69 3 -2.38 3 0 3 C0 2.01 0 1.02 0 0 Z " fill="#30B8F4" transform="translate(83,123)"/>
<path d="M0 0 C-1.20381448 2.49361571 -2.45428722 4.68143083 -4 7 C-4.99 6.67 -5.98 6.34 -7 6 C-7 4.68 -7 3.36 -7 2 C-2.25 0 -2.25 0 0 0 Z " fill="#8D3E48" transform="translate(175,83)"/>
<path d="M0 0 C2.64 0 5.28 0 8 0 C8 0.99 8 1.98 8 3 C5.36 3 2.72 3 0 3 C0 2.01 0 1.02 0 0 Z " fill="#35BBF3" transform="translate(121,71)"/>
<path d="M0 0 C-2.68841859 2.25245881 -4.64641875 3.88213958 -8 5 C-8.33 3.68 -8.66 2.36 -9 1 C-6.04335481 -0.4783226 -3.25770263 -0.06032783 0 0 Z " fill="#A84A45" transform="translate(40,151)"/>
<path d="M0 0 C0 0.99 0 1.98 0 3 C-2.31 3 -4.62 3 -7 3 C-7.33 3.99 -7.66 4.98 -8 6 C-8 4.35 -8 2.7 -8 1 C-5.10765685 0.17361624 -3.11257569 0 0 0 Z " fill="#59BED1" transform="translate(83,123)"/>
<path d="M0 0 C0 3 0 3 -1 7 C-3.97 7 -6.94 7 -10 7 C-9.67 6.34 -9.34 5.68 -9 5 C-7.02 5 -5.04 5 -3 5 C-2.814375 4.0409375 -2.814375 4.0409375 -2.625 3.0625 C-2.41875 2.381875 -2.2125 1.70125 -2 1 C-1.34 0.67 -0.68 0.34 0 0 Z " fill="#49A2C6" transform="translate(23,68)"/>
<path d="M0 0 C2.9719385 1.12451727 5.33440687 2.22293791 8 4 C2.58461538 5.23076923 2.58461538 5.23076923 -0.375 4.0625 C-0.91125 3.711875 -1.4475 3.36125 -2 3 C-1.34 2.01 -0.68 1.02 0 0 Z " fill="#933B43" transform="translate(152,51)"/>
<path d="M0 0 C1.32 0 2.64 0 4 0 C3.34 1.65 2.68 3.3 2 5 C0.68 5 -0.64 5 -2 5 C-1.125 1.125 -1.125 1.125 0 0 Z " fill="#39B2E7" transform="translate(140,86)"/>
<path d="M0 0 C0.33 0.66 0.66 1.32 1 2 C2.65 1.34 4.3 0.68 6 0 C6 1.65 6 3.3 6 5 C3.525 4.01 3.525 4.01 1 3 C0.67 4.32 0.34 5.64 0 7 C-0.66 5.35 -1.32 3.7 -2 2 C-1.34 2 -0.68 2 0 2 C0 1.34 0 0.68 0 0 Z " fill="#9E4144" transform="translate(104,74)"/>
<path d="M0 0 C0 0.99 0 1.98 0 3 C-2.31 3.33 -4.62 3.66 -7 4 C-7 3.01 -7 2.02 -7 1 C-4 0 -4 0 0 0 Z " fill="#92404A" transform="translate(199,161)"/>
<path d="M0 0 C0.99 0.33 1.98 0.66 3 1 C2.34 1 1.68 1 1 1 C1 1.99 1 2.98 1 4 C2.32 4.66 3.64 5.32 5 6 C3.68 6.99 2.36 7.98 1 9 C0.63877119 7.68942607 0.28619689 6.37646376 -0.0625 5.0625 C-0.35833984 3.96615234 -0.35833984 3.96615234 -0.66015625 2.84765625 C-0.77230469 2.23792969 -0.88445312 1.62820312 -1 1 C-0.67 0.67 -0.34 0.34 0 0 Z " fill="#DEA337" transform="translate(73,114)"/>
<path d="M0 0 C2.3129482 2.3129482 2.49580975 3.47904875 3.125 6.625 C3.29257813 7.44226563 3.46015625 8.25953125 3.6328125 9.1015625 C3.81457031 10.04128906 3.81457031 10.04128906 4 11 C1 9 1 9 0.48828125 6.8359375 C0.43027344 6.02382812 0.37226562 5.21171875 0.3125 4.375 C0.24675781 3.55773437 0.18101563 2.74046875 0.11328125 1.8984375 C0.07589844 1.27195312 0.03851563 0.64546875 0 0 Z " fill="#411D46" transform="translate(126,102)"/>
<path d="M0 0 C0.66 0 1.32 0 2 0 C2 0.66 2 1.32 2 2 C2.66 2 3.32 2 4 2 C3.67 3.65 3.34 5.3 3 7 C2.34 7 1.68 7 1 7 C-0.0625 4.625 -0.0625 4.625 -1 2 C-0.67 1.34 -0.34 0.68 0 0 Z " fill="#B95A51" transform="translate(104,69)"/>
<path d="M0 0 C0.66 0.66 1.32 1.32 2 2 C1.8125 4.0625 1.8125 4.0625 1 6 C0.01 6.33 -0.98 6.66 -2 7 C-1.125 1.125 -1.125 1.125 0 0 Z " fill="#5ECADE" transform="translate(25,104)"/>
<path d="M0 0 C0.66 0 1.32 0 2 0 C2.33 2.31 2.66 4.62 3 7 C2.01 7 1.02 7 0 7 C0 4.69 0 2.38 0 0 Z " fill="#33A2DA" transform="translate(167,91)"/>
<path d="M0 0 C1.32 0.66 2.64 1.32 4 2 C3.67 2.99 3.34 3.98 3 5 C0.525 4.01 0.525 4.01 -2 3 C-1.34 2.01 -0.68 1.02 0 0 Z " fill="#FECC34" transform="translate(92,102)"/>
<path d="M0 0 C1.32 0 2.64 0 4 0 C3.25 1.9375 3.25 1.9375 2 4 C-0.125 4.75 -0.125 4.75 -2 5 C-1.34 3.35 -0.68 1.7 0 0 Z " fill="#66D0DD" transform="translate(17,99)"/>
<path d="M0 0 C0.99 0.33 1.98 0.66 3 1 C3 1.66 3 2.32 3 3 C2.34 3 1.68 3 1 3 C1 3.66 1 4.32 1 5 C1.66 5.33 2.32 5.66 3 6 C1.68 6 0.36 6 -1 6 C-1.625 4.125 -1.625 4.125 -2 2 C-1.34 1.34 -0.68 0.68 0 0 Z " fill="#372553" transform="translate(154,44)"/>
<path d="M0 0 C0.66 0 1.32 0 2 0 C3.125 3.75 3.125 3.75 2 6 C1.01 5.67 0.02 5.34 -1 5 C-0.67 3.35 -0.34 1.7 0 0 Z " fill="#BD6461" transform="translate(51,178)"/>
<path d="M0 0 C0.99 0 1.98 0 3 0 C2.67 1.65 2.34 3.3 2 5 C1.01 5.33 0.02 5.66 -1 6 C-1.042721 4.33388095 -1.04063832 2.66617115 -1 1 C-0.67 0.67 -0.34 0.34 0 0 Z " fill="#5ECFE3" transform="translate(28,111)"/>
<path d="M0 0 C1.65 0 3.3 0 5 0 C5 0.66 5 1.32 5 2 C2 4 2 4 -1 4 C-0.67 2.68 -0.34 1.36 0 0 Z " fill="#60C9DB" transform="translate(27,98)"/>
</svg>
