<?xml version="1.0" encoding="UTF-8"?>
<svg version="1.1" xmlns="http://www.w3.org/2000/svg" width="200" height="200">
<path d="M0 0 C66 0 132 0 200 0 C200 66 200 132 200 200 C134 200 68 200 0 200 C0 134 0 68 0 0 Z " fill="none" transform="translate(0,0)"/>
<path d="M0 0 C0.99 0.33 1.98 0.66 3 1 C4.34689394 5.2533493 5.64092699 9.5135111 5 14 C3.625 15.8125 3.625 15.8125 2 17 C1.34 17 0.68 17 0 17 C0.474375 17.763125 0.94875 18.52625 1.4375 19.3125 C3 22 3 22 4 25 C4.99 25.309375 5.98 25.61875 7 25.9375 C10 27 10 27 10.9375 28.875 C11.00496376 31.16876791 10.81447704 32.85274235 10 35 C9.01 35.495 9.01 35.495 8 36 C8 36.66 8 37.32 8 38 C6.68 38 5.36 38 4 38 C4 39.32 4 40.64 4 42 C5.98 42 7.96 42 10 42 C10.96799592 46.84332905 11.13122086 51.54138016 11.09765625 56.4609375 C11.0962413 57.25150543 11.09482635 58.04207336 11.09336853 58.8565979 C11.08780504 61.36277166 11.07525944 63.86885358 11.0625 66.375 C11.05748028 68.08202995 11.0529182 69.78906132 11.04882812 71.49609375 C11.03870171 75.6641257 11.01911945 79.83196096 11 84 C21.56 84 32.12 84 43 84 C43.99 88.455 43.99 88.455 45 93 C43.824375 93.4021875 43.824375 93.4021875 42.625 93.8125 C39.71885077 94.84814432 39.71885077 94.84814432 38 98 C37.55551064 100.78903194 37.55551064 100.78903194 37.40234375 103.953125 C37.32306641 105.13003906 37.24378906 106.30695313 37.16210938 107.51953125 C37.08798828 108.75058594 37.01386719 109.98164062 36.9375 111.25 C36.78211093 113.67201474 36.62461978 116.0938957 36.46484375 118.515625 C36.399021 119.59102539 36.33319824 120.66642578 36.26538086 121.77441406 C35.9826609 125.21074902 35.48853432 128.58735371 35 132 C34.62637014 136.24286333 34.34880589 140.4911124 34.07006836 144.74121094 C33.9387254 146.73143167 33.80044974 148.72119092 33.66210938 150.7109375 C31.84009206 163.86807871 31.84009206 163.86807871 35 176 C36.98602407 176.45951966 36.98602407 176.45951966 39.31369019 176.39440918 C40.67223618 176.41143387 40.67223618 176.41143387 42.05822754 176.42880249 C43.05463257 176.42587189 44.0510376 176.42294128 45.07763672 176.41992188 C46.12488922 176.42839142 47.17214172 176.43686096 48.25112915 176.44558716 C51.72743741 176.46906585 55.20330581 176.46997663 58.6796875 176.46875 C61.08863504 176.47584561 63.49758088 176.48354371 65.90652466 176.49182129 C70.96230768 176.50529156 76.01793449 176.50682368 81.07373047 176.50097656 C87.55969976 176.49508189 94.04492015 176.5256516 100.53074455 176.56609344 C105.50810805 176.59191781 110.48529007 176.59485254 115.46271133 176.59120178 C117.8541769 176.59289833 120.24565037 176.60259191 122.63705063 176.62034607 C125.97973743 176.64242805 129.32089361 176.63288695 132.66357422 176.61523438 C133.65593079 176.62849762 134.64828735 176.64176086 135.67071533 176.65542603 C141.1613692 176.65423875 141.1613692 176.65423875 145.60716248 173.66893005 C147.36362904 170.30322062 147.61957304 167.73112908 147.79296875 163.94140625 C147.84750969 162.94124733 147.84750969 162.94124733 147.90315247 161.92088318 C148.01537272 159.80186783 148.1023229 157.68275831 148.1875 155.5625 C148.28865916 153.44636621 148.39505094 151.3305756 148.50398254 149.21482849 C148.60038244 147.29281654 148.6837341 145.37016321 148.76635742 143.44750977 C148.98433416 140.23115706 149.46344849 137.17528302 150 134 C150.20669527 131.54649146 150.3828329 129.09029591 150.53515625 126.6328125 C150.57813339 125.95322479 150.62111053 125.27363708 150.66539001 124.57345581 C150.80065225 122.42413967 150.93164501 120.2745885 151.0625 118.125 C151.15401374 116.65883647 151.24580785 115.1926904 151.33789062 113.7265625 C151.56183545 110.1512379 151.78195465 106.5756898 152 103 C152.33 103 152.66 103 153 103 C153 132.04 153 161.08 153 191 C87 191 21 191 -47 191 C-47 131.27 -47 71.54 -47 10 C-46.67 10 -46.34 10 -46 10 C-45.93958023 10.76928329 -45.87916046 11.53856659 -45.81690979 12.3311615 C-45.24473519 19.61296553 -44.67116263 26.8946575 -44.09605503 34.17623043 C-43.80049978 37.91894128 -43.5054681 41.6616918 -43.21166992 45.40454102 C-42.92764144 49.02267411 -42.64218938 52.64069243 -42.35578728 56.25863838 C-42.24725521 57.63274782 -42.13921939 59.00689655 -42.03170967 60.38108635 C-41.46634192 67.60338589 -40.85425049 74.80576997 -40 82 C-39.34 82 -38.68 82 -38 82 C-38 82.66 -38 83.32 -38 84 C-29.42 84 -20.84 84 -12 84 C-12.19647121 77.11908117 -12.19647121 77.11908117 -12.45043945 70.24023438 C-12.54974633 63.29516002 -11.08078213 59.51362539 -7 54 C-4.04304647 48.24302623 -1.97657007 43.44968291 -4 37 C-5.92393551 34.1125127 -5.92393551 34.1125127 -8 32 C-10.475 32.495 -10.475 32.495 -13 33 C-13.12117188 32.25234375 -13.24234375 31.5046875 -13.3671875 30.734375 C-13.61855469 29.25710937 -13.61855469 29.25710937 -13.875 27.75 C-14.03742187 26.77546875 -14.19984375 25.8009375 -14.3671875 24.796875 C-14.94855848 22.22735883 -15.70840265 20.27928944 -17 18 C-15.68 18 -14.36 18 -13 18 C-13 15.69 -13 13.38 -13 11 C-13.99 10.67 -14.98 10.34 -16 10 C-15.67 8.35 -15.34 6.7 -15 5 C-13.02 5.33 -11.04 5.66 -9 6 C-8.67 4.68 -8.34 3.36 -8 2 C-6.865625 1.855625 -5.73125 1.71125 -4.5625 1.5625 C-1.19222799 1.38828522 -1.19222799 1.38828522 0 0 Z " fill="#FEFEFE" transform="translate(47,9)"/>
<path d="M0 0 C3.22104405 1.65010007 5.35847774 3.71695548 7 7 C7.73637695 7.0093457 8.47275391 7.01869141 9.23144531 7.02832031 C12.57164218 7.08204155 15.91044119 7.16568622 19.25 7.25 C20.40886719 7.26417969 21.56773437 7.27835937 22.76171875 7.29296875 C24.43427734 7.34130859 24.43427734 7.34130859 26.140625 7.390625 C27.16704102 7.41157227 28.19345703 7.43251953 29.25097656 7.45410156 C32 8 32 8 34.36474609 9.55175781 C36.63950521 12.95744375 36.33722152 15.86056945 36.0234375 19.78125 C35.95649437 20.92397369 35.95649437 20.92397369 35.88819885 22.08978271 C35.73777468 24.56166694 35.55701268 27.03025822 35.375 29.5 C35.26488958 31.19749657 35.15624971 32.89508916 35.04907227 34.59277344 C34.44264179 43.92293963 33.74146888 53.24942419 32.67456055 62.53955078 C32.24472325 66.28640304 31.93548316 69.98647379 31.828125 73.7578125 C31.80242432 74.53479492 31.77672363 75.31177734 31.75024414 76.11230469 C31.71015976 77.55783796 31.6892023 79.00411167 31.69311523 80.45019531 C31.56978569 84.71067043 30.56601099 87.53440448 27.73076248 90.74116135 C24.14773412 93.34721194 19.82857781 92.8106398 15.56591797 92.74462891 C14.51662109 92.75193024 13.46732422 92.75923157 12.38623047 92.76675415 C8.92088918 92.78295547 5.45742115 92.75576115 1.9921875 92.7265625 C-0.41486612 92.7255253 -2.82192145 92.72656068 -5.22897339 92.72958374 C-10.27123331 92.72940435 -15.3128533 92.70855517 -20.35498047 92.67236328 C-26.82636362 92.62693935 -33.29681367 92.62590969 -39.76831245 92.63939857 C-44.73709446 92.64607212 -49.70566265 92.63283043 -54.67440414 92.61314011 C-57.06108355 92.605429 -59.44778671 92.60314262 -61.83447647 92.6063118 C-65.16501697 92.60705131 -68.49434781 92.58186826 -71.82470703 92.54931641 C-72.81594574 92.55427124 -73.80718445 92.55922607 -74.82846069 92.56433105 C-76.18690094 92.54307663 -76.18690094 92.54307663 -77.57278442 92.52139282 C-78.35995409 92.51728708 -79.14712376 92.51318134 -79.95814705 92.50895119 C-82 92 -82 92 -83.75646782 90.11063194 C-85.26149253 87.55617194 -85.33610327 86.09694288 -85.2421875 83.1484375 C-85.21479492 82.17616211 -85.18740234 81.20388672 -85.15917969 80.20214844 C-85.10665039 79.14543945 -85.05412109 78.08873047 -85 77 C-84.94489258 75.88915039 -84.88978516 74.77830078 -84.83300781 73.63378906 C-84.62489363 69.96184268 -84.38079635 66.29392453 -84.125 62.625 C-83.99073608 60.65285522 -83.99073608 60.65285522 -83.85375977 58.64086914 C-83.20275289 49.231876 -82.39166709 39.8463873 -81.42578125 30.46484375 C-81.14049147 27.64377827 -80.92071456 24.83643764 -80.79296875 22.00390625 C-80.73753906 20.84761719 -80.68210937 19.69132812 -80.625 18.5 C-80.59664063 17.5409375 -80.56828125 16.581875 -80.5390625 15.59375 C-79.82586319 12.16212432 -78.49318926 10.43152027 -76 8 C-74.68 8 -73.36 8 -72 8 C-71.82460693 8.52319824 -71.64921387 9.04639648 -71.46850586 9.58544922 C-65.17197668 28.74321179 -65.17197668 28.74321179 -50.52734375 41.84375 C-47.73958471 43.11913899 -44.92354903 44.08347374 -42 45 C-40.02423745 33.94942955 -40.02423745 33.94942955 -42.46875 23.53125 C-44.47817504 21.89638014 -44.47817504 21.89638014 -46.71875 20.55078125 C-50.88062857 17.721559 -53.39936848 13.24228017 -56 9 C-56 8.67 -56 8.34 -56 8 C-44.12 7.67 -32.24 7.34 -20 7 C-20 6.01 -20 5.02 -20 4 C-13.44719156 -0.0324975 -7.68005413 -1.28180427 0 0 Z " fill="#E65CE9" transform="translate(164,94)"/>
<path d="M0 0 C3.401685 1.33637625 5.43478846 2.43478846 8 5 C8 5.99 8 6.98 8 8 C9.07661896 7.98334541 9.07661896 7.98334541 10.17498779 7.96635437 C16.94302307 7.86611966 23.71094726 7.79001865 30.47953415 7.74093914 C33.95933474 7.71485778 37.43852147 7.67948956 40.91796875 7.62280273 C44.91933033 7.55802181 48.92004839 7.53380788 52.921875 7.51171875 C54.16990906 7.48591232 55.41794312 7.4601059 56.70379639 7.43351746 C57.86469788 7.4331398 59.02559937 7.43276215 60.22167969 7.43237305 C61.75390167 7.41571846 61.75390167 7.41571846 63.31707764 7.39872742 C66 8 66 8 68.31555176 10.28439331 C69.88818056 12.81972873 70.53313698 14.11143268 70.72949219 17.01733398 C70.78925232 17.77259872 70.84901245 18.52786346 70.9105835 19.30601501 C70.95555969 20.111241 71.00053589 20.91646698 71.046875 21.74609375 C71.10780334 22.59365738 71.16873169 23.44122101 71.23150635 24.31446838 C71.42124141 27.02129838 71.58538276 29.72903958 71.75 32.4375 C71.87475328 34.22341616 72.00104119 36.00922581 72.12890625 37.79492188 C72.80204775 47.54501896 73.18362939 57.2237754 73 67 C71.82904785 67.01981934 70.6580957 67.03963867 69.45166016 67.06005859 C65.11663926 67.13600081 60.78195905 67.2247352 56.44726562 67.31738281 C54.56940424 67.35571977 52.69146824 67.39056427 50.81347656 67.421875 C48.11756679 67.46742363 45.42217288 67.52543375 42.7265625 67.5859375 C41.88380768 67.59748871 41.04105286 67.60903992 40.17276001 67.62094116 C35.60979043 67.54193181 35.60979043 67.54193181 32 70 C45.86 70.33 59.72 70.66 74 71 C74 71.33 74 71.66 74 72 C73.41562164 72.01030746 72.83124329 72.02061493 72.22915649 72.03123474 C66.16241997 72.13917841 60.09583564 72.25378606 54.02929688 72.37231445 C51.76337866 72.4157023 49.49742693 72.45737449 47.23144531 72.49731445 C43.97971482 72.55492385 40.72815364 72.61864502 37.4765625 72.68359375 C36.45881744 72.70030624 35.44107239 72.71701874 34.39248657 72.73423767 C32.98125015 72.7641555 32.98125015 72.7641555 31.54150391 72.79467773 C30.29574081 72.81799416 30.29574081 72.81799416 29.02481079 72.84178162 C26.93121564 72.87765197 26.93121564 72.87765197 25 74 C32.92 74.33 40.84 74.66 49 75 C49 76.98 49 78.96 49 81 C48.71125 80.360625 48.4225 79.72125 48.125 79.0625 C47.17176549 76.84793921 47.17176549 76.84793921 45 76 C45.09539062 76.56847656 45.19078125 77.13695313 45.2890625 77.72265625 C45.39992188 78.49480469 45.51078125 79.26695313 45.625 80.0625 C45.74101563 80.81660156 45.85703125 81.57070312 45.9765625 82.34765625 C46 85 46 85 44 92 C33.44 92 22.88 92 12 92 C11.505 71.21 11.505 71.21 11 50 C9.02 50 7.04 50 5 50 C5 48.68 5 47.36 5 46 C6.32 46 7.64 46 9 46 C8.67 45.01 8.34 44.02 8 43 C8.99 43 9.98 43 11 43 C10.67 42.01 10.34 41.02 10 40 C10 38.33333333 10 36.66666667 10 35 C9.2575 34.773125 8.515 34.54625 7.75 34.3125 C4.43798128 32.73176379 3.00520162 31.04493579 1 28 C1 27.01 1 26.02 1 25 C1.66515625 24.58105469 2.3303125 24.16210938 3.015625 23.73046875 C3.67046875 23.15941406 4.3253125 22.58835937 5 22 C5.26625334 18.78812861 5.26625334 18.78812861 4.75 15.3125 C4.62109375 14.13300781 4.4921875 12.95351562 4.359375 11.73828125 C4.24078125 10.83464844 4.1221875 9.93101563 4 9 C3.37351563 9.0721875 2.74703125 9.144375 2.1015625 9.21875 C1.28429688 9.3115625 0.46703125 9.404375 -0.375 9.5 C-1.18710937 9.5928125 -1.99921875 9.685625 -2.8359375 9.78125 C-5 10 -5 10 -7 10 C-7.33 11.32 -7.66 12.64 -8 14 C-9.98 14 -11.96 14 -14 14 C-14 15.32 -14 16.64 -14 18 C-13.34 18.33 -12.68 18.66 -12 19 C-12 21.31 -12 23.62 -12 26 C-12.99 26.33 -13.98 26.66 -15 27 C-14.505 27.825 -14.01 28.65 -13.5 29.5 C-11.67647919 33.75488188 -11.76326311 36.42308671 -12 41 C-10.35 40.34 -8.7 39.68 -7 39 C-1.08042895 45.60589812 -1.08042895 45.60589812 -0.8125 50.25 C-5.07407594 63.70760824 -5.07407594 63.70760824 -8.55249023 67.84790039 C-10.31522949 70.4686706 -10.42055151 72.06697187 -10.51171875 75.203125 C-10.56138794 76.52812012 -10.56138794 76.52812012 -10.61206055 77.87988281 C-10.64940308 79.54809082 -10.64940308 79.54809082 -10.6875 81.25 C-10.790625 84.7975 -10.89375 88.345 -11 92 C-19.58 92 -28.16 92 -37 92 C-37 91.34 -37 90.68 -37 90 C-37.66 90 -38.32 90 -39 90 C-40.98800012 82.22272815 -41.68601809 74.54361835 -42.2890625 66.55078125 C-42.39781273 65.16550385 -42.50706462 63.78026575 -42.61679077 62.39506531 C-42.84414606 59.50837579 -43.06732396 56.62140644 -43.28710938 53.73413086 C-43.56798748 50.0452719 -43.85654298 46.35706595 -44.1478672 42.66901875 C-44.37295387 39.81493218 -44.59542368 36.96064681 -44.81696701 34.10628319 C-44.92255531 32.74636403 -45.02860933 31.38648093 -45.13515091 30.02663612 C-45.28344572 28.12512288 -45.42816902 26.22333214 -45.57275391 24.3215332 C-45.65554596 23.24281448 -45.73833801 22.16409576 -45.82363892 21.0526886 C-45.88183807 20.04530136 -45.94003723 19.03791412 -46 18 C-46.10603043 16.44317757 -46.10603043 16.44317757 -46.21420288 14.85490417 C-46 12 -46 12 -43 8 C-39.37 8 -35.74 8 -32 8 C-31.67 16.58 -31.34 25.16 -31 34 C-29.35 32.35 -27.7 30.7 -26 29 C-24.68 28.67 -23.36 28.34 -22 28 C-22 21.4 -22 14.8 -22 8 C-20.02 8 -18.04 8 -16 8 C-15.7525 7.236875 -15.505 6.47375 -15.25 5.6875 C-12.13194867 -1.01631036 -6.58539092 -0.78941595 0 0 Z " fill="#6EE2EA" transform="translate(46,1)"/>
<path d="M0 0 C0.17539307 0.52319824 0.35078613 1.04639648 0.53149414 1.58544922 C6.83724296 20.78942147 6.83724296 20.78942147 21.5703125 33.84375 C24.01194327 35.00568361 26.47648216 36.03010702 29 37 C28.5020163 40.73487777 28.12508244 42.81237635 26 46 C25.34 46 24.68 46 24 46 C24 46.66 24 47.32 24 48 C24.64066406 48.04898438 25.28132813 48.09796875 25.94140625 48.1484375 C31.21196085 48.6040145 35.96986288 49.3597379 41 51 C40.66745356 53.66676662 40.33396783 56.33341121 40 59 C39.88527344 59.9187793 39.77054688 60.83755859 39.65234375 61.78417969 C39.27212061 64.81495833 38.8864011 67.84500328 38.5 70.875 C38.36980469 71.91914063 38.23960937 72.96328125 38.10546875 74.0390625 C37.97785156 75.03421875 37.85023438 76.029375 37.71875 77.0546875 C37.60466797 77.95687012 37.49058594 78.85905273 37.37304688 79.78857422 C37 82 37 82 36 84 C29.50396012 84.10129515 23.00812332 84.17142075 16.51147461 84.21972656 C14.30078521 84.23986064 12.09014918 84.26717015 9.87963867 84.30175781 C6.70478154 84.35019629 3.53062752 84.37295072 0.35546875 84.390625 C-0.63524124 84.41127014 -1.62595123 84.43191528 -2.64668274 84.45318604 C-3.56741074 84.45348816 -4.48813873 84.45379028 -5.43676758 84.45410156 C-6.2472908 84.46298401 -7.05781403 84.47186646 -7.89289856 84.48101807 C-10 84 -10 84 -11.76496887 82.11483765 C-13.25767007 79.55877195 -13.33596402 78.09257099 -13.2421875 75.1484375 C-13.21479492 74.17616211 -13.18740234 73.20388672 -13.15917969 72.20214844 C-13.10665039 71.14543945 -13.05412109 70.08873047 -13 69 C-12.94489258 67.88915039 -12.88978516 66.77830078 -12.83300781 65.63378906 C-12.62489363 61.96184268 -12.38079635 58.29392453 -12.125 54.625 C-11.99073608 52.65285522 -11.99073608 52.65285522 -11.85375977 50.64086914 C-11.20275289 41.231876 -10.39166709 31.8463873 -9.42578125 22.46484375 C-9.14049147 19.64377827 -8.92071456 16.83643764 -8.79296875 14.00390625 C-8.73753906 12.84761719 -8.68210937 11.69132812 -8.625 10.5 C-8.59664063 9.5409375 -8.56828125 8.581875 -8.5390625 7.59375 C-7.43895515 2.30047986 -5.38928671 0 0 0 Z " fill="#32B7F3" transform="translate(92,102)"/>
<path d="M0 0 C3.56169096 1.27203249 5.36156805 1.98431281 7.375 5.1875 C7.58125 5.785625 7.7875 6.38375 8 7 C6 9 6 9 3.5625 9.0625 C2.2940625 9.0315625 2.2940625 9.0315625 1 9 C0.01 9.33 -0.98 9.66 -2 10 C-3.66621616 10.03874921 -5.33394172 10.0450286 -7 10 C-7.33 11.32 -7.66 12.64 -8 14 C-9.98 14 -11.96 14 -14 14 C-14 15.32 -14 16.64 -14 18 C-13.34 18.33 -12.68 18.66 -12 19 C-12 21.31 -12 23.62 -12 26 C-12.99 26.33 -13.98 26.66 -15 27 C-14.505 27.825 -14.01 28.65 -13.5 29.5 C-11.67647919 33.75488188 -11.76326311 36.42308671 -12 41 C-10.35 40.34 -8.7 39.68 -7 39 C-1.08042895 45.60589812 -1.08042895 45.60589812 -0.8125 50.25 C-5.07407594 63.70760824 -5.07407594 63.70760824 -8.55249023 67.84790039 C-10.31522949 70.4686706 -10.42055151 72.06697187 -10.51171875 75.203125 C-10.56138794 76.52812012 -10.56138794 76.52812012 -10.61206055 77.87988281 C-10.64940308 79.54809082 -10.64940308 79.54809082 -10.6875 81.25 C-10.790625 84.7975 -10.89375 88.345 -11 92 C-19.58 92 -28.16 92 -37 92 C-37 91.34 -37 90.68 -37 90 C-37.66 90 -38.32 90 -39 90 C-40.98800012 82.22272815 -41.68601809 74.54361835 -42.2890625 66.55078125 C-42.39781273 65.16550385 -42.50706462 63.78026575 -42.61679077 62.39506531 C-42.84414606 59.50837579 -43.06732396 56.62140644 -43.28710938 53.73413086 C-43.56798748 50.0452719 -43.85654298 46.35706595 -44.1478672 42.66901875 C-44.37295387 39.81493218 -44.59542368 36.96064681 -44.81696701 34.10628319 C-44.92255531 32.74636403 -45.02860933 31.38648093 -45.13515091 30.02663612 C-45.28344572 28.12512288 -45.42816902 26.22333214 -45.57275391 24.3215332 C-45.65554596 23.24281448 -45.73833801 22.16409576 -45.82363892 21.0526886 C-45.88183807 20.04530136 -45.94003723 19.03791412 -46 18 C-46.10603043 16.44317757 -46.10603043 16.44317757 -46.21420288 14.85490417 C-46 12 -46 12 -43 8 C-39.37 8 -35.74 8 -32 8 C-31.67 16.58 -31.34 25.16 -31 34 C-29.35 32.35 -27.7 30.7 -26 29 C-24.68 28.67 -23.36 28.34 -22 28 C-22 21.4 -22 14.8 -22 8 C-20.02 8 -18.04 8 -16 8 C-15.7525 7.236875 -15.505 6.47375 -15.25 5.6875 C-12.12581011 -1.02950826 -6.59110144 -0.76930837 0 0 Z " fill="#31B7F3" transform="translate(46,1)"/>
<path d="M0 0 C3.22104405 1.65010007 5.35847774 3.71695548 7 7 C7.73637695 7.0093457 8.47275391 7.01869141 9.23144531 7.02832031 C12.57164218 7.08204155 15.91044119 7.16568622 19.25 7.25 C20.40886719 7.26417969 21.56773437 7.27835937 22.76171875 7.29296875 C24.43427734 7.34130859 24.43427734 7.34130859 26.140625 7.390625 C27.16704102 7.41157227 28.19345703 7.43251953 29.25097656 7.45410156 C32.68687899 8.13639977 33.90636186 9.23000344 36 12 C36.16024493 14.6848585 36.11093836 16.86602471 35.8125 19.5 C35.75006104 20.20253906 35.68762207 20.90507813 35.62329102 21.62890625 C35.49438201 23.06202324 35.35662172 24.494372 35.20996094 25.92578125 C34.90417295 28.94668212 34.67532787 31.9730998 34.4375 35 C34.29342649 36.66681971 34.1483389 38.33355447 34 40 C28.60953822 39.56459296 24.3347691 38.47701095 19.35058594 36.42211914 C7.18349072 31.45754053 -4.0081983 31.19552671 -17 32 C-17.495 30.515 -17.495 30.515 -18 29 C-18.54785156 29.04640625 -19.09570312 29.0928125 -19.66015625 29.140625 C-28.15730044 29.52748685 -38.03721269 28.24684051 -45.3046875 23.4921875 C-47.11423985 21.7630597 -48.55048608 20.03961657 -50 18 C-50.57492188 17.20207031 -51.14984375 16.40414062 -51.7421875 15.58203125 C-56 9.41114631 -56 9.41114631 -56 8 C-44.12 7.67 -32.24 7.34 -20 7 C-20 6.01 -20 5.02 -20 4 C-13.44719156 -0.0324975 -7.68005413 -1.28180427 0 0 Z " fill="#E060E9" transform="translate(164,94)"/>
<path d="M0 0 C4.29 0 8.58 0 13 0 C13 8.58 13 17.16 13 26 C14.65 25.34 16.3 24.68 18 24 C18.99 24 19.98 24 21 24 C21 20.04 21 16.08 21 12 C23.31 12 25.62 12 28 12 C27.98428955 12.59014893 27.9685791 13.18029785 27.95239258 13.78833008 C27.89002061 16.46295586 27.85100343 19.13742864 27.8125 21.8125 C27.78736328 22.74126953 27.76222656 23.67003906 27.73632812 24.62695312 C27.72666016 25.51962891 27.71699219 26.41230469 27.70703125 27.33203125 C27.6913208 28.15421143 27.67561035 28.9763916 27.65942383 29.82348633 C28.07433079 32.47502434 28.95529751 33.33263592 31 35 C35.16622409 33.68880257 36.83557034 32.3592943 39.0625 28.625 C41.10977294 25.33984109 43.07613694 22.58649425 46 20 C45.01 19.67 44.02 19.34 43 19 C43.66 18.01 44.32 17.02 45 16 C44.01 15.67 43.02 15.34 42 15 C42.33 14.34 42.66 13.68 43 13 C46.81248426 12.97112764 50.6249407 12.95324508 54.4375 12.9375 C55.52611328 12.92912109 56.61472656 12.92074219 57.73632812 12.91210938 C58.77080078 12.90888672 59.80527344 12.90566406 60.87109375 12.90234375 C62.30859985 12.89448853 62.30859985 12.89448853 63.77514648 12.88647461 C66 13 66 13 67 14 C68.012321 19.73648569 68.05127323 25.55525402 68.02734375 31.36328125 C68.023396 32.61020752 68.01944824 33.85713379 68.01538086 35.1418457 C68.01030518 36.08503662 68.00522949 37.02822754 68 38 C66.82904785 38.01981934 65.6580957 38.03963867 64.45166016 38.06005859 C60.11663926 38.13600081 55.78195905 38.2247352 51.44726562 38.31738281 C49.56940424 38.35571977 47.69146824 38.39056427 45.81347656 38.421875 C43.11756679 38.46742363 40.42217288 38.52543375 37.7265625 38.5859375 C36.46243027 38.60326431 36.46243027 38.60326431 35.17276001 38.62094116 C30.60979043 38.54193181 30.60979043 38.54193181 27 41 C40.86 41.33 54.72 41.66 69 42 C69 42.33 69 42.66 69 43 C68.12343246 43.0154612 68.12343246 43.0154612 67.22915649 43.03123474 C61.16241997 43.13917841 55.09583564 43.25378606 49.02929688 43.37231445 C46.76337866 43.4157023 44.49742693 43.45737449 42.23144531 43.49731445 C38.97971482 43.55492385 35.72815364 43.61864502 32.4765625 43.68359375 C31.45881744 43.70030624 30.44107239 43.71701874 29.39248657 43.73423767 C28.45166229 43.75418289 27.51083801 43.77412811 26.54150391 43.79467773 C25.29574081 43.81799416 25.29574081 43.81799416 24.02481079 43.84178162 C21.93121564 43.87765197 21.93121564 43.87765197 20 45 C27.92 45.33 35.84 45.66 44 46 C44 47.98 44 49.96 44 52 C43.566875 51.0409375 43.566875 51.0409375 43.125 50.0625 C42.17176549 47.84793921 42.17176549 47.84793921 40 47 C40.09539062 47.56847656 40.19078125 48.13695312 40.2890625 48.72265625 C40.39992187 49.49480469 40.51078125 50.26695313 40.625 51.0625 C40.74101563 51.81660156 40.85703125 52.57070312 40.9765625 53.34765625 C41 56 41 56 39 63 C28.44 63 17.88 63 7 63 C6.505 42.21 6.505 42.21 6 21 C4.02 21 2.04 21 0 21 C0 19.68 0 18.36 0 17 C1.32 17 2.64 17 4 17 C3.67 16.01 3.34 15.02 3 14 C3.99 14 4.98 14 6 14 C5.67 13.01 5.34 12.02 5 11 C5 9.33333333 5 7.66666667 5 6 C2.525 5.01 2.525 5.01 0 4 C0 2.68 0 1.36 0 0 Z " fill="#767BC4" transform="translate(51,30)"/>
<path d="M0 0 C0.99 0.33 1.98 0.66 3 1 C4.34689394 5.2533493 5.64092699 9.5135111 5 14 C3.625 15.8125 3.625 15.8125 2 17 C1.34 17 0.68 17 0 17 C0.474375 17.763125 0.94875 18.52625 1.4375 19.3125 C3 22 3 22 4 25 C5.485 25.4640625 5.485 25.4640625 7 25.9375 C10 27 10 27 10.9375 28.875 C11.00496376 31.16876791 10.81447704 32.85274235 10 35 C9.01 35.495 9.01 35.495 8 36 C8 36.66 8 37.32 8 38 C6.68 38 5.36 38 4 38 C4 39.32 4 40.64 4 42 C5.98 42 7.96 42 10 42 C10.96799592 46.84332905 11.13122086 51.54138016 11.09765625 56.4609375 C11.0962413 57.25150543 11.09482635 58.04207336 11.09336853 58.8565979 C11.08780504 61.36277166 11.07525944 63.86885358 11.0625 66.375 C11.05748028 68.08202995 11.0529182 69.78906132 11.04882812 71.49609375 C11.03870171 75.6641257 11.01911945 79.83196096 11 84 C3.41 84 -4.18 84 -12 84 C-12.103125 80.535 -12.20625 77.07 -12.3125 73.5 C-12.35802002 72.42427734 -12.40354004 71.34855469 -12.45043945 70.24023438 C-12.54974633 63.29516002 -11.08078213 59.51362539 -7 54 C-4.04304647 48.24302623 -1.97657007 43.44968291 -4 37 C-5.92393551 34.1125127 -5.92393551 34.1125127 -8 32 C-10.475 32.495 -10.475 32.495 -13 33 C-13.12117188 32.25234375 -13.24234375 31.5046875 -13.3671875 30.734375 C-13.53476562 29.74953125 -13.70234375 28.7646875 -13.875 27.75 C-14.03742187 26.77546875 -14.19984375 25.8009375 -14.3671875 24.796875 C-14.94855848 22.22735883 -15.70840265 20.27928944 -17 18 C-15.68 18 -14.36 18 -13 18 C-13 15.69 -13 13.38 -13 11 C-13.99 10.67 -14.98 10.34 -16 10 C-15.67 8.35 -15.34 6.7 -15 5 C-12.03 5.495 -12.03 5.495 -9 6 C-8.67 4.68 -8.34 3.36 -8 2 C-6.2984375 1.7834375 -6.2984375 1.7834375 -4.5625 1.5625 C-1.19222799 1.38828522 -1.19222799 1.38828522 0 0 Z " fill="#E45EEB" transform="translate(47,9)"/>
<path d="M0 0 C1.24243217 0.00999275 1.24243217 0.00999275 2.50996399 0.02018738 C3.45071274 0.02041397 4.39146149 0.02064056 5.36071777 0.02087402 C6.87959343 0.04409981 6.87959343 0.04409981 8.42915344 0.0677948 C9.46812271 0.07203964 10.50709198 0.07628448 11.57754517 0.08065796 C14.89943745 0.09746506 18.22072544 0.13512159 21.54243469 0.17326355 C23.79307698 0.18830773 26.04372877 0.2019966 28.29438782 0.21427917 C33.81477666 0.24737519 39.33481251 0.29759486 44.85493469 0.36076355 C44.85493469 1.35076355 44.85493469 2.34076355 44.85493469 3.36076355 C40.23493469 3.36076355 35.61493469 3.36076355 30.85493469 3.36076355 C30.85493469 6.00076355 30.85493469 8.64076355 30.85493469 11.36076355 C32.17493469 11.03076355 33.49493469 10.70076355 34.85493469 10.36076355 C33.61297399 13.80003934 32.29753186 16.61284174 29.85493469 19.36076355 C29.19493469 19.36076355 28.53493469 19.36076355 27.85493469 19.36076355 C34.88638267 33.6417271 34.88638267 33.6417271 46.14009094 44.5287323 C48.85493469 47.36076355 48.85493469 47.36076355 49.14717102 49.53703308 C48.99624303 52.12766455 48.6611552 54.61456134 48.22993469 57.17326355 C48.04624329 58.49874207 48.04624329 58.49874207 47.85884094 59.85099792 C47.55304219 62.02687365 47.21784182 64.19380762 46.85493469 66.36076355 C38.96879739 65.36353398 32.39910641 61.81576371 27.47993469 55.48576355 C26.57295468 54.13164493 25.6958144 52.75689081 24.85493469 51.36076355 C24.5004425 50.77939636 24.14595032 50.19802917 23.78071594 49.5990448 C19.13675016 41.13711506 14.69737892 29.46993982 14.72993469 19.73576355 C14.7260675 18.57174011 14.7260675 18.57174011 14.72212219 17.38420105 C14.85493469 15.36076355 14.85493469 15.36076355 15.85493469 13.36076355 C15.92444011 11.82052359 15.93945827 10.27741367 15.91743469 8.73576355 C15.90841125 7.91849792 15.89938782 7.1012323 15.89009094 6.25920105 C15.87848938 5.63271667 15.86688782 5.0062323 15.85493469 4.36076355 C16.84493469 4.69076355 17.83493469 5.02076355 18.85493469 5.36076355 C19.18493469 4.70076355 19.51493469 4.04076355 19.85493469 3.36076355 C11.60493469 3.36076355 3.35493469 3.36076355 -5.14506531 3.36076355 C-2.14506531 0.36076355 -2.14506531 0.36076355 0 0 Z " fill="#FCCEB9" transform="translate(75.14506530761719,72.63923645019531)"/>
<path d="M0 0 C2.31 0 4.62 0 7 0 C6.98428955 0.59014893 6.9685791 1.18029785 6.95239258 1.78833008 C6.89002061 4.46295586 6.85100343 7.13742864 6.8125 9.8125 C6.78736328 10.74126953 6.76222656 11.67003906 6.73632812 12.62695312 C6.72666016 13.51962891 6.71699219 14.41230469 6.70703125 15.33203125 C6.6913208 16.15421143 6.67561035 16.9763916 6.65942383 17.82348633 C7.07433079 20.47502434 7.95529751 21.33263592 10 23 C14.16622409 21.68880257 15.83557034 20.3592943 18.0625 16.625 C20.10977294 13.33984109 22.07613694 10.58649425 25 8 C24.01 7.67 23.02 7.34 22 7 C22.66 6.01 23.32 5.02 24 4 C23.01 3.67 22.02 3.34 21 3 C21.33 2.34 21.66 1.68 22 1 C25.81248426 0.97112764 29.6249407 0.95324508 33.4375 0.9375 C34.52611328 0.92912109 35.61472656 0.92074219 36.73632812 0.91210938 C37.77080078 0.90888672 38.80527344 0.90566406 39.87109375 0.90234375 C40.82943115 0.89710693 41.78776855 0.89187012 42.77514648 0.88647461 C45 1 45 1 46 2 C47.012321 7.73648569 47.05127323 13.55525402 47.02734375 19.36328125 C47.023396 20.61020752 47.01944824 21.85713379 47.01538086 23.1418457 C47.01030518 24.08503662 47.00522949 25.02822754 47 26 C45.82904785 26.01981934 44.6580957 26.03963867 43.45166016 26.06005859 C39.11663926 26.13600081 34.78195905 26.2247352 30.44726562 26.31738281 C28.56940424 26.35571977 26.69146824 26.39056427 24.81347656 26.421875 C22.11756679 26.46742363 19.42217288 26.52543375 16.7265625 26.5859375 C15.46243027 26.60326431 15.46243027 26.60326431 14.17276001 26.62094116 C9.60979043 26.54193181 9.60979043 26.54193181 6 29 C2.99503647 29.33388484 0.89554081 29.54588064 -2 29 C-6.2322138 25.04083225 -5.72239866 18.46587475 -6 13 C-4.02 12.67 -2.04 12.34 0 12 C0 8.04 0 4.08 0 0 Z " fill="#30B8F3" transform="translate(72,42)"/>
<path d="M0 0 C0.17539307 0.52319824 0.35078613 1.04639648 0.53149414 1.58544922 C5.54055649 18.62809707 5.54055649 18.62809707 17.375 30.75 C18.24125 31.4925 19.1075 32.235 20 33 C20.495 39.93 20.495 39.93 21 47 C10.44 47 -0.12 47 -11 47 C-11 38.0062435 -11 38.0062435 -10.59765625 34.08203125 C-10.51273926 33.22609375 -10.42782227 32.37015625 -10.34033203 31.48828125 C-10.24864746 30.60527344 -10.15696289 29.72226563 -10.0625 28.8125 C-9.28151967 21.37645433 -9.28151967 21.37645433 -8.78515625 13.91796875 C-8.73230469 12.79003906 -8.67945312 11.66210938 -8.625 10.5 C-8.59664063 9.5409375 -8.56828125 8.581875 -8.5390625 7.59375 C-7.43895515 2.30047986 -5.38928671 0 0 0 Z " fill="#70E3EA" transform="translate(92,102)"/>
<path d="M0 0 C4.0830942 -0.11614929 8.16576377 -0.18723457 12.25 -0.25 C13.40886719 -0.28351563 14.56773437 -0.31703125 15.76171875 -0.3515625 C16.87675781 -0.36445312 17.99179688 -0.37734375 19.140625 -0.390625 C20.16704102 -0.41157227 21.19345703 -0.43251953 22.25097656 -0.45410156 C25.73570457 0.12152846 26.90050569 1.20482447 29 4 C29.16024493 6.6848585 29.11093836 8.86602471 28.8125 11.5 C28.75006104 12.20253906 28.68762207 12.90507813 28.62329102 13.62890625 C28.49438201 15.06202324 28.35662172 16.494372 28.20996094 17.92578125 C27.90417295 20.94668212 27.67532787 23.9730998 27.4375 27 C27.29342649 28.66681971 27.1483389 30.33355447 27 32 C19.6465545 31.38862809 13.44869717 29.16398855 6.59765625 26.52734375 C0.7147769 24.35422448 -4.73717816 23.32724955 -11 23 C-11 21.68 -11 20.36 -11 19 C-9.741875 18.79375 -8.48375 18.5875 -7.1875 18.375 C-3.9793659 17.54031732 -3.18243067 17.22233738 -1 14.5625 C-0.050921 11.18140608 0.10364929 8.75188704 0.0625 5.27734375 C0.05347656 4.28855225 0.04445312 3.29976074 0.03515625 2.28100586 C0.02355469 1.52827393 0.01195312 0.77554199 0 0 Z " fill="#32B8F3" transform="translate(171,102)"/>
<path d="M0 0 C0.99386719 0.03609375 1.98773438 0.0721875 3.01171875 0.109375 C4.15060547 0.17898438 4.15060547 0.17898438 5.3125 0.25 C5.59890829 4.72760629 5.83499508 9.20654527 6.0625 13.6875 C6.14371094 14.94755859 6.22492187 16.20761719 6.30859375 17.50585938 C6.62632182 24.26640661 6.51381587 29.16315663 3.32324219 35.1730957 C1.55541924 38.80567295 1.1122745 42.65467728 0.5625 46.625 C0.44253662 47.45281982 0.32257324 48.28063965 0.19897461 49.13354492 C-1.82655429 60.40889604 -1.82655429 60.40889604 1.3125 70.9375 C2.3025 72.0821875 2.3025 72.0821875 3.3125 73.25 C9.48311387 72.97575049 13.29632697 72.12613371 18.3125 68.25 C19.97276356 67.23940479 21.63720102 66.23546999 23.3125 65.25 C22.84047514 69.49822374 20.34594482 71.44989709 17.3125 74.25 C18.6325 74.91 19.9525 75.57 21.3125 76.25 C20.28125 76.3325 19.25 76.415 18.1875 76.5 C13.93130865 77.32377897 11.76670584 78.69689133 8.3125 81.25 C3.70535714 84.25 3.70535714 84.25 0.3125 84.25 C0.3125 83.59 0.3125 82.93 0.3125 82.25 C-0.3475 82.25 -1.0075 82.25 -1.6875 82.25 C-3.67550012 74.47272815 -4.37351809 66.79361835 -4.9765625 58.80078125 C-5.08531273 57.41550385 -5.19456462 56.03026575 -5.30429077 54.64506531 C-5.53164606 51.75837579 -5.75482396 48.87140644 -5.97460938 45.98413086 C-6.25548748 42.2952719 -6.54404298 38.60706595 -6.8353672 34.91901875 C-7.06045387 32.06493218 -7.28292368 29.21064681 -7.50446701 26.35628319 C-7.61005531 24.99636403 -7.71610933 23.63648093 -7.82265091 22.27663612 C-7.97094572 20.37512288 -8.11566902 18.47333214 -8.26025391 16.5715332 C-8.38444199 14.95345512 -8.38444199 14.95345512 -8.51113892 13.3026886 C-8.99724548 4.88851968 -8.99724548 4.88851968 -7.54296875 1.890625 C-4.98030087 -0.37531292 -3.36734766 -0.15846342 0 0 Z " fill="#71E3EB" transform="translate(8.6875,8.75)"/>
<path d="M0 0 C3.15285242 1.08528759 4.70591819 1.67324827 7 4 C8.50033003 8.43024158 8.94370765 12.92566942 9.4375 17.5625 C9.59669922 18.80708984 9.75589844 20.05167969 9.91992188 21.33398438 C11 29.96993371 11 29.96993371 11 34 C-7.81 34 -26.62 34 -46 34 C-45.01 25.75 -44.02 17.5 -43 9 C-42.34 9.33 -41.68 9.66 -41 10 C-40.74280183 12.02543556 -40.49157878 14.05350224 -40.34375 16.08984375 C-40.14523788 18.23522156 -40.14523788 18.23522156 -38 20 C-37.30899447 21.99172182 -36.64097297 23.99161804 -36 26 C-34.91447634 27.31262571 -34.91447634 27.31262571 -32.27734375 27.09765625 C-31.17519531 27.08605469 -30.07304687 27.07445312 -28.9375 27.0625 C-27.83277344 27.05347656 -26.72804687 27.04445312 -25.58984375 27.03515625 C-24.73519531 27.02355469 -23.88054687 27.01195312 -23 27 C-23 27.33 -23 27.66 -23 28 C-16.28011507 28.4031931 -10.63305094 28.47707578 -4.5234375 25.4609375 C-1.82534739 22.87353827 -1.11918798 19.71536376 -0.86425781 16.04638672 C-0.83936135 13.94363182 -0.87398134 11.85189021 -0.9375 9.75 C-1.11923077 2.23846154 -1.11923077 2.23846154 0 0 Z " fill="#C14FCA" transform="translate(174,152)"/>
<path d="M0 0 C4.20677051 0.39686514 6.09756099 1.59766262 9.3125 4.3125 C11.72346514 8.08967872 12.70749995 10.8358339 12.3125 15.3125 C11.3225 15.3125 10.3325 15.3125 9.3125 15.3125 C9.6425 13.6625 9.9725 12.0125 10.3125 10.3125 C8.9925 10.3125 7.6725 10.3125 6.3125 10.3125 C6.3125 9.3225 6.3125 8.3325 6.3125 7.3125 C5.714375 7.6425 5.11625 7.9725 4.5 8.3125 C2.3125 9.3125 2.3125 9.3125 -0.6875 9.3125 C-1.0175 9.9725 -1.3475 10.6325 -1.6875 11.3125 C-1.6875 10.3225 -1.6875 9.3325 -1.6875 8.3125 C-2.3475 8.3125 -3.0075 8.3125 -3.6875 8.3125 C-5.66137813 13.07302962 -5.6945238 16.27738101 -4.6875 21.3125 C0.2625 22.3025 0.2625 22.3025 5.3125 23.3125 C3.3125 25.3125 3.3125 25.3125 1.08520508 25.47949219 C0.17665771 25.43985352 -0.73188965 25.40021484 -1.66796875 25.359375 C-2.66763672 25.31683594 -3.66730469 25.27429688 -4.69726562 25.23046875 C-5.74591797 25.17503906 -6.79457031 25.11960937 -7.875 25.0625 C-8.90431641 25.02253906 -9.93363281 24.98257813 -10.99414062 24.94140625 C-19.65536638 24.53081643 -25.87455355 23.95212005 -31.9765625 17.39453125 C-39.6875 8.01113014 -39.6875 8.01113014 -39.6875 5.3125 C-27.8075 4.9825 -15.9275 4.6525 -3.6875 4.3125 C-3.6875 3.3225 -3.6875 2.3325 -3.6875 1.3125 C-2.6875 0.3125 -2.6875 0.3125 0 0 Z " fill="#31B8F3" transform="translate(147.6875,96.6875)"/>
<path d="M0 0 C0.99 0.33 1.98 0.66 3 1 C4.34689394 5.2533493 5.64092699 9.5135111 5 14 C3.625 15.8125 3.625 15.8125 2 17 C1.34 17 0.68 17 0 17 C0.474375 17.763125 0.94875 18.52625 1.4375 19.3125 C3 22 3 22 4 25 C5.485 25.4640625 5.485 25.4640625 7 25.9375 C10 27 10 27 10.9375 28.875 C11.00496376 31.16876791 10.81447704 32.85274235 10 35 C9.01 35.495 9.01 35.495 8 36 C8 36.66 8 37.32 8 38 C4.7 38.66 1.4 39.32 -2 40 C-3.98 37.36 -5.96 34.72 -8 32 C-10.475 32.495 -10.475 32.495 -13 33 C-13.12117188 32.25234375 -13.24234375 31.5046875 -13.3671875 30.734375 C-13.53476562 29.74953125 -13.70234375 28.7646875 -13.875 27.75 C-14.03742187 26.77546875 -14.19984375 25.8009375 -14.3671875 24.796875 C-14.94855848 22.22735883 -15.70840265 20.27928944 -17 18 C-15.68 18 -14.36 18 -13 18 C-13 15.69 -13 13.38 -13 11 C-13.99 10.67 -14.98 10.34 -16 10 C-15.67 8.35 -15.34 6.7 -15 5 C-12.03 5.495 -12.03 5.495 -9 6 C-8.67 4.68 -8.34 3.36 -8 2 C-6.2984375 1.7834375 -6.2984375 1.7834375 -4.5625 1.5625 C-1.19222799 1.38828522 -1.19222799 1.38828522 0 0 Z " fill="#F3C4B5" transform="translate(47,9)"/>
<path d="M0 0 C6.93 0 13.86 0 21 0 C21.02291487 3.9693655 21.04284015 7.9385632 21.05493164 11.90795898 C21.05997057 13.25920386 21.06680177 14.61044326 21.07543945 15.96166992 C21.08752419 17.90020434 21.09269828 19.838778 21.09765625 21.77734375 C21.10551147 23.52905884 21.10551147 23.52905884 21.11352539 25.31616211 C21 28 21 28 20 29 C18.5112814 29.08669432 17.018555 29.10703494 15.52734375 29.09765625 C14.71773193 29.09515869 13.90812012 29.09266113 13.07397461 29.09008789 C12.03893799 29.08098389 11.00390137 29.07187988 9.9375 29.0625 C6.658125 29.041875 3.37875 29.02125 0 29 C0 19.43 0 9.86 0 0 Z " fill="#68D0DB" transform="translate(77,9)"/>
<path d="M0 0 C11.55 0 23.1 0 35 0 C35.495 0.99 35.495 0.99 36 2 C34.7934375 3.175625 34.7934375 3.175625 33.5625 4.375 C31.01309583 6.71982856 31.01309583 6.71982856 30 9 C28.02 9 26.04 9 24 9 C24 15.6 24 22.2 24 29 C21.69 30.32 19.38 31.64 17 33 C16.01 33.99 15.02 34.98 14 36 C14 27.09 14 18.18 14 9 C3.59750544 8.76231016 3.59750544 8.76231016 0 13 C0 8.71 0 4.42 0 0 Z " fill="#FCFDFD" transform="translate(0,0)"/>
<path d="M0 0 C2.31 0 4.62 0 7 0 C6.98428955 0.59014893 6.9685791 1.18029785 6.95239258 1.78833008 C6.89002061 4.46295586 6.85100343 7.13742864 6.8125 9.8125 C6.78736328 10.74126953 6.76222656 11.67003906 6.73632812 12.62695312 C6.72666016 13.51962891 6.71699219 14.41230469 6.70703125 15.33203125 C6.6913208 16.15421143 6.67561035 16.9763916 6.65942383 17.82348633 C7.07433079 20.47502434 7.95529751 21.33263592 10 23 C10.6705542 22.67402832 11.3411084 22.34805664 12.03198242 22.01220703 C15.66369082 20.77365615 18.652606 20.77412435 22.48828125 20.8046875 C23.19147995 20.8075174 23.89467865 20.81034729 24.6191864 20.81326294 C26.85046892 20.82439849 29.08134017 20.84949003 31.3125 20.875 C32.83137438 20.8850384 34.3502551 20.89416274 35.86914062 20.90234375 C39.57955921 20.92431587 43.28973942 20.95879953 47 21 C47 22.65 47 24.3 47 26 C45.82904785 26.01981934 44.6580957 26.03963867 43.45166016 26.06005859 C39.11663926 26.13600081 34.78195905 26.2247352 30.44726562 26.31738281 C28.56940424 26.35571977 26.69146824 26.39056427 24.81347656 26.421875 C22.11756679 26.46742363 19.42217288 26.52543375 16.7265625 26.5859375 C15.46243027 26.60326431 15.46243027 26.60326431 14.17276001 26.62094116 C9.60979043 26.54193181 9.60979043 26.54193181 6 29 C2.99503647 29.33388484 0.89554081 29.54588064 -2 29 C-6.2322138 25.04083225 -5.72239866 18.46587475 -6 13 C-4.02 12.67 -2.04 12.34 0 12 C0 8.04 0 4.08 0 0 Z " fill="#38B3EB" transform="translate(72,42)"/>
<path d="M0 0 C11 0 11 0 13.625 1.75 C17.15431374 10.09201429 16.10587952 20.10612056 16 29 C10.72 29 5.44 29 0 29 C0 19.43 0 9.86 0 0 Z " fill="#69D3DD" transform="translate(101,9)"/>
<path d="M0 0 C8.25 0 16.5 0 25 0 C25 1.98 25 3.96 25 6 C24.71125 5.360625 24.4225 4.72125 24.125 4.0625 C23.17176549 1.84793921 23.17176549 1.84793921 21 1 C21.09539062 1.56847656 21.19078125 2.13695313 21.2890625 2.72265625 C21.39992188 3.49480469 21.51078125 4.26695313 21.625 5.0625 C21.79902344 6.19365234 21.79902344 6.19365234 21.9765625 7.34765625 C22 10 22 10 20 17 C13.4 17 6.8 17 0 17 C0 11.39 0 5.78 0 0 Z " fill="#73E3E9" transform="translate(70,76)"/>
<path d="M0 0 C0 0.99 0 1.98 0 3 C1.32 3 2.64 3 4 3 C3.67 4.98 3.34 6.96 3 9 C4.98 9.66 6.96 10.32 9 11 C8.67 11.66 8.34 12.32 8 13 C7.34 13 6.68 13 6 13 C6.020625 14.299375 6.04125 15.59875 6.0625 16.9375 C6.08399454 18.29165633 6.07148199 19.64756083 6 21 C5 22 5 22 2.27734375 22.09765625 C1.17519531 22.08605469 0.07304687 22.07445313 -1.0625 22.0625 C-2.16722656 22.05347656 -3.27195313 22.04445313 -4.41015625 22.03515625 C-5.26480469 22.02355469 -6.11945313 22.01195313 -7 22 C-7.33 21.01 -7.66 20.02 -8 19 C-9.04800781 19.03480469 -9.04800781 19.03480469 -10.1171875 19.0703125 C-11.02726563 19.08835937 -11.93734375 19.10640625 -12.875 19.125 C-13.77992188 19.14820312 -14.68484375 19.17140625 -15.6171875 19.1953125 C-18 19 -18 19 -20 17 C-14.39 17 -8.78 17 -3 17 C-5.64 16.34 -8.28 15.68 -11 15 C-13 12 -13 12 -12.75 8.5625 C-12.13121575 5.6232748 -11.52580857 3.54301429 -10 1 C-9.01 1.33 -8.02 1.66 -7 2 C-1.53333333 0 -1.53333333 0 0 0 Z " fill="#ECC6BA" transform="translate(154,104)"/>
<path d="M0 0 C4.95 0.99 9.9 1.98 15 3 C14.9668652 6.21106317 14.89954976 9.41531914 14.8125 12.625 C14.80669922 13.52863281 14.80089844 14.43226563 14.79492188 15.36328125 C14.65157764 19.72731692 14.44012783 23.08211747 11.76171875 26.6484375 C9 29 9 29 6.1875 29.375 C5.465625 29.25125 4.74375 29.1275 4 29 C2.17856777 19.33151696 0.6225451 9.83621265 0 0 Z " fill="#36B8F3" transform="translate(181,157)"/>
<path d="M0 0 C7.26 0 14.52 0 22 0 C21.67 5.61 21.34 11.22 21 17 C14.99790363 16.24973795 10.97124747 15.4892178 5.5 13.4375 C4.2728125 12.98246094 3.045625 12.52742187 1.78125 12.05859375 C0.8634375 11.70925781 -0.054375 11.35992187 -1 11 C-0.67 7.37 -0.34 3.74 0 0 Z " fill="#71E1EB" transform="translate(177,117)"/>
<path d="M0 0 C0.66 0.99 1.32 1.98 2 3 C3.32 2.34 4.64 1.68 6 1 C6 1.99 6 2.98 6 4 C6.66 4.33 7.32 4.66 8 5 C7.67 5.99 7.34 6.98 7 8 C7.66 8.33 8.32 8.66 9 9 C7.75481714 12.73554859 5.77378939 14.22621061 3 17 C2.34 18.051875 1.68 19.10375 1 20.1875 C-1.1676212 23.23571731 -2.458177 24.01616028 -6 25 C-8 23.625 -8 23.625 -10 21 C-10.86580645 14.73695851 -9.80344218 8.22667689 -9 2 C-8.01 2 -7.02 2 -6 2 C-5.67 2.99 -5.34 3.98 -5 5 C-3.35 3.35 -1.7 1.7 0 0 Z " fill="#F8CCB9" transform="translate(88,41)"/>
<path d="M0 0 C0.99 0.33 1.98 0.66 3 1 C5.80525362 9.85869565 5.80525362 9.85869565 5 14 C3.125 16.375 3.125 16.375 0 18 C-4.52752408 18.1081415 -8.71269832 17.42910056 -13 16 C-13 14.35 -13 12.7 -13 11 C-13.99 10.67 -14.98 10.34 -16 10 C-15.67 8.35 -15.34 6.7 -15 5 C-12.03 5.495 -12.03 5.495 -9 6 C-8.67 4.68 -8.34 3.36 -8 2 C-6.2984375 1.7834375 -6.2984375 1.7834375 -4.5625 1.5625 C-1.19222799 1.38828522 -1.19222799 1.38828522 0 0 Z " fill="#F7CAB7" transform="translate(47,9)"/>
<path d="M0 0 C4.95 0 9.9 0 15 0 C15.48982668 12.24566692 15.48982668 12.24566692 13.4375 15.40625 C10.0870828 17.5969074 7.71550878 17.3968707 3.75 17.25 C2.48671875 17.21390625 1.2234375 17.1778125 -0.078125 17.140625 C-1.52445312 17.07101563 -1.52445312 17.07101563 -3 17 C-2.57847656 16.44570312 -2.15695313 15.89140625 -1.72265625 15.3203125 C-1.17480469 14.59585938 -0.62695312 13.87140625 -0.0625 13.125 C0.75541016 12.04605469 0.75541016 12.04605469 1.58984375 10.9453125 C3.03964624 9.05642921 3.03964624 9.05642921 4 7 C2.35 7.66 0.7 8.32 -1 9 C-0.67 6.03 -0.34 3.06 0 0 Z " fill="#73E4EA" transform="translate(106,76)"/>
<path d="M0 0 C5.94 0 11.88 0 18 0 C18 8.58 18 17.16 18 26 C16.35 26 14.7 26 13 26 C13 19.07 13 12.14 13 5 C11.68 5.33 10.36 5.66 9 6 C6.69 5.34 4.38 4.68 2 4 C1.67 11.92 1.34 19.84 1 28 C7.27 28 13.54 28 20 28 C20 28.33 20 28.66 20 29 C13.4 29 6.8 29 0 29 C0 19.43 0 9.86 0 0 Z " fill="#5DACBE" transform="translate(77,9)"/>
<path d="M0 0 C3.3 0 6.6 0 10 0 C10 6.6 10 13.2 10 20 C7.69 21.32 5.38 22.64 3 24 C2.01 24.99 1.02 25.98 0 27 C0 18.09 0 9.18 0 0 Z " fill="#E75CEB" transform="translate(14,9)"/>
<path d="M0 0 C3.56169096 1.27203249 5.36156805 1.98431281 7.375 5.1875 C7.58125 5.785625 7.7875 6.38375 8 7 C6 9 6 9 3.5625 9.0625 C2.2940625 9.0315625 2.2940625 9.0315625 1 9 C0.01 9.33 -0.98 9.66 -2 10 C-3.66621616 10.03874921 -5.33394172 10.0450286 -7 10 C-7.33 11.32 -7.66 12.64 -8 14 C-10.31 14 -12.62 14 -15 14 C-16.42662219 11.14675563 -16.31033868 9.16545451 -16 6 C-11.59628349 -0.60557477 -7.51031557 -0.64505778 0 0 Z " fill="#3C1B4E" transform="translate(46,1)"/>
<path d="M0 0 C4.29 0 8.58 0 13 0 C13 6.93 13 13.86 13 21 C8.71 21 4.42 21 0 21 C0 19.68 0 18.36 0 17 C1.32 17 2.64 17 4 17 C3.67 16.01 3.34 15.02 3 14 C3.99 14 4.98 14 6 14 C5.67 13.01 5.34 12.02 5 11 C5 9.33333333 5 7.66666667 5 6 C2.525 5.01 2.525 5.01 0 4 C0 2.68 0 1.36 0 0 Z " fill="#341A4C" transform="translate(51,30)"/>
<path d="M0 0 C0.66 0 1.32 0 2 0 C2 6.93 2 13.86 2 21 C-5.59 21 -13.18 21 -21 21 C-18.94539675 17.91809513 -18.38117754 17.50505951 -15.1875 16.125 C-11.35909019 14.31117835 -8.85519313 12.17243681 -6 9 C-4.9171875 8.01 -4.9171875 8.01 -3.8125 7 C-1.80725553 4.78731645 -0.93829825 2.81489475 0 0 Z " fill="#3DAAEC" transform="translate(33,72)"/>
<path d="M0 0 C1.31444092 0.02618408 2.62888184 0.05236816 3.9831543 0.0793457 C4.686353 0.08642044 5.3895517 0.09349518 6.11405945 0.1007843 C8.34627531 0.12863483 10.57592382 0.19134375 12.80737305 0.25512695 C14.32621686 0.28022244 15.84510025 0.30303344 17.36401367 0.32348633 C21.07512553 0.37842689 24.78474846 0.46462956 28.49487305 0.56762695 C28.49487305 2.21762695 28.49487305 3.86762695 28.49487305 5.56762695 C16.28487305 5.56762695 4.07487305 5.56762695 -8.50512695 5.56762695 C-3.50512695 0.56762695 -3.50512695 0.56762695 0 0 Z " fill="#6EE2EA" transform="translate(90.505126953125,62.432373046875)"/>
<path d="M0 0 C2.10700726 0.20138301 4.2107511 0.43712773 6.3125 0.6875 C8.07013672 0.87892578 8.07013672 0.87892578 9.86328125 1.07421875 C13 2 13 2 14.91796875 4.58203125 C15.45357422 5.77892578 15.45357422 5.77892578 16 7 C15.24074219 7.47050781 14.48148438 7.94101562 13.69921875 8.42578125 C12.70535156 9.04839844 11.71148437 9.67101563 10.6875 10.3125 C9.70136719 10.92738281 8.71523438 11.54226562 7.69921875 12.17578125 C5.04600422 13.84444761 5.04600422 13.84444761 3.26953125 15.73046875 C2.85058594 16.14941406 2.43164062 16.56835938 2 17 C1.34 17 0.68 17 0 17 C-0.12117188 16.25234375 -0.24234375 15.5046875 -0.3671875 14.734375 C-0.53476562 13.74953125 -0.70234375 12.7646875 -0.875 11.75 C-1.03742187 10.77546875 -1.19984375 9.8009375 -1.3671875 8.796875 C-1.94855848 6.22735883 -2.70840265 4.27928944 -4 2 C-2.68 2 -1.36 2 0 2 C0 1.34 0 0.68 0 0 Z " fill="#E25FE8" transform="translate(34,25)"/>
<path d="M0 0 C1.65 0 3.3 0 5 0 C5.33 0.66 5.66 1.32 6 2 C6.33 1.67 6.66 1.34 7 1 C13.72 1.72 13.72 1.72 15 3 C15.1875 5.9375 15.1875 5.9375 15 9 C13 11 13 11 10.5 11.25 C8 11 8 11 6 9 C5.67 11.31 5.34 13.62 5 16 C3.35 16.33 1.7 16.66 0 17 C0 11.39 0 5.78 0 0 Z " fill="#5EAEC0" transform="translate(70,76)"/>
<path d="M0 0 C4.93053801 2.52260084 6.50983422 6.53559174 8.3515625 11.515625 C9.16229166 14.62179213 8.96362789 16.94851169 8 20 C7.67 19.34 7.34 18.68 7 18 C5.35 18.33 3.7 18.66 2 19 C1.69707031 18.16855469 1.39414063 17.33710937 1.08203125 16.48046875 C0.45361328 14.85044922 0.45361328 14.85044922 -0.1875 13.1875 C-0.79658203 11.56908203 -0.79658203 11.56908203 -1.41796875 9.91796875 C-3.21936936 6.59538541 -4.64136809 5.61554446 -8 4 C-8.763125 3.608125 -9.52625 3.21625 -10.3125 2.8125 C-10.869375 2.544375 -11.42625 2.27625 -12 2 C-7.86763795 -0.00356948 -4.57438521 -0.4901127 0 0 Z " fill="#CC50D0" transform="translate(159,94)"/>
<path d="M0 0 C1.0559008 0.01332367 1.0559008 0.01332367 2.13313293 0.0269165 C3.33403816 0.02736969 3.33403816 0.02736969 4.5592041 0.02783203 C5.41867142 0.04847717 6.27813873 0.06912231 7.16365051 0.09039307 C8.48904594 0.09888275 8.48904594 0.09888275 9.84121704 0.10754395 C12.66408919 0.1299394 15.48569314 0.1801408 18.30818176 0.23101807 C20.22157489 0.25107901 22.13498791 0.26933049 24.04841614 0.28570557 C28.73966018 0.3298145 33.42995595 0.39886322 38.12068176 0.48101807 C38.12068176 1.80101807 38.12068176 3.12101807 38.12068176 4.48101807 C23.93068176 4.48101807 9.74068176 4.48101807 -4.87931824 4.48101807 C-1.87931824 0.48101807 -1.87931824 0.48101807 0 0 Z " fill="#E461EB" transform="translate(81.87931823730469,67.51898193359375)"/>
<path d="M0 0 C11 0 11 0 13.640625 1.82421875 C15.62617221 6.46286784 15.67612008 10.81217302 15.75 15.8125 C15.77964844 16.79154297 15.80929688 17.77058594 15.83984375 18.77929688 C15.91029202 21.18627953 15.96311025 23.5923079 16 26 C15.01 26 14.02 26 13 26 C13 19.07 13 12.14 13 5 C11.35 5.33 9.7 5.66 8 6 C5.69 6 3.38 6 1 6 C1 13.26 1 20.52 1 28 C5.95 28 10.9 28 16 28 C16 28.33 16 28.66 16 29 C10.72 29 5.44 29 0 29 C0 19.43 0 9.86 0 0 Z " fill="#65B9C9" transform="translate(101,9)"/>
<path d="M0 0 C1.98 0 3.96 0 6 0 C6.12117188 0.71027344 6.24234375 1.42054687 6.3671875 2.15234375 C6.53476562 3.07144531 6.70234375 3.99054687 6.875 4.9375 C7.03742187 5.85402344 7.19984375 6.77054688 7.3671875 7.71484375 C7.57601563 8.46894531 7.78484375 9.22304688 8 10 C8.66 10.33 9.32 10.66 10 11 C10 13.31 10 15.62 10 18 C6.7 18.66 3.4 19.32 0 20 C0 13.4 0 6.8 0 0 Z " fill="#77D9EA" transform="translate(24,9)"/>
<path d="M0 0 C0.67467562 1.74692795 1.33944156 3.49768525 2 5.25 C2.556875 6.71179688 2.556875 6.71179688 3.125 8.203125 C4 11 4 11 4 15 C0.04 15 -3.92 15 -8 15 C-8.48695652 5.86956522 -8.48695652 5.86956522 -6.25 1.875 C-4 0 -4 0 0 0 Z " fill="#39BAF2" transform="translate(92,102)"/>
<path d="M0 0 C0.33 0.99 0.66 1.98 1 3 C-0.98 4.98 -2.96 6.96 -5 9 C-3.68 9.66 -2.36 10.32 -1 11 C-2.546875 11.12375 -2.546875 11.12375 -4.125 11.25 C-8.38119135 12.07377897 -10.54579416 13.44689133 -14 16 C-18.60714286 19 -18.60714286 19 -22 19 C-21.67 15.04 -21.34 11.08 -21 7 C-20.34 7.33 -19.68 7.66 -19 8 C-12.92417766 8.06075822 -8.82717478 6.81683587 -4 3 C-3.21625 2.4225 -2.4325 1.845 -1.625 1.25 C-1.08875 0.8375 -0.5525 0.425 0 0 Z " fill="#8A8DEF" transform="translate(31,74)"/>
<path d="M0 0 C1.65 0 3.3 0 5 0 C5.65280952 7.88034352 6.10873673 15.66522248 5.9375 23.57421875 C5.88568246 26.14319445 5.88568246 26.14319445 7 29 C5.35 29.33 3.7 29.66 2 30 C0.60439955 27.20879909 0.78191712 24.79794308 0.68359375 21.6796875 C0.64169922 20.42285156 0.59980469 19.16601562 0.55664062 17.87109375 C0.51732422 16.55238281 0.47800781 15.23367187 0.4375 13.875 C0.39430488 12.53514249 0.35069027 11.19529844 0.30664062 9.85546875 C0.20029019 6.57042185 0.09826192 3.28529719 0 0 Z " fill="#31B6F1" transform="translate(59,51)"/>
<path d="M0 0 C0.33 0 0.66 0 1 0 C1.33 3.63 1.66 7.26 2 11 C-8.23 11 -18.46 11 -29 11 C-29 9.68 -29 8.36 -29 7 C-19.43 7 -9.86 7 0 7 C0 4.69 0 2.38 0 0 Z " fill="#67CAD6" transform="translate(111,138)"/>
<path d="M0 0 C0.66 0.99 1.32 1.98 2 3 C3.32 2.34 4.64 1.68 6 1 C6 1.99 6 2.98 6 4 C6.66 4.33 7.32 4.66 8 5 C7.67 5.99 7.34 6.98 7 8 C7.66 8.33 8.32 8.66 9 9 C8 12 8 12 5.625 13.75 C3 15 3 15 0 14 C-1.6875 11.9375 -1.6875 11.9375 -3 10 C-3.99 10.495 -3.99 10.495 -5 11 C-5.75 8.8125 -5.75 8.8125 -6 6 C-4.22336478 3.30441552 -2.90715555 1.45357777 0 0 Z " fill="#E0C5BA" transform="translate(88,41)"/>
<path d="M0 0 C4.20677051 0.39686514 6.09756099 1.59766262 9.3125 4.3125 C11.72346514 8.08967872 12.70749995 10.8358339 12.3125 15.3125 C11.3225 15.3125 10.3325 15.3125 9.3125 15.3125 C9.6425 13.6625 9.9725 12.0125 10.3125 10.3125 C8.9925 10.3125 7.6725 10.3125 6.3125 10.3125 C6.3125 9.3225 6.3125 8.3325 6.3125 7.3125 C5.714375 7.6425 5.11625 7.9725 4.5 8.3125 C2.3125 9.3125 2.3125 9.3125 -0.6875 9.3125 C-1.0175 9.9725 -1.3475 10.6325 -1.6875 11.3125 C-1.6875 10.3225 -1.6875 9.3325 -1.6875 8.3125 C-2.6775 8.3125 -3.6675 8.3125 -4.6875 8.3125 C-4.44 7.4153125 -4.44 7.4153125 -4.1875 6.5 C-3.5760876 4.19905664 -3.5760876 4.19905664 -3.6875 1.3125 C-2.6875 0.3125 -2.6875 0.3125 0 0 Z " fill="#3C1C4D" transform="translate(147.6875,96.6875)"/>
<path d="M0 0 C7.26 0 14.52 0 22 0 C22 1.32 22 2.64 22 4 C16.06 4 10.12 4 4 4 C4 6.64 4 9.28 4 12 C2.35 11.67 0.7 11.34 -1 11 C-0.67 7.37 -0.34 3.74 0 0 Z " fill="#69D0DD" transform="translate(177,117)"/>
<path d="M0 0 C6.27 0 12.54 0 19 0 C19 0.99 19 1.98 19 3 C14.38 3 9.76 3 5 3 C5 4.98 5 6.96 5 9 C3.5 12.375 3.5 12.375 2 15 C0.68 15 -0.64 15 -2 15 C-2 14.34 -2 13.68 -2 13 C-3.98 13 -5.96 13 -8 13 C-6 11 -6 11 -2.875 10.875 C-1.92625 10.91625 -0.9775 10.9575 0 11 C0 7.37 0 3.74 0 0 Z " fill="#DFD2C3" transform="translate(101,73)"/>
<path d="M0 0 C0.33 0 0.66 0 1 0 C1.33 8.91 1.66 17.82 2 27 C4.31 26.34 6.62 25.68 9 25 C11 27 11 27 11.1953125 28.9453125 C11.13020833 30.96354167 11.06510417 32.98177083 11 35 C7.37 35 3.74 35 0 35 C0 23.45 0 11.9 0 0 Z " fill="#38B9EF" transform="translate(58,58)"/>
<path d="M0 0 C7.59 0 15.18 0 23 0 C23.33 1.32 23.66 2.64 24 4 C20.39590081 4.05800828 16.79192149 4.09359869 13.1875 4.125 C11.65125977 4.15013672 11.65125977 4.15013672 10.08398438 4.17578125 C9.10107422 4.18222656 8.11816406 4.18867187 7.10546875 4.1953125 C6.19949951 4.20578613 5.29353027 4.21625977 4.36010742 4.22705078 C2 4 2 4 -1 2 C-0.67 1.34 -0.34 0.68 0 0 Z " fill="#33B0E8" transform="translate(94,43)"/>
<path d="M0 0 C2.68084404 0.6408587 5.23845677 0.7698714 8 1 C6 3 6 3 3.7409668 3.15112305 C2.81968994 3.10511963 1.89841309 3.05911621 0.94921875 3.01171875 C-0.05947266 2.96466797 -1.06816406 2.91761719 -2.10742188 2.86914062 C-3.16509766 2.80919922 -4.22277344 2.74925781 -5.3125 2.6875 C-6.88161133 2.61499023 -6.88161133 2.61499023 -8.48242188 2.54101562 C-13.09360013 2.30913588 -17.48226723 1.99548459 -22 1 C-21.67 0.01 -21.34 -0.98 -21 -2 C-18.25048889 -2.24913692 -15.5023728 -2.47491836 -12.75 -2.6875 C-11.97269531 -2.76033203 -11.19539062 -2.83316406 -10.39453125 -2.90820312 C-5.78377235 -3.24317279 -3.55365737 -3.23059761 0 0 Z " fill="#6BB9CB" transform="translate(145,119)"/>
<path d="M0 0 C1.98 0.66 3.96 1.32 6 2 C6.8125 4.1875 6.8125 4.1875 7 7 C4.5625 9.8125 4.5625 9.8125 2 12 C1.01 11.67 0.02 11.34 -1 11 C-1 10.01 -1 9.02 -1 8 C-1.33 7.67 -1.66 7.34 -2 7 C-2.66 7.99 -3.32 8.98 -4 10 C-4.8125 7.8125 -4.8125 7.8125 -5 5 C-2.5625 2.1875 -2.5625 2.1875 0 0 Z " fill="#2F96D0" transform="translate(112,169)"/>
<path d="M0 0 C0.66 0.33 1.32 0.66 2 1 C1.34 7.27 0.68 13.54 0 20 C-4.99875355 19.16687441 -7.71772212 18.34505694 -12 16 C-12 15.67 -12 15.34 -12 15 C-10.906875 14.814375 -9.81375 14.62875 -8.6875 14.4375 C-4.74343316 13.35083336 -4.74343316 13.35083336 -3.1875 9.75 C-2.795625 8.5125 -2.40375 7.275 -2 6 C-1.608125 4.865625 -1.21625 3.73125 -0.8125 2.5625 C-0.544375 1.716875 -0.27625 0.87125 0 0 Z " fill="#F095D0" transform="translate(122,119)"/>
<path d="M0 0 C3.00617269 3.00617269 2.59585316 5.82381598 3 10 C4.98 9.34 6.96 8.68 9 8 C10.01471171 9.21705006 11.0112461 10.44926884 12 11.6875 C12.556875 12.37199219 13.11375 13.05648437 13.6875 13.76171875 C15.22741897 16.38783056 15.25168194 18.00603356 15 21 C13.84775972 20.07038578 12.70340824 19.1309875 11.5625 18.1875 C10.92441406 17.66542969 10.28632812 17.14335938 9.62890625 16.60546875 C8 15 8 15 7 12 C2.62140745 12.50522222 0.18348776 15.17827222 -3 18 C-2.67 15.36 -2.34 12.72 -2 10 C-1.01 11.485 -1.01 11.485 0 13 C0.33 12.67 0.66 12.34 1 12 C0.90997602 9.97591245 0.75358962 7.95455713 0.5625 5.9375 C0.46066406 4.83277344 0.35882812 3.72804687 0.25390625 2.58984375 C0.17011719 1.73519531 0.08632813 0.88054688 0 0 Z " fill="#3AB5F0" transform="translate(30,32)"/>
<path d="M0 0 C2.97 0.99 5.94 1.98 9 3 C8.56802365 7.7517398 7.67230705 9.92000054 4 13 C2.68 12.34 1.36 11.68 0 11 C0 7.37 0 3.74 0 0 Z " fill="#331447" transform="translate(112,136)"/>
<path d="M0 0 C3.625 0.375 3.625 0.375 7 1 C7.33 3.31 7.66 5.62 8 8 C5 10 5 10 2.4375 9.75 C0 9 0 9 -2 7 C-2.25 4.5 -2.25 4.5 -2 2 C-1.34 1.34 -0.68 0.68 0 0 Z " fill="#D353D7" transform="translate(46,77)"/>
<path d="M0 0 C4.29 0 8.58 0 13 0 C13 1.98 13 3.96 13 6 C8.71 6 4.42 6 0 6 C0 4.02 0 2.04 0 0 Z " fill="#64DCEC" transform="translate(107,152)"/>
<path d="M0 0 C1.07354736 0.01571045 2.14709473 0.0314209 3.25317383 0.04760742 C4.41655273 0.05727539 5.57993164 0.06694336 6.77856445 0.0769043 C7.99350586 0.10204102 9.20844727 0.12717773 10.46020508 0.15307617 C11.68674805 0.16661133 12.91329102 0.18014648 14.17700195 0.1940918 C17.20934172 0.22948876 20.24080504 0.27886857 23.27270508 0.34057617 C22.94270508 1.33057617 22.61270508 2.32057617 22.27270508 3.34057617 C21.28270508 2.68057617 20.29270508 2.02057617 19.27270508 1.34057617 C19.27270508 2.00057617 19.27270508 2.66057617 19.27270508 3.34057617 C11.02270508 3.34057617 2.77270508 3.34057617 -5.72729492 3.34057617 C-2.72729492 0.34057617 -2.72729492 0.34057617 0 0 Z " fill="#DD67EA" transform="translate(75.727294921875,72.659423828125)"/>
<path d="M0 0 C0.66 0 1.32 0 2 0 C2.78773917 3.53501458 3.17495802 6.90249788 3.31640625 10.51953125 C3.35830078 11.54111328 3.40019531 12.56269531 3.44335938 13.61523438 C3.48267578 14.67033203 3.52199219 15.72542969 3.5625 16.8125 C3.62727539 18.42415039 3.62727539 18.42415039 3.69335938 20.06835938 C3.79910983 22.71212082 3.90120233 25.3559711 4 28 C6.31 28.66 8.62 29.32 11 30 C11 30.66 11 31.32 11 32 C10.21625 32.309375 9.4325 32.61875 8.625 32.9375 C4.77021196 34.49777135 3.70855426 35.21677271 2 39 C1.97494385 38.03586182 1.9498877 37.07172363 1.92407227 36.07836914 C1.83014694 32.51312158 1.72989061 28.94807567 1.62768555 25.38305664 C1.58428015 23.83785711 1.54260929 22.29260786 1.50268555 20.74731445 C1.44511801 18.53060904 1.38138576 16.3141552 1.31640625 14.09765625 C1.29969376 13.4028566 1.28298126 12.70805695 1.26576233 11.99220276 C1.43497144 8.71237971 1.43497144 8.71237971 0 6 C-0.04080783 4.00041636 -0.04254356 1.99954746 0 0 Z " fill="#2F7DB6" transform="translate(57,51)"/>
<path d="M0 0 C2.3125 1 2.3125 1 4.3125 4 C3.9375 6.6875 3.9375 6.6875 3.3125 9 C0.3425 8.67 -2.6275 8.34 -5.6875 8 C-6.0175 8.66 -6.3475 9.32 -6.6875 10 C-7.5 7.8125 -7.5 7.8125 -7.6875 5 C-3.99184783 0 -3.99184783 0 0 0 Z " fill="#CB4FD0" transform="translate(149.6875,169)"/>
<path d="M0 0 C0.66 0.33 1.32 0.66 2 1 C2.25719817 3.02543556 2.50842122 5.05350224 2.65625 7.08984375 C2.85476212 9.23522156 2.85476212 9.23522156 5 11 C4.8125 14.5 4.8125 14.5 4 18 C1 20 1 20 -2 20 C-1.33333333 13.33333333 -0.66666667 6.66666667 0 0 Z " fill="#A945B4" transform="translate(131,161)"/>
<path d="M0 0 C0.33 0.66 0.66 1.32 1 2 C1.66 2 2.32 2 3 2 C3 4.97 3 7.94 3 11 C-1.29 10.67 -5.58 10.34 -10 10 C-10 8.68 -10 7.36 -10 6 C-8.72125 5.7525 -7.4425 5.505 -6.125 5.25 C-2.73252682 4.48009414 -2.73252682 4.48009414 -0.5 1.875 C-0.335 1.25625 -0.17 0.6375 0 0 Z " fill="#6BCEDE" transform="translate(170,115)"/>
<path d="M0 0 C0.99 0 1.98 0 3 0 C3 8.25 3 16.5 3 25 C2.01 25 1.02 25 0 25 C0 16.75 0 8.5 0 0 Z " fill="#6FE4EB" transform="translate(91,9)"/>
<path d="M0 0 C0.99 0.33 1.98 0.66 3 1 C3.125 7.625 3.125 7.625 2 11 C-0.31 11 -2.62 11 -5 11 C-4.67 7.7 -4.34 4.4 -4 1 C-3.01 1.33 -2.02 1.66 -1 2 C-0.67 1.34 -0.34 0.68 0 0 Z " fill="#E2CEC4" transform="translate(99,73)"/>
<path d="M0 0 C0 1.98 0 3.96 0 6 C-2.31 6 -4.62 6 -7 6 C-7.33 6.66 -7.66 7.32 -8 8 C-9.5 6.6875 -9.5 6.6875 -11 5 C-11 2 -11 2 -9.4375 0.25 C-6.02862887 -1.49813904 -3.66340563 -0.77495119 0 0 Z " fill="#79D3E8" transform="translate(58,24)"/>
<path d="M0 0 C0.33 0.99 0.66 1.98 1 3 C-0.98 4.98 -2.96 6.96 -5 9 C-3.68 9.66 -2.36 10.32 -1 11 C-2.95689659 11.22142255 -4.91561952 11.4267568 -6.875 11.625 C-7.96554688 11.74101563 -9.05609375 11.85703125 -10.1796875 11.9765625 C-11.57574219 11.98816406 -11.57574219 11.98816406 -13 12 C-13.66 11.34 -14.32 10.68 -15 10 C-13.948125 9.38125 -13.948125 9.38125 -12.875 8.75 C-8.42731256 6.04271199 -4.1277329 3.17517915 0 0 Z " fill="#7987E4" transform="translate(31,74)"/>
<path d="M0 0 C2.125 0.375 2.125 0.375 4 1 C3.67 1.99 3.34 2.98 3 4 C3.66 4.33 4.32 4.66 5 5 C4 8 4 8 1.625 9.75 C-1 11 -1 11 -4 10 C-5.6875 7.4375 -5.6875 7.4375 -7 5 C-5.68 5.33 -4.36 5.66 -3 6 C-2.814375 5.071875 -2.814375 5.071875 -2.625 4.125 C-2 2 -2 2 0 0 Z " fill="#DDC4BB" transform="translate(92,45)"/>
<path d="M0 0 C2 2 2 2 2 5 C-2.62 5 -7.24 5 -12 5 C-12 3.68 -12 2.36 -12 1 C-10.04310341 0.77857745 -8.08438048 0.5732432 -6.125 0.375 C-4.48917969 0.20097656 -4.48917969 0.20097656 -2.8203125 0.0234375 C-1.88960937 0.01570313 -0.95890625 0.00796875 0 0 Z " fill="#6ACFDA" transform="translate(96,116)"/>
<path d="M0 0 C6.27 0 12.54 0 19 0 C19 0.99 19 1.98 19 3 C13.06 3 7.12 3 1 3 C0.67 2.01 0.34 1.02 0 0 Z " fill="#DF68EA" transform="translate(101,73)"/>
<path d="M0 0 C2.95409701 1.37154504 5.44008376 2.98863724 8 5 C7.67 6.32 7.34 7.64 7 9 C4.69 9 2.38 9 0 9 C-1.36623674 6.26752652 -1.128426 4.01801098 -1 1 C-0.67 0.67 -0.34 0.34 0 0 Z " fill="#462357" transform="translate(31,6)"/>
<path d="M0 0 C2.9375 2 2.9375 2 5 4 C4.67 4.66 4.34 5.32 4 6 C2.68 5.67 1.36 5.34 0 5 C0.66 5 1.32 5 2 5 C2 4.34 2 3.68 2 3 C-0.97065509 3.34227572 -0.97065509 3.34227572 -4 4 C-4.33 4.66 -4.66 5.32 -5 6 C-7.31 5.01 -9.62 4.02 -12 3 C-8.45694339 -0.54305661 -4.80309037 -0.41405951 0 0 Z " fill="#A741AF" transform="translate(159,94)"/>
<path d="M0 0 C0.99 0 1.98 0 3 0 C3 5.61 3 11.22 3 17 C2.01 17 1.02 17 0 17 C0 11.39 0 5.78 0 0 Z " fill="#70E4EB" transform="translate(70,76)"/>
<path d="M0 0 C0.33 0 0.66 0 1 0 C1.2475 1.216875 1.495 2.43375 1.75 3.6875 C2.7049925 7.58359258 4.22781085 10.04299824 7 13 C5.3125 13.8125 5.3125 13.8125 3 14 C0.25 11.9375 0.25 11.9375 -2 9 C-2.57991403 4.85775694 -2.34549674 3.51824511 0 0 Z " fill="#33B8F2" transform="translate(76,54)"/>
<path d="M0 0 C3 0.125 3 0.125 4 1.125 C4.1875 4.0625 4.1875 4.0625 4 7.125 C2 9.125 2 9.125 -0.625 9.25 C-1.40875 9.20875 -2.1925 9.1675 -3 9.125 C-3.33 8.135 -3.66 7.145 -4 6.125 C-2.68 5.795 -1.36 5.465 0 5.125 C0 4.465 0 3.805 0 3.125 C-1.32 2.465 -2.64 1.805 -4 1.125 C-3 0.125 -3 0.125 0 0 Z " fill="#65C6D3" transform="translate(81,77.875)"/>
<path d="M0 0 C0.515625 0.309375 1.03125 0.61875 1.5625 0.9375 C4.66665423 2.29059287 7.65115007 2.61359424 11 3 C4.40909091 8 4.40909091 8 0 8 C0 5.36 0 2.72 0 0 Z " fill="#8A8AEF" transform="translate(66,68)"/>
<path d="M0 0 C2.31 0.33 4.62 0.66 7 1 C7.33 3.31 7.66 5.62 8 8 C7.01 8 6.02 8 5 8 C5.66 6.68 6.32 5.36 7 4 C6.34 4 5.68 4 5 4 C4.34 5.32 3.68 6.64 3 8 C0.4345406 5.4345406 0.45953913 3.52313332 0 0 Z " fill="#BC49C2" transform="translate(46,77)"/>
<path d="M0 0 C1.32 0 2.64 0 4 0 C4.8125 2.1875 4.8125 2.1875 5 5 C2.5625 7.8125 2.5625 7.8125 0 10 C-0.99 9.67 -1.98 9.34 -3 9 C-2.34 8.01 -1.68 7.02 -1 6 C-0.34 6 0.32 6 1 6 C0.67 4.02 0.34 2.04 0 0 Z " fill="#2FA1DB" transform="translate(114,171)"/>
<path d="M0 0 C2.97 0 5.94 0 9 0 C9 1.32 9 2.64 9 4 C6.03 4 3.06 4 0 4 C0 2.68 0 1.36 0 0 Z " fill="#71E1EB" transform="translate(160,121)"/>
<path d="M0 0 C3.00617269 3.00617269 2.59585316 5.82381598 3 10 C3.99 10 4.98 10 6 10 C4.73762269 12.52475462 3.2095347 13.46605403 0.9375 15.125 C0.20402344 15.66382813 -0.52945312 16.20265625 -1.28515625 16.7578125 C-1.85105469 17.16773437 -2.41695312 17.57765625 -3 18 C-2.67 15.36 -2.34 12.72 -2 10 C-1.01 11.485 -1.01 11.485 0 13 C0.33 12.67 0.66 12.34 1 12 C0.90997602 9.97591245 0.75358962 7.95455713 0.5625 5.9375 C0.46066406 4.83277344 0.35882812 3.72804687 0.25390625 2.58984375 C0.17011719 1.73519531 0.08632813 0.88054688 0 0 Z " fill="#4A80C5" transform="translate(30,32)"/>
<path d="M0 0 C3.3 0 6.6 0 10 0 C9.625 2.4375 9.625 2.4375 9 5 C8.01 5.495 8.01 5.495 7 6 C7 6.66 7 7.32 7 8 C6.01 8 5.02 8 4 8 C3.67 6.68 3.34 5.36 3 4 C3.66 4 4.32 4 5 4 C5 3.34 5 2.68 5 2 C3.35 1.67 1.7 1.34 0 1 C0 0.67 0 0.34 0 0 Z " fill="#C09595" transform="translate(48,39)"/>
<path d="M0 0 C0.66 0.33 1.32 0.66 2 1 C2.25713775 2.99281757 2.50836152 4.98829861 2.65625 6.9921875 C2.91308355 9.30982249 2.91308355 9.30982249 5 12 C4.34 12.66 3.68 13.32 3 14 C1.68 13.34 0.36 12.68 -1 12 C-0.67 8.04 -0.34 4.08 0 0 Z " fill="#BA54CD" transform="translate(131,161)"/>
<path d="M0 0 C0.66 0 1.32 0 2 0 C3.13005694 3.5091242 2.98574145 6.53292935 2.6875 10.1875 C2.60886719 11.25355469 2.53023438 12.31960937 2.44921875 13.41796875 C2.30097656 14.27003906 2.15273437 15.12210938 2 16 C1.34 16.33 0.68 16.66 0 17 C0 11.39 0 5.78 0 0 Z " fill="#63BFCD" transform="translate(73,76)"/>
<path d="M0 0 C4.29 0.66 8.58 1.32 13 2 C13 2.66 13 3.32 13 4 C11.39592672 4.02708567 9.7917215 4.04643483 8.1875 4.0625 C6.84751953 4.07990234 6.84751953 4.07990234 5.48046875 4.09765625 C3 4 3 4 0 3 C0 2.01 0 1.02 0 0 Z " fill="#D45BD4" transform="translate(34,25)"/>
<path d="M0 0 C0.99 0.33 1.98 0.66 3 1 C3.125 7.625 3.125 7.625 2 11 C0.68 10.67 -0.64 10.34 -2 10 C-1.67 9.67 -1.34 9.34 -1 9 C-0.76807135 7.48530552 -0.58784762 5.96245438 -0.4375 4.4375 C-0.35371094 3.61121094 -0.26992187 2.78492187 -0.18359375 1.93359375 C-0.12300781 1.29550781 -0.06242187 0.65742187 0 0 Z " fill="#F8C9BD" transform="translate(99,73)"/>
<path d="M0 0 C2.31 0.66 4.62 1.32 7 2 C6.67 2.99 6.34 3.98 6 5 C4.35 5 2.7 5 1 5 C0.67 5.66 0.34 6.32 0 7 C-1.125 2.25 -1.125 2.25 0 0 Z " fill="#BB49C2" transform="translate(143,172)"/>
<path d="M0 0 C0 0.99 0 1.98 0 3 C-0.639375 3.474375 -1.27875 3.94875 -1.9375 4.4375 C-4.1673461 5.82479287 -4.1673461 5.82479287 -4.75 8.1875 C-4.8325 8.785625 -4.915 9.38375 -5 10 C-6.32 9.01 -7.64 8.02 -9 7 C-8.34 7 -7.68 7 -7 7 C-6.731875 6.401875 -6.46375 5.80375 -6.1875 5.1875 C-3.37142857 0 -3.37142857 0 0 0 Z " fill="#F5CEBB" transform="translate(94,42)"/>
<path d="M0 0 C0.33 0 0.66 0 1 0 C1 2.31 1 4.62 1 7 C-1.31 7 -3.62 7 -6 7 C-5.02433888 5.83040013 -4.044375 4.66438823 -3.0625 3.5 C-2.51722656 2.8503125 -1.97195312 2.200625 -1.41015625 1.53125 C-0.71212891 0.77328125 -0.71212891 0.77328125 0 0 Z " fill="#32B6F3" transform="translate(31,77)"/>
<path d="M0 0 C-2.55068845 2.35448165 -3.71017358 2.98327924 -7.25 3.1875 C-8.1575 3.125625 -9.065 3.06375 -10 3 C-10 2.01 -10 1.02 -10 0 C-3.375 -1.125 -3.375 -1.125 0 0 Z " fill="#B85BCA" transform="translate(170,118)"/>
<path d="M0 0 C0.33 0 0.66 0 1 0 C1 5.61 1 11.22 1 17 C0.67 17 0.34 17 0 17 C-0.144375 15.906875 -0.28875 14.81375 -0.4375 13.6875 C-0.88288104 10.06877013 -0.88288104 10.06877013 -2 7 C-1.40206327 4.64811553 -0.74118205 2.31074405 0 0 Z " fill="#5AA0B4" transform="translate(69,76)"/>
<path d="M0 0 C1.7325 0.1546875 1.7325 0.1546875 3.5 0.3125 C4.16 1.3025 4.82 2.2925 5.5 3.3125 C3.85 3.6425 2.2 3.9725 0.5 4.3125 C0.5 3.6525 0.5 2.9925 0.5 2.3125 C-1.48 2.3125 -3.46 2.3125 -5.5 2.3125 C-3.5 0.3125 -3.5 0.3125 0 0 Z " fill="#D7ACA4" transform="translate(98.5,83.6875)"/>
<path d="M0 0 C0.99 0.33 1.98 0.66 3 1 C3 3.97 3 6.94 3 10 C2.34 10 1.68 10 1 10 C-0.83691257 6.21812119 -1.15837626 4.05431692 0 0 Z " fill="#DFB2A7" transform="translate(47,9)"/>
<path d="M0 0 C1.485 0.99 1.485 0.99 3 2 C3.66 2.33 4.32 2.66 5 3 C4.67 5.64 4.34 8.28 4 11 C3.67 9.68 3.34 8.36 3 7 C2.34 7 1.68 7 1 7 C0.67 4.69 0.34 2.38 0 0 Z " fill="#3A8ECD" transform="translate(125,173)"/>
<path d="M0 0 C5.75 -0.125 5.75 -0.125 8 1 C8 1.66 8 2.32 8 3 C4.71303767 3.79953138 3.28976808 4.09658936 0 3 C0 2.01 0 1.02 0 0 Z " fill="#3490C6" transform="translate(60,80)"/>
<path d="M0 0 C3 2 3 2 4 5 C4.12781786 7.67394964 4.04391871 10.32095857 4 13 C2.42445965 10.11371599 1.53723627 7.46657616 0.875 4.25 C0.70742188 3.45078125 0.53984375 2.6515625 0.3671875 1.828125 C0.24601562 1.22484375 0.12484375 0.6215625 0 0 Z " fill="#41ADF1" transform="translate(30,29)"/>
<path d="M0 0 C2.97 0 5.94 0 9 0 C8.67 1.32 8.34 2.64 8 4 C2.25 2.25 2.25 2.25 0 0 Z " fill="#CB69BF" transform="translate(157,112)"/>
<path d="M0 0 C0.33 0.66 0.66 1.32 1 2 C-4.41538462 3.23076923 -4.41538462 3.23076923 -7.375 2.0625 C-7.91125 1.711875 -8.4475 1.36125 -9 1 C-5.63579264 -0.58865348 -3.5299383 -1.5128307 0 0 Z " fill="#D45ED8" transform="translate(156,95)"/>
<path d="M0 0 C0.66 0 1.32 0 2 0 C2.33 3.63 2.66 7.26 3 11 C2.34 9.68 1.68 8.36 1 7 C0.67 6.67 0.34 6.34 0 6 C-0.04080783 4.00041636 -0.04254356 1.99954746 0 0 Z " fill="#3099D3" transform="translate(57,51)"/>
<path d="M0 0 C0.33 1.32 0.66 2.64 1 4 C-0.65 4.66 -2.3 5.32 -4 6 C-4 4.68 -4 3.36 -4 2 C-2.68 1.34 -1.36 0.68 0 0 Z " fill="#E75BE9" transform="translate(165,107)"/>
</svg>
